G04*
G04 #@! TF.GenerationSoftware,Altium Limited,Altium Designer,23.2.1 (34)*
G04*
G04 Layer_Physical_Order=2*
G04 Layer_Color=16711680*
%FSLAX25Y25*%
%MOIN*%
G70*
G04*
G04 #@! TF.SameCoordinates,0B46A028-55CD-44D3-B25E-2AE8110CF676*
G04*
G04*
G04 #@! TF.FilePolarity,Positive*
G04*
G01*
G75*
%ADD17C,0.06693*%
%ADD18R,0.06693X0.06693*%
%ADD22C,0.11811*%
%ADD23R,0.06693X0.06693*%
%ADD24C,0.07677*%
%ADD25R,0.07677X0.07677*%
%ADD26C,0.03543*%
%ADD27C,0.01575*%
%ADD28C,0.01500*%
D17*
X499685Y127953D02*
D03*
X509685D02*
D03*
X598425Y171260D02*
D03*
X509685Y167323D02*
D03*
X519685D02*
D03*
X462598Y161417D02*
D03*
Y141417D02*
D03*
Y151417D02*
D03*
X598425Y125984D02*
D03*
X561024Y126969D02*
D03*
X330709Y153543D02*
D03*
Y143543D02*
D03*
Y163543D02*
D03*
X561024Y158465D02*
D03*
D18*
X598425Y161417D02*
D03*
X462598Y131417D02*
D03*
X598425Y135827D02*
D03*
X561024Y136811D02*
D03*
X330709Y133543D02*
D03*
X561024Y168307D02*
D03*
D22*
X303150Y147638D02*
D03*
X492126D02*
D03*
X677165D02*
D03*
D23*
X519685Y127953D02*
D03*
X499685Y167323D02*
D03*
D24*
X633858Y145669D02*
D03*
X407480Y147638D02*
D03*
X387795D02*
D03*
X368110D02*
D03*
D25*
X653543Y145669D02*
D03*
X427165Y147638D02*
D03*
D26*
X291339Y98425D02*
Y202756D01*
Y98425D02*
X688976D01*
Y202756D01*
X291339D02*
X688976D01*
X509082Y128555D02*
Y132650D01*
Y128555D02*
X509685Y127953D01*
X504921Y136811D02*
X509082Y132650D01*
X466063Y127953D02*
X499685D01*
X462598Y131417D02*
X466063Y127953D01*
X317036Y125276D02*
X367601D01*
X314961Y173228D02*
X320866Y179134D01*
X314961Y127351D02*
X317036Y125276D01*
X314961Y127351D02*
Y173228D01*
X322441Y150119D02*
Y166968D01*
Y150119D02*
X329784Y142776D01*
X327284Y171811D02*
X412146D01*
X322441Y166968D02*
X327284Y171811D01*
X407480Y146519D02*
Y147638D01*
X483035Y141417D02*
X487641Y136811D01*
X504921D01*
X519685Y151575D01*
X499685Y127953D02*
X500288Y127350D01*
X561024Y136811D02*
Y158465D01*
X561024Y158465D01*
X614173Y120575D02*
Y138976D01*
X598913Y105315D02*
X614173Y120575D01*
X609055Y144095D02*
X614173Y138976D01*
X449803Y105315D02*
X598913D01*
X600394Y137402D02*
X601468D01*
X606693Y132176D01*
X320866Y179134D02*
X488378D01*
X407480Y147638D02*
X407480Y147638D01*
X407480Y143221D02*
Y147638D01*
Y143221D02*
X418516Y132185D01*
X499685Y167323D02*
X501260Y168898D01*
Y170590D01*
X512953Y182283D01*
X587402D01*
X508839Y168169D02*
X516260Y175591D01*
X367601Y125276D02*
X388879Y146554D01*
X659420Y136909D02*
X662303Y139792D01*
Y151546D01*
X627629Y186221D02*
X662303Y151546D01*
X604331Y186221D02*
X627629D01*
X645264Y136909D02*
X659420D01*
X642618Y139555D02*
X645264Y136909D01*
X620656Y171260D02*
X642618Y149298D01*
X621853Y179528D02*
X653594Y147787D01*
X642618Y139555D02*
Y149298D01*
X599623Y179528D02*
X621853D01*
X651476Y147736D02*
X653543Y145669D01*
X598425Y171260D02*
X620656D01*
X651387Y147736D02*
X651476D01*
X594882Y195669D02*
X604331Y186221D01*
X488378Y179134D02*
X504914Y195669D01*
X594882D01*
X587402Y182283D02*
X598425Y171260D01*
X507686Y188976D02*
X590174D01*
X599623Y179528D01*
X487715Y169005D02*
X507686Y188976D01*
X387795Y146519D02*
Y147638D01*
X384167Y156398D02*
X391424D01*
X376870Y144010D02*
Y149101D01*
X398721Y142516D02*
Y149101D01*
X417220Y124016D02*
X431102D01*
X376870Y149101D02*
X384167Y156398D01*
X391424D02*
X398721Y149101D01*
X412146Y171811D02*
X427165Y156792D01*
X330709Y163543D02*
X403963D01*
X398721Y142516D02*
X417220Y124016D01*
X431102D02*
X449803Y105315D01*
X366404Y133543D02*
X376870Y144010D01*
X330709Y133543D02*
X366404D01*
X403963Y163543D02*
X418405Y149101D01*
X421288Y138878D02*
X433042D01*
X418405Y141761D02*
X421288Y138878D01*
X433042D02*
X445582Y151417D01*
X418516Y132185D02*
X435815D01*
X455992Y112008D02*
X596141D01*
X435815Y132185D02*
X445047Y141417D01*
X435815Y132185D02*
X455992Y112008D01*
X418405Y141761D02*
Y149101D01*
X462598Y141417D02*
X483035D01*
X445047D02*
X462598D01*
X500288Y122350D02*
Y127350D01*
Y122350D02*
X503937Y118701D01*
X462599Y161417D02*
X480315D01*
X462598Y161417D02*
X462599Y161417D01*
X487715Y168817D02*
Y169005D01*
X480315Y161417D02*
X487715Y168817D01*
X462598Y151417D02*
X480594D01*
X487641Y158465D02*
X504479D01*
X480594Y151417D02*
X487641Y158465D01*
X504479D02*
X509082Y163068D01*
Y166720D02*
X509685Y167323D01*
X509082Y163068D02*
Y166720D01*
X516260Y175591D02*
X534213D01*
X509685Y167323D02*
Y168175D01*
X561024Y136811D02*
X561443Y136392D01*
X574238D01*
X588634Y150787D01*
X611827D01*
X591406Y144095D02*
X609055D01*
X574280Y126969D02*
X591406Y144095D01*
X561024Y126969D02*
X574280D01*
X606693Y122560D02*
Y132176D01*
X596141Y112008D02*
X606693Y122560D01*
X427165Y147638D02*
Y156792D01*
X329856Y143543D02*
X330709D01*
X445582Y151417D02*
X462598D01*
X387795Y147638D02*
X387795Y147638D01*
X611827Y150787D02*
X616946Y145669D01*
X633858D01*
X581988Y161417D02*
X598425D01*
X575099Y168307D02*
X581988Y161417D01*
X591142Y118701D02*
X598425Y125984D01*
X503937Y118701D02*
X591142D01*
X534213Y175591D02*
X541496Y168307D01*
X520177Y127461D02*
X560532D01*
X561024Y126969D01*
X519685Y127953D02*
X520177Y127461D01*
X561024Y136811D02*
X561024Y136811D01*
X519685Y151575D02*
Y167323D01*
X561024Y168307D02*
X575099D01*
X519685Y167323D02*
X533015D01*
X541874Y158465D01*
X561024D01*
X541496Y168307D02*
X561024D01*
X361086Y153543D02*
X366992Y147638D01*
X330709Y153543D02*
X361086D01*
X366992Y147638D02*
X368110D01*
D27*
X438405Y192987D02*
X435031D01*
X433906Y193362D01*
X433531Y193737D01*
X433157Y194486D01*
Y195611D01*
X433531Y196361D01*
X433906Y196736D01*
X435031Y197111D01*
X438405D01*
Y189238D01*
X429520Y194486D02*
X430270Y194112D01*
X431020Y193362D01*
X431395Y192237D01*
Y191488D01*
X431020Y190363D01*
X430270Y189613D01*
X429520Y189238D01*
X428396D01*
X427646Y189613D01*
X426896Y190363D01*
X426521Y191488D01*
Y192237D01*
X426896Y193362D01*
X427646Y194112D01*
X428396Y194486D01*
X429520D01*
X424797D02*
X423297Y189238D01*
X421798Y194486D02*
X423297Y189238D01*
X421798Y194486D02*
X420298Y189238D01*
X418799Y194486D02*
X420298Y189238D01*
X416962Y192237D02*
X412464D01*
Y192987D01*
X412839Y193737D01*
X413213Y194112D01*
X413963Y194486D01*
X415088D01*
X415837Y194112D01*
X416587Y193362D01*
X416962Y192237D01*
Y191488D01*
X416587Y190363D01*
X415837Y189613D01*
X415088Y189238D01*
X413963D01*
X413213Y189613D01*
X412464Y190363D01*
X410777Y194486D02*
Y189238D01*
Y192237D02*
X410402Y193362D01*
X409652Y194112D01*
X408902Y194486D01*
X407778D01*
X400880Y197111D02*
Y189238D01*
Y197111D02*
X397506D01*
X396381Y196736D01*
X396007Y196361D01*
X395632Y195611D01*
Y194861D01*
X396007Y194112D01*
X396381Y193737D01*
X397506Y193362D01*
X400880D01*
X398256D02*
X395632Y189238D01*
X393870Y192237D02*
X389371D01*
Y192987D01*
X389746Y193737D01*
X390121Y194112D01*
X390871Y194486D01*
X391996D01*
X392745Y194112D01*
X393495Y193362D01*
X393870Y192237D01*
Y191488D01*
X393495Y190363D01*
X392745Y189613D01*
X391996Y189238D01*
X390871D01*
X390121Y189613D01*
X389371Y190363D01*
X383186Y194486D02*
Y188488D01*
X383561Y187364D01*
X383936Y186989D01*
X384685Y186614D01*
X385810D01*
X386560Y186989D01*
X383186Y193362D02*
X383936Y194112D01*
X384685Y194486D01*
X385810D01*
X386560Y194112D01*
X387310Y193362D01*
X387684Y192237D01*
Y191488D01*
X387310Y190363D01*
X386560Y189613D01*
X385810Y189238D01*
X384685D01*
X383936Y189613D01*
X383186Y190363D01*
X381087Y194486D02*
Y190738D01*
X380712Y189613D01*
X379962Y189238D01*
X378837D01*
X378088Y189613D01*
X376963Y190738D01*
Y194486D02*
Y189238D01*
X374901Y197111D02*
Y189238D01*
X368753Y194486D02*
Y189238D01*
Y193362D02*
X369503Y194112D01*
X370253Y194486D01*
X371377D01*
X372127Y194112D01*
X372877Y193362D01*
X373252Y192237D01*
Y191488D01*
X372877Y190363D01*
X372127Y189613D01*
X371377Y189238D01*
X370253D01*
X369503Y189613D01*
X368753Y190363D01*
X365529Y197111D02*
Y190738D01*
X365155Y189613D01*
X364405Y189238D01*
X363655D01*
X366654Y194486D02*
X364030D01*
X360656D02*
X361406Y194112D01*
X362156Y193362D01*
X362530Y192237D01*
Y191488D01*
X362156Y190363D01*
X361406Y189613D01*
X360656Y189238D01*
X359531D01*
X358782Y189613D01*
X358032Y190363D01*
X357657Y191488D01*
Y192237D01*
X358032Y193362D01*
X358782Y194112D01*
X359531Y194486D01*
X360656D01*
X355933D02*
Y189238D01*
Y192237D02*
X355558Y193362D01*
X354808Y194112D01*
X354058Y194486D01*
X352934D01*
D28*
X391041Y114797D02*
X392041Y115797D01*
X394040D01*
X395040Y114797D01*
Y110798D01*
X394040Y109799D01*
X392041D01*
X391041Y110798D01*
Y112798D01*
X393040D01*
X389042Y113797D02*
Y109799D01*
Y111798D01*
X388042Y112798D01*
X387042Y113797D01*
X386043D01*
X382044Y109799D02*
X380045D01*
X379045Y110798D01*
Y112798D01*
X380045Y113797D01*
X382044D01*
X383044Y112798D01*
Y110798D01*
X382044Y109799D01*
X377046Y113797D02*
Y110798D01*
X376046Y109799D01*
X373047D01*
Y113797D01*
X371048Y107799D02*
Y113797D01*
X368049D01*
X367049Y112798D01*
Y110798D01*
X368049Y109799D01*
X371048D01*
X355053D02*
X359051D01*
X355053Y113797D01*
Y114797D01*
X356052Y115797D01*
X358052D01*
X359051Y114797D01*
X353053Y115797D02*
X349055D01*
Y114797D01*
X353053Y110798D01*
Y109799D01*
M02*
