G04*
G04 #@! TF.GenerationSoftware,Altium Limited,Altium Designer,23.1.1 (15)*
G04*
G04 Layer_Color=65535*
%FSLAX25Y25*%
%MOIN*%
G70*
G04*
G04 #@! TF.SameCoordinates,4CC54058-0C85-46A6-9067-FF0A4DDA324E*
G04*
G04*
G04 #@! TF.FilePolarity,Positive*
G04*
G01*
G75*
%ADD10C,0.00787*%
%ADD11C,0.00591*%
%ADD12C,0.01000*%
%ADD13C,0.00500*%
D10*
X90807Y255157D02*
X90020D01*
X90807D01*
X250256Y180354D02*
X249468D01*
X250256D01*
X165610Y178386D02*
X164823D01*
X165610D01*
X169547Y127205D02*
X168760D01*
X169547D01*
X88839Y312244D02*
X88051D01*
X88839D01*
X95866Y74803D02*
X95079D01*
X95866D01*
X183209Y234252D02*
X182421D01*
X183209D01*
X230571Y127205D02*
X229784D01*
X230571D01*
X96024Y122047D02*
X95236D01*
X96024D01*
X95866Y98425D02*
X95079D01*
X95866D01*
X159705Y322087D02*
X158917D01*
X159705D01*
X229528Y323425D02*
X231598D01*
X236906Y298622D02*
X238976D01*
X236906Y323425D02*
X238976D01*
X229528Y298622D02*
X231598D01*
X229528D02*
Y323425D01*
X238976Y298622D02*
Y323425D01*
X168701Y333858D02*
Y335929D01*
X193504Y341236D02*
Y343307D01*
X168701Y341236D02*
Y343307D01*
X193504Y333858D02*
Y335929D01*
X168701Y333858D02*
X193504D01*
X168701Y343307D02*
X193504D01*
X172047Y258366D02*
X190157D01*
X201772Y309842D02*
Y324016D01*
X210531D02*
X211614D01*
X201772D02*
X202854D01*
X211614Y309842D02*
Y324016D01*
X210531Y309842D02*
X211614D01*
X201772D02*
X202854D01*
X212008Y133071D02*
Y135142D01*
X236811Y140449D02*
Y142520D01*
X212008Y140449D02*
Y142520D01*
X236811Y133071D02*
Y135142D01*
X212008Y133071D02*
X236811D01*
X212008Y142520D02*
X236811D01*
X150197Y171945D02*
Y174016D01*
X125394Y164567D02*
Y166638D01*
X150197Y164567D02*
Y166638D01*
X125394Y171945D02*
Y174016D01*
X150197D01*
X125394Y164567D02*
X150197D01*
X208917Y59961D02*
Y69961D01*
Y59961D02*
X239902D01*
Y69961D01*
X208917D02*
X239902D01*
X140945Y289961D02*
X143016D01*
X148323Y265158D02*
X150394D01*
X148323Y289961D02*
X150394D01*
X140945Y265158D02*
X143016D01*
X140945D02*
Y289961D01*
X150394Y265158D02*
Y289961D01*
X209252Y250685D02*
Y252756D01*
X184449Y243307D02*
Y245378D01*
X209252Y243307D02*
Y245378D01*
X184449Y250685D02*
Y252756D01*
X209252D01*
X184449Y243307D02*
X209252D01*
X99331Y147736D02*
Y178720D01*
X109331D01*
Y147736D02*
Y178720D01*
X99331Y147736D02*
X109331D01*
X118701Y272339D02*
Y274410D01*
X93898Y264961D02*
Y267032D01*
X118701Y264961D02*
Y267032D01*
X93898Y272339D02*
Y274410D01*
X118701D01*
X93898Y264961D02*
X118701D01*
X290551Y97835D02*
Y122638D01*
X300000Y97835D02*
Y122638D01*
X297929D02*
X300000D01*
X290551Y97835D02*
X292622D01*
X290551Y122638D02*
X292622D01*
X297929Y97835D02*
X300000D01*
X276772D02*
Y122638D01*
X286221Y97835D02*
Y122638D01*
X284150D02*
X286221D01*
X276772Y97835D02*
X278842D01*
X276772Y122638D02*
X278842D01*
X284150Y97835D02*
X286221D01*
X162205D02*
Y122638D01*
X152756Y97835D02*
Y122638D01*
Y97835D02*
X154827D01*
X160134Y122638D02*
X162205D01*
X160134Y97835D02*
X162205D01*
X152756Y122638D02*
X154827D01*
X231102Y152953D02*
Y177756D01*
X221654Y152953D02*
Y177756D01*
Y152953D02*
X223724D01*
X229031Y177756D02*
X231102D01*
X229031Y152953D02*
X231102D01*
X221654Y177756D02*
X223724D01*
X162598Y206102D02*
Y230906D01*
X172047Y206102D02*
Y230906D01*
X169976D02*
X172047D01*
X162598Y206102D02*
X164669D01*
X162598Y230906D02*
X164669D01*
X169976Y206102D02*
X172047D01*
X207874Y152953D02*
Y177756D01*
X217323Y152953D02*
Y177756D01*
X215252D02*
X217323D01*
X207874Y152953D02*
X209945D01*
X207874Y177756D02*
X209945D01*
X215252Y152953D02*
X217323D01*
X125394Y176378D02*
X150197D01*
X125394Y185827D02*
X150197D01*
X125394Y183756D02*
Y185827D01*
X150197Y176378D02*
Y178449D01*
X125394Y176378D02*
Y178449D01*
X150197Y183756D02*
Y185827D01*
X180512Y89370D02*
X205315D01*
X180512Y79921D02*
X205315D01*
Y81992D01*
X180512Y87299D02*
Y89370D01*
X205315Y87299D02*
Y89370D01*
X180512Y79921D02*
Y81992D01*
X245913Y270472D02*
X270717D01*
X245913Y261024D02*
X270717D01*
Y263094D01*
X245913Y268402D02*
Y270472D01*
X270717Y268402D02*
Y270472D01*
X245913Y261024D02*
Y263094D01*
X245472Y244882D02*
X270276D01*
X245472Y235433D02*
X270276D01*
Y237504D01*
X245472Y242811D02*
Y244882D01*
X270276Y242811D02*
Y244882D01*
X245472Y235433D02*
Y237504D01*
X233465Y152953D02*
Y177756D01*
X242913Y152953D02*
Y177756D01*
X240843D02*
X242913D01*
X233465Y152953D02*
X235535D01*
X233465Y177756D02*
X235535D01*
X240843Y152953D02*
X242913D01*
X225197Y97835D02*
Y122638D01*
X215748Y97835D02*
Y122638D01*
Y97835D02*
X217819D01*
X223126Y122638D02*
X225197D01*
X223126Y97835D02*
X225197D01*
X215748Y122638D02*
X217819D01*
X247441Y201575D02*
X272244D01*
X247441Y192126D02*
X272244D01*
Y194197D01*
X247441Y199504D02*
Y201575D01*
X272244Y199504D02*
Y201575D01*
X247441Y192126D02*
Y194197D01*
X245472Y256693D02*
X270276D01*
X245472Y247244D02*
X270276D01*
Y249315D01*
X245472Y254622D02*
Y256693D01*
X270276Y254622D02*
Y256693D01*
X245472Y247244D02*
Y249315D01*
X125394Y162205D02*
X150197D01*
X125394Y152756D02*
X150197D01*
Y154827D01*
X125394Y160134D02*
Y162205D01*
X150197Y160134D02*
Y162205D01*
X125394Y152756D02*
Y154827D01*
X97835Y333465D02*
X122638D01*
X97835Y324016D02*
X122638D01*
Y326087D01*
X97835Y331394D02*
Y333465D01*
X122638Y331394D02*
Y333465D01*
X97835Y324016D02*
Y326087D01*
Y345276D02*
X122638D01*
X97835Y335827D02*
X122638D01*
Y337898D01*
X97835Y343205D02*
Y345276D01*
X122638Y343205D02*
Y345276D01*
X97835Y335827D02*
Y337898D01*
X205512Y257382D02*
X223622D01*
X74016Y229724D02*
Y254528D01*
X83465Y229724D02*
Y254528D01*
X81394D02*
X83465D01*
X74016Y229724D02*
X76087D01*
X74016Y254528D02*
X76087D01*
X81394Y229724D02*
X83465D01*
X217717Y298622D02*
Y323425D01*
X227165Y298622D02*
Y323425D01*
X225095D02*
X227165D01*
X217717Y298622D02*
X219787D01*
X217717Y323425D02*
X219787D01*
X225095Y298622D02*
X227165D01*
X79921Y62402D02*
Y87205D01*
X89370Y62402D02*
Y87205D01*
X87299D02*
X89370D01*
X79921Y62402D02*
X81992D01*
X79921Y87205D02*
X81992D01*
X87299Y62402D02*
X89370D01*
X152362Y310433D02*
Y335236D01*
X142913Y310433D02*
Y335236D01*
Y310433D02*
X144984D01*
X150291Y335236D02*
X152362D01*
X150291Y310433D02*
X152362D01*
X142913Y335236D02*
X144984D01*
X247441Y345276D02*
X272244D01*
X247441Y335827D02*
X272244D01*
Y337898D01*
X247441Y343205D02*
Y345276D01*
X272244Y343205D02*
Y345276D01*
X247441Y335827D02*
Y337898D01*
X89370Y109646D02*
Y134449D01*
X79921Y109646D02*
Y134449D01*
Y109646D02*
X81992D01*
X87299Y134449D02*
X89370D01*
X87299Y109646D02*
X89370D01*
X79921Y134449D02*
X81992D01*
D11*
X194488Y267717D02*
X194451Y268717D01*
X194339Y269712D01*
X194153Y270695D01*
X193894Y271662D01*
X193563Y272607D01*
X193163Y273524D01*
X192695Y274410D01*
X192162Y275257D01*
X191568Y276062D01*
X190915Y276821D01*
X190207Y277529D01*
X189448Y278182D01*
X188643Y278776D01*
X187795Y279309D01*
X186910Y279777D01*
X185993Y280177D01*
X185048Y280508D01*
X184081Y280767D01*
X183097Y280953D01*
X182103Y281065D01*
X181102Y281102D01*
X180102Y281065D01*
X179107Y280953D01*
X178124Y280767D01*
X177157Y280508D01*
X176212Y280177D01*
X175294Y279777D01*
X174409Y279309D01*
X173562Y278776D01*
X172756Y278182D01*
X171998Y277529D01*
X171290Y276821D01*
X170637Y276062D01*
X170043Y275257D01*
X169510Y274410D01*
X169042Y273524D01*
X168642Y272607D01*
X168311Y271662D01*
X168052Y270695D01*
X167866Y269712D01*
X167754Y268717D01*
X167717Y267717D01*
X167754Y266716D01*
X167866Y265722D01*
X168052Y264738D01*
X168311Y263771D01*
X168642Y262826D01*
X169042Y261909D01*
X169510Y261024D01*
X170043Y260176D01*
X170637Y259371D01*
X171290Y258612D01*
X171998Y257904D01*
X172757Y257251D01*
X173562Y256657D01*
X174409Y256124D01*
X175294Y255656D01*
X176212Y255256D01*
X177157Y254925D01*
X178124Y254666D01*
X179107Y254480D01*
X180102Y254368D01*
X181102Y254331D01*
X182103Y254368D01*
X183098Y254480D01*
X184081Y254666D01*
X185048Y254925D01*
X185993Y255256D01*
X186910Y255656D01*
X187795Y256124D01*
X188643Y256657D01*
X189448Y257251D01*
X190207Y257904D01*
X190915Y258612D01*
X191568Y259371D01*
X192162Y260176D01*
X192695Y261024D01*
X193163Y261909D01*
X193563Y262826D01*
X193894Y263771D01*
X194153Y264738D01*
X194339Y265722D01*
X194451Y266716D01*
X194488Y267717D01*
X227953Y266732D02*
X227915Y267733D01*
X227803Y268727D01*
X227617Y269711D01*
X227358Y270678D01*
X227027Y271623D01*
X226627Y272540D01*
X226159Y273425D01*
X225627Y274273D01*
X225032Y275078D01*
X224379Y275837D01*
X223672Y276545D01*
X222913Y277198D01*
X222107Y277792D01*
X221260Y278325D01*
X220375Y278793D01*
X219457Y279193D01*
X218513Y279523D01*
X217546Y279783D01*
X216562Y279969D01*
X215567Y280081D01*
X214567Y280118D01*
X213567Y280081D01*
X212572Y279969D01*
X211588Y279783D01*
X210621Y279523D01*
X209677Y279193D01*
X208759Y278793D01*
X207874Y278325D01*
X207026Y277792D01*
X206221Y277198D01*
X205462Y276545D01*
X204754Y275837D01*
X204101Y275078D01*
X203507Y274273D01*
X202975Y273425D01*
X202507Y272540D01*
X202106Y271623D01*
X201776Y270678D01*
X201517Y269711D01*
X201331Y268727D01*
X201219Y267733D01*
X201181Y266732D01*
X201219Y265732D01*
X201331Y264737D01*
X201517Y263754D01*
X201776Y262787D01*
X202106Y261842D01*
X202507Y260924D01*
X202975Y260039D01*
X203507Y259192D01*
X204101Y258386D01*
X204754Y257628D01*
X205462Y256920D01*
X206221Y256267D01*
X207027Y255672D01*
X207874Y255140D01*
X208759Y254672D01*
X209677Y254272D01*
X210621Y253941D01*
X211588Y253682D01*
X212572Y253496D01*
X213567Y253384D01*
X214567Y253346D01*
X215567Y253384D01*
X216562Y253496D01*
X217546Y253682D01*
X218513Y253941D01*
X219457Y254272D01*
X220375Y254672D01*
X221260Y255140D01*
X222108Y255672D01*
X222913Y256267D01*
X223672Y256920D01*
X224379Y257628D01*
X225032Y258386D01*
X225627Y259192D01*
X226159Y260039D01*
X226627Y260924D01*
X227027Y261842D01*
X227358Y262787D01*
X227617Y263754D01*
X227803Y264737D01*
X227915Y265732D01*
X227953Y266732D01*
D12*
X305118Y51181D02*
Y354331D01*
X68898Y51181D02*
X305118D01*
X68898D02*
Y472441D01*
X305118D01*
X74315Y388221D02*
Y382890D01*
X82313D01*
Y388221D01*
X78314Y382890D02*
Y385556D01*
X82313Y390887D02*
X74315D01*
X82313Y396219D01*
X74315D01*
Y398885D02*
Y404216D01*
Y401550D01*
X82313D01*
X75648Y412214D02*
X74315Y410881D01*
Y408215D01*
X75648Y406882D01*
X80980D01*
X82313Y408215D01*
Y410881D01*
X80980Y412214D01*
X83646Y414879D02*
Y420211D01*
X74315Y422877D02*
X80980D01*
X82313Y424210D01*
Y426875D01*
X80980Y428208D01*
X74315D01*
Y434873D02*
Y432207D01*
X75648Y430874D01*
X80980D01*
X82313Y432207D01*
Y434873D01*
X80980Y436206D01*
X75648D01*
X74315Y434873D01*
X82313Y438872D02*
X74315D01*
X76981Y441537D01*
X74315Y444203D01*
X82313D01*
X138671Y84708D02*
Y82708D01*
X139671Y81709D01*
X143670D01*
X144669Y82708D01*
Y84708D01*
X143670Y85707D01*
X139671D01*
X138671Y84708D01*
X144669Y88706D02*
X139671D01*
X141670D01*
Y87707D01*
Y89706D01*
Y88706D01*
X139671D01*
X138671Y89706D01*
X144669Y93705D02*
X139671D01*
X141670D01*
Y92705D01*
Y94704D01*
Y93705D01*
X139671D01*
X138671Y94704D01*
X144669Y97703D02*
Y100703D01*
X143670Y101702D01*
X142670Y100703D01*
Y98703D01*
X141670Y97703D01*
X140671Y98703D01*
Y101702D01*
X144669Y106701D02*
Y104701D01*
X143670Y103701D01*
X141670D01*
X140671Y104701D01*
Y106701D01*
X141670Y107700D01*
X142670D01*
Y103701D01*
X139671Y110699D02*
X140671D01*
Y109700D01*
Y111699D01*
Y110699D01*
X143670D01*
X144669Y111699D01*
X109329Y61116D02*
X108330Y62116D01*
X106330D01*
X105331Y61116D01*
Y57118D01*
X106330Y56118D01*
X108330D01*
X109329Y57118D01*
Y59117D01*
X107330D01*
X112328Y60117D02*
X114328D01*
X115328Y59117D01*
Y56118D01*
X112328D01*
X111329Y57118D01*
X112328Y58118D01*
X115328D01*
X117327Y56118D02*
X119326D01*
X118326D01*
Y60117D01*
X117327D01*
X122325Y56118D02*
Y60117D01*
X125324D01*
X126324Y59117D01*
Y56118D01*
X109329Y139857D02*
X108330Y140856D01*
X106330D01*
X105331Y139857D01*
Y135858D01*
X106330Y134858D01*
X108330D01*
X109329Y135858D01*
X111329Y134858D02*
Y140856D01*
X113328Y138857D01*
X115328Y140856D01*
Y134858D01*
X117327D02*
Y140856D01*
X120326D01*
X121326Y139857D01*
Y137857D01*
X120326Y136858D01*
X117327D01*
X119326D02*
X121326Y134858D01*
X123325D02*
Y140856D01*
X126324D01*
X127324Y139857D01*
Y137857D01*
X126324Y136858D01*
X123325D01*
X125324D02*
X127324Y134858D01*
X95457Y150606D02*
X89459D01*
Y153605D01*
X90458Y154605D01*
X92458D01*
X93457Y153605D01*
Y150606D01*
X95457Y157604D02*
Y159603D01*
X94457Y160603D01*
X92458D01*
X91458Y159603D01*
Y157604D01*
X92458Y156604D01*
X94457D01*
X95457Y157604D01*
X91458Y162602D02*
X94457D01*
X95457Y163602D01*
X94457Y164602D01*
X95457Y165601D01*
X94457Y166601D01*
X91458D01*
X95457Y171599D02*
Y169600D01*
X94457Y168600D01*
X92458D01*
X91458Y169600D01*
Y171599D01*
X92458Y172599D01*
X93457D01*
Y168600D01*
X91458Y174599D02*
X95457D01*
X93457D01*
X92458Y175598D01*
X91458Y176598D01*
Y177598D01*
X213660Y78864D02*
X212660Y79864D01*
X210661D01*
X209661Y78864D01*
Y77864D01*
X210661Y76864D01*
X212660D01*
X213660Y75865D01*
Y74865D01*
X212660Y73865D01*
X210661D01*
X209661Y74865D01*
X215659Y73865D02*
X217659D01*
X216659D01*
Y77864D01*
X215659D01*
X222657Y71866D02*
X223657D01*
X224657Y72866D01*
Y77864D01*
X221657D01*
X220658Y76864D01*
Y74865D01*
X221657Y73865D01*
X224657D01*
X226656D02*
Y77864D01*
X229655D01*
X230655Y76864D01*
Y73865D01*
X233654Y77864D02*
X235653D01*
X236653Y76864D01*
Y73865D01*
X233654D01*
X232654Y74865D01*
X233654Y75865D01*
X236653D01*
X238652Y73865D02*
X240651D01*
X239652D01*
Y79864D01*
X238652D01*
X103379Y188676D02*
X101380D01*
X102380D01*
Y183678D01*
X101380Y182678D01*
X100380D01*
X99381Y183678D01*
X109378Y182678D02*
X105379D01*
X109378Y186677D01*
Y187677D01*
X108378Y188676D01*
X106378D01*
X105379Y187677D01*
X103269Y300243D02*
Y295245D01*
X104269Y294245D01*
X106268D01*
X107268Y295245D01*
Y300243D01*
X109267Y299243D02*
X110267Y300243D01*
X112266D01*
X113266Y299243D01*
Y298244D01*
X112266Y297244D01*
X113266Y296244D01*
Y295245D01*
X112266Y294245D01*
X110267D01*
X109267Y295245D01*
Y296244D01*
X110267Y297244D01*
X109267Y298244D01*
Y299243D01*
X110267Y297244D02*
X112266D01*
X105238Y243157D02*
Y238158D01*
X106237Y237158D01*
X108237D01*
X109237Y238158D01*
Y243157D01*
X111236D02*
X115235D01*
Y242157D01*
X111236Y238158D01*
Y237158D01*
X174135Y310086D02*
Y305087D01*
X175135Y304088D01*
X177135D01*
X178134Y305087D01*
Y310086D01*
X184132D02*
X182133Y309086D01*
X180133Y307087D01*
Y305087D01*
X181133Y304088D01*
X183133D01*
X184132Y305087D01*
Y306087D01*
X183133Y307087D01*
X180133D01*
X197757Y221503D02*
Y216505D01*
X198757Y215505D01*
X200757D01*
X201756Y216505D01*
Y221503D01*
X207754D02*
X203756D01*
Y218504D01*
X205755Y219504D01*
X206755D01*
X207754Y218504D01*
Y216505D01*
X206755Y215505D01*
X204755D01*
X203756Y216505D01*
X264687Y168353D02*
Y163355D01*
X265686Y162355D01*
X267686D01*
X268685Y163355D01*
Y168353D01*
X273684Y162355D02*
Y168353D01*
X270685Y165354D01*
X274683D01*
X180041Y166385D02*
Y161387D01*
X181041Y160387D01*
X183040D01*
X184040Y161387D01*
Y166385D01*
X186039Y165385D02*
X187039Y166385D01*
X189038D01*
X190038Y165385D01*
Y164385D01*
X189038Y163386D01*
X188038D01*
X189038D01*
X190038Y162386D01*
Y161387D01*
X189038Y160387D01*
X187039D01*
X186039Y161387D01*
X245002Y115204D02*
Y110205D01*
X246001Y109206D01*
X248001D01*
X249000Y110205D01*
Y115204D01*
X254998Y109206D02*
X251000D01*
X254998Y113204D01*
Y114204D01*
X253999Y115204D01*
X251999D01*
X251000Y114204D01*
X184978Y115204D02*
Y110205D01*
X185977Y109206D01*
X187977D01*
X188976Y110205D01*
Y115204D01*
X190976Y109206D02*
X192975D01*
X191975D01*
Y115204D01*
X190976Y114204D01*
X81669Y235099D02*
X75671Y235159D01*
X75701Y238158D01*
X76711Y239147D01*
X78710Y239127D01*
X79700Y238118D01*
X79670Y235119D01*
X79690Y237118D02*
X81709Y239097D01*
X76731Y241146D02*
X75741Y242156D01*
X75761Y244155D01*
X76771Y245145D01*
X77771Y245135D01*
X78760Y244125D01*
X78750Y243126D01*
X78760Y244125D01*
X79770Y245115D01*
X80769Y245105D01*
X81759Y244095D01*
X81739Y242096D01*
X80729Y241106D01*
X81789Y247094D02*
X81809Y249093D01*
X81799Y248094D01*
X75801Y248154D01*
X76791Y247144D01*
X102239Y337552D02*
Y343550D01*
X105238D01*
X106237Y342550D01*
Y340551D01*
X105238Y339551D01*
X102239D01*
X104238D02*
X106237Y337552D01*
X108237Y342550D02*
X109237Y343550D01*
X111236D01*
X112236Y342550D01*
Y341551D01*
X111236Y340551D01*
X110236D01*
X111236D01*
X112236Y339551D01*
Y338552D01*
X111236Y337552D01*
X109237D01*
X108237Y338552D01*
X114235Y342550D02*
X115235Y343550D01*
X117234D01*
X118234Y342550D01*
Y338552D01*
X117234Y337552D01*
X115235D01*
X114235Y338552D01*
Y342550D01*
X102239Y325741D02*
Y331739D01*
X105238D01*
X106237Y330739D01*
Y328740D01*
X105238Y327741D01*
X102239D01*
X104238D02*
X106237Y325741D01*
X112236D02*
X108237D01*
X112236Y329740D01*
Y330739D01*
X111236Y331739D01*
X109237D01*
X108237Y330739D01*
X114235Y326741D02*
X115235Y325741D01*
X117234D01*
X118234Y326741D01*
Y330739D01*
X117234Y331739D01*
X115235D01*
X114235Y330739D01*
Y329740D01*
X115235Y328740D01*
X118234D01*
X98360Y266536D02*
X98247Y272533D01*
X101245Y272589D01*
X102263Y271609D01*
X102301Y269610D01*
X101321Y268591D01*
X98322Y268535D01*
X100321Y268572D02*
X102358Y266611D01*
X108355Y266724D02*
X104357Y266649D01*
X108279Y270722D01*
X108261Y271722D01*
X107242Y272702D01*
X105243Y272665D01*
X104262Y271646D01*
X110259Y271759D02*
X111240Y272778D01*
X113239Y272815D01*
X114258Y271835D01*
X114276Y270835D01*
X113296Y269817D01*
X114314Y268836D01*
X114333Y267837D01*
X113352Y266818D01*
X111353Y266781D01*
X110335Y267761D01*
X110316Y268761D01*
X111297Y269779D01*
X110278Y270760D01*
X110259Y271759D01*
X111297Y269779D02*
X113296Y269817D01*
X225440Y303026D02*
X219442D01*
Y306025D01*
X220442Y307025D01*
X222441D01*
X223441Y306025D01*
Y303026D01*
Y305026D02*
X225440Y307025D01*
Y313023D02*
Y309024D01*
X221441Y313023D01*
X220442D01*
X219442Y312023D01*
Y310024D01*
X220442Y309024D01*
X219442Y315022D02*
Y319021D01*
X220442D01*
X224440Y315022D01*
X225440D01*
X87645Y114050D02*
X81647D01*
Y117049D01*
X82646Y118049D01*
X84646D01*
X85645Y117049D01*
Y114050D01*
Y116049D02*
X87645Y118049D01*
Y124047D02*
Y120048D01*
X83646Y124047D01*
X82646D01*
X81647Y123047D01*
Y121048D01*
X82646Y120048D01*
X81647Y130045D02*
X82646Y128045D01*
X84646Y126046D01*
X86645D01*
X87645Y127046D01*
Y129045D01*
X86645Y130045D01*
X85645D01*
X84646Y129045D01*
Y126046D01*
X87645Y66806D02*
X81647D01*
Y69805D01*
X82646Y70804D01*
X84646D01*
X85645Y69805D01*
Y66806D01*
Y68805D02*
X87645Y70804D01*
Y76802D02*
Y72804D01*
X83646Y76802D01*
X82646D01*
X81647Y75803D01*
Y73804D01*
X82646Y72804D01*
X81647Y82801D02*
Y78802D01*
X84646D01*
X83646Y80801D01*
Y81801D01*
X84646Y82801D01*
X86645D01*
X87645Y81801D01*
Y79801D01*
X86645Y78802D01*
X237251Y303026D02*
X231253D01*
Y306025D01*
X232253Y307025D01*
X234252D01*
X235252Y306025D01*
Y303026D01*
Y305026D02*
X237251Y307025D01*
Y313023D02*
Y309024D01*
X233252Y313023D01*
X232253D01*
X231253Y312023D01*
Y310024D01*
X232253Y309024D01*
Y315022D02*
X231253Y316022D01*
Y318021D01*
X232253Y319021D01*
X233252D01*
X234252Y318021D01*
Y317022D01*
Y318021D01*
X235252Y319021D01*
X236251D01*
X237251Y318021D01*
Y316022D01*
X236251Y315022D01*
X251845Y337552D02*
Y343550D01*
X254844D01*
X255844Y342550D01*
Y340551D01*
X254844Y339551D01*
X251845D01*
X253844D02*
X255844Y337552D01*
X261842D02*
X257843D01*
X261842Y341551D01*
Y342550D01*
X260842Y343550D01*
X258843D01*
X257843Y342550D01*
X267840Y337552D02*
X263841D01*
X267840Y341551D01*
Y342550D01*
X266840Y343550D01*
X264841D01*
X263841Y342550D01*
X174105Y335584D02*
Y341582D01*
X177104D01*
X178103Y340582D01*
Y338583D01*
X177104Y337583D01*
X174105D01*
X176104D02*
X178103Y335584D01*
X184101D02*
X180103D01*
X184101Y339582D01*
Y340582D01*
X183102Y341582D01*
X181102D01*
X180103Y340582D01*
X186101Y335584D02*
X188100D01*
X187100D01*
Y341582D01*
X186101Y340582D01*
X150637Y314837D02*
X144639D01*
Y317836D01*
X145638Y318836D01*
X147638D01*
X148637Y317836D01*
Y314837D01*
Y316837D02*
X150637Y318836D01*
Y324834D02*
Y320835D01*
X146638Y324834D01*
X145638D01*
X144639Y323834D01*
Y321835D01*
X145638Y320835D01*
Y326833D02*
X144639Y327833D01*
Y329832D01*
X145638Y330832D01*
X149637D01*
X150637Y329832D01*
Y327833D01*
X149637Y326833D01*
X145638D01*
X148668Y270061D02*
X142670D01*
Y273060D01*
X143670Y274060D01*
X145669D01*
X146669Y273060D01*
Y270061D01*
Y272061D02*
X148668Y274060D01*
Y276060D02*
Y278059D01*
Y277059D01*
X142670D01*
X143670Y276060D01*
X147669Y281058D02*
X148668Y282058D01*
Y284057D01*
X147669Y285057D01*
X143670D01*
X142670Y284057D01*
Y282058D01*
X143670Y281058D01*
X144670D01*
X145669Y282058D01*
Y285057D01*
X252345Y193851D02*
Y199849D01*
X255344D01*
X256344Y198850D01*
Y196850D01*
X255344Y195851D01*
X252345D01*
X254344D02*
X256344Y193851D01*
X258343D02*
X260342D01*
X259343D01*
Y199849D01*
X258343Y198850D01*
X263341D02*
X264341Y199849D01*
X266340D01*
X267340Y198850D01*
Y197850D01*
X266340Y196850D01*
X267340Y195851D01*
Y194851D01*
X266340Y193851D01*
X264341D01*
X263341Y194851D01*
Y195851D01*
X264341Y196850D01*
X263341Y197850D01*
Y198850D01*
X264341Y196850D02*
X266340D01*
X250377Y237158D02*
Y243157D01*
X253376D01*
X254375Y242157D01*
Y240158D01*
X253376Y239158D01*
X250377D01*
X252376D02*
X254375Y237158D01*
X256375D02*
X258374D01*
X257374D01*
Y243157D01*
X256375Y242157D01*
X261373Y243157D02*
X265372D01*
Y242157D01*
X261373Y238158D01*
Y237158D01*
X250377Y262749D02*
Y268747D01*
X253376D01*
X254375Y267747D01*
Y265748D01*
X253376Y264748D01*
X250377D01*
X252376D02*
X254375Y262749D01*
X256375D02*
X258374D01*
X257374D01*
Y268747D01*
X256375Y267747D01*
X265372Y268747D02*
X263372Y267747D01*
X261373Y265748D01*
Y263749D01*
X262373Y262749D01*
X264372D01*
X265372Y263749D01*
Y264748D01*
X264372Y265748D01*
X261373D01*
X250377Y248970D02*
Y254967D01*
X253376D01*
X254375Y253968D01*
Y251969D01*
X253376Y250969D01*
X250377D01*
X252376D02*
X254375Y248970D01*
X256375D02*
X258374D01*
X257374D01*
Y254967D01*
X256375Y253968D01*
X265372Y254967D02*
X261373D01*
Y251969D01*
X263372Y252968D01*
X264372D01*
X265372Y251969D01*
Y249969D01*
X264372Y248970D01*
X262373D01*
X261373Y249969D01*
X189353Y245033D02*
Y251030D01*
X192352D01*
X193351Y250031D01*
Y248031D01*
X192352Y247032D01*
X189353D01*
X191352D02*
X193351Y245033D01*
X195351D02*
X197350D01*
X196351D01*
Y251030D01*
X195351Y250031D01*
X203348Y245033D02*
Y251030D01*
X200349Y248031D01*
X204348D01*
X170322Y211006D02*
X164324D01*
Y214005D01*
X165323Y215005D01*
X167323D01*
X168323Y214005D01*
Y211006D01*
Y213006D02*
X170322Y215005D01*
Y217004D02*
Y219004D01*
Y218004D01*
X164324D01*
X165323Y217004D01*
Y222003D02*
X164324Y223003D01*
Y225002D01*
X165323Y226002D01*
X166323D01*
X167323Y225002D01*
Y224002D01*
Y225002D01*
X168323Y226002D01*
X169322D01*
X170322Y225002D01*
Y223003D01*
X169322Y222003D01*
X229377Y157857D02*
X223379D01*
Y160856D01*
X224379Y161855D01*
X226378D01*
X227378Y160856D01*
Y157857D01*
Y159856D02*
X229377Y161855D01*
Y163855D02*
Y165854D01*
Y164855D01*
X223379D01*
X224379Y163855D01*
X229377Y172852D02*
Y168853D01*
X225378Y172852D01*
X224379D01*
X223379Y171852D01*
Y169853D01*
X224379Y168853D01*
X131297Y154481D02*
Y160479D01*
X134296D01*
X135296Y159480D01*
Y157480D01*
X134296Y156481D01*
X131297D01*
X133297D02*
X135296Y154481D01*
X137295D02*
X139295D01*
X138295D01*
Y160479D01*
X137295Y159480D01*
X142294Y154481D02*
X144293D01*
X143293D01*
Y160479D01*
X142294Y159480D01*
X215597Y157857D02*
X209599D01*
Y160856D01*
X210599Y161855D01*
X212598D01*
X213598Y160856D01*
Y157857D01*
Y159856D02*
X215597Y161855D01*
Y163855D02*
Y165854D01*
Y164855D01*
X209599D01*
X210599Y163855D01*
Y168853D02*
X209599Y169853D01*
Y171852D01*
X210599Y172852D01*
X214598D01*
X215597Y171852D01*
Y169853D01*
X214598Y168853D01*
X210599D01*
X219411Y134796D02*
Y140794D01*
X222410D01*
X223410Y139795D01*
Y137795D01*
X222410Y136796D01*
X219411D01*
X221410D02*
X223410Y134796D01*
X225409Y135796D02*
X226409Y134796D01*
X228408D01*
X229408Y135796D01*
Y139795D01*
X228408Y140794D01*
X226409D01*
X225409Y139795D01*
Y138795D01*
X226409Y137795D01*
X229408D01*
X132797Y178103D02*
Y184101D01*
X135796D01*
X136796Y183102D01*
Y181102D01*
X135796Y180103D01*
X132797D01*
X134796D02*
X136796Y178103D01*
X138795Y183102D02*
X139795Y184101D01*
X141794D01*
X142794Y183102D01*
Y182102D01*
X141794Y181102D01*
X142794Y180103D01*
Y179103D01*
X141794Y178103D01*
X139795D01*
X138795Y179103D01*
Y180103D01*
X139795Y181102D01*
X138795Y182102D01*
Y183102D01*
X139795Y181102D02*
X141794D01*
X298275Y105238D02*
X292277D01*
Y108237D01*
X293276Y109237D01*
X295276D01*
X296275Y108237D01*
Y105238D01*
Y107237D02*
X298275Y109237D01*
X292277Y111236D02*
Y115235D01*
X293276D01*
X297275Y111236D01*
X298275D01*
X284495Y105238D02*
X278497D01*
Y108237D01*
X279497Y109237D01*
X281496D01*
X282496Y108237D01*
Y105238D01*
Y107237D02*
X284495Y109237D01*
X278497Y115235D02*
X279497Y113235D01*
X281496Y111236D01*
X283495D01*
X284495Y112236D01*
Y114235D01*
X283495Y115235D01*
X282496D01*
X281496Y114235D01*
Y111236D01*
X241188Y160356D02*
X235190D01*
Y163355D01*
X236190Y164355D01*
X238189D01*
X239189Y163355D01*
Y160356D01*
Y162355D02*
X241188Y164355D01*
X235190Y170353D02*
Y166354D01*
X238189D01*
X237189Y168353D01*
Y169353D01*
X238189Y170353D01*
X240188D01*
X241188Y169353D01*
Y167354D01*
X240188Y166354D01*
X132797Y166292D02*
Y172290D01*
X135796D01*
X136796Y171291D01*
Y169291D01*
X135796Y168292D01*
X132797D01*
X134796D02*
X136796Y166292D01*
X141794D02*
Y172290D01*
X138795Y169291D01*
X142794D01*
X187915Y81647D02*
Y87645D01*
X190914D01*
X191914Y86645D01*
Y84646D01*
X190914Y83646D01*
X187915D01*
X189914D02*
X191914Y81647D01*
X193913Y86645D02*
X194913Y87645D01*
X196912D01*
X197912Y86645D01*
Y85645D01*
X196912Y84646D01*
X195912D01*
X196912D01*
X197912Y83646D01*
Y82646D01*
X196912Y81647D01*
X194913D01*
X193913Y82646D01*
X223471Y105238D02*
X217473D01*
Y108237D01*
X218473Y109237D01*
X220472D01*
X221472Y108237D01*
Y105238D01*
Y107237D02*
X223471Y109237D01*
Y115235D02*
Y111236D01*
X219473Y115235D01*
X218473D01*
X217473Y114235D01*
Y112236D01*
X218473Y111236D01*
X160479Y106237D02*
X154481D01*
Y109237D01*
X155481Y110236D01*
X157480D01*
X158480Y109237D01*
Y106237D01*
Y108237D02*
X160479Y110236D01*
Y112236D02*
Y114235D01*
Y113235D01*
X154481D01*
X155481Y112236D01*
X248031Y67960D02*
X246032D01*
X247032D01*
Y62961D01*
X246032Y61962D01*
X245033D01*
X244033Y62961D01*
X250031Y61962D02*
X252030D01*
X251030D01*
Y67960D01*
X250031Y66960D01*
X205693Y305149D02*
X204694Y306149D01*
X202694D01*
X201694Y305149D01*
Y301150D01*
X202694Y300151D01*
X204694D01*
X205693Y301150D01*
X211691Y306149D02*
X209692Y305149D01*
X207693Y303150D01*
Y301150D01*
X208692Y300151D01*
X210692D01*
X211691Y301150D01*
Y302150D01*
X210692Y303150D01*
X207693D01*
X257843Y308055D02*
X256843Y307056D01*
Y305056D01*
X257843Y304057D01*
X261842D01*
X262842Y305056D01*
Y307056D01*
X261842Y308055D01*
X256843Y314054D02*
Y310055D01*
X259842D01*
X258843Y312054D01*
Y313054D01*
X259842Y314054D01*
X261842D01*
X262842Y313054D01*
Y311054D01*
X261842Y310055D01*
X233252Y281527D02*
X232253Y282527D01*
X230253D01*
X229254Y281527D01*
Y277528D01*
X230253Y276529D01*
X232253D01*
X233252Y277528D01*
X238251Y276529D02*
Y282527D01*
X235252Y279528D01*
X239250D01*
X162386Y255936D02*
X161387Y256936D01*
X159387D01*
X158387Y255936D01*
Y251938D01*
X159387Y250938D01*
X161387D01*
X162386Y251938D01*
X164385Y255936D02*
X165385Y256936D01*
X167385D01*
X168384Y255936D01*
Y254937D01*
X167385Y253937D01*
X166385D01*
X167385D01*
X168384Y252937D01*
Y251938D01*
X167385Y250938D01*
X165385D01*
X164385Y251938D01*
X256874Y212629D02*
X255875Y213629D01*
X253875D01*
X252876Y212629D01*
Y208631D01*
X253875Y207631D01*
X255875D01*
X256874Y208631D01*
X262872Y207631D02*
X258874D01*
X262872Y211630D01*
Y212629D01*
X261873Y213629D01*
X259873D01*
X258874Y212629D01*
X257874Y228377D02*
X256874Y229377D01*
X254875D01*
X253875Y228377D01*
Y224379D01*
X254875Y223379D01*
X256874D01*
X257874Y224379D01*
X259873Y223379D02*
X261873D01*
X260873D01*
Y229377D01*
X259873Y228377D01*
D13*
X97736Y259035D02*
X122736D01*
X97736Y221280D02*
X122736D01*
X257185Y146476D02*
X282185D01*
X257185Y184232D02*
X282185D01*
X172539Y144508D02*
X197539D01*
X172539Y182264D02*
X197539D01*
X176476Y93327D02*
X201476D01*
X176476Y131083D02*
X201476D01*
X95768Y278366D02*
X120768D01*
X95768Y316122D02*
X120768D01*
X97382Y84331D02*
X134902D01*
Y65315D02*
Y84331D01*
X97382Y65315D02*
Y84331D01*
Y65315D02*
X134902D01*
X190138Y238130D02*
X215138D01*
X190138Y200374D02*
X215138D01*
X247047Y219488D02*
X268701D01*
X247047Y233268D02*
X268701D01*
X247047Y219488D02*
Y222854D01*
X268701Y219488D02*
Y222854D01*
X247047Y229902D02*
Y233268D01*
X268701Y229902D02*
Y233268D01*
X237500Y131083D02*
X262500D01*
X237500Y93327D02*
X262500D01*
X247047Y217520D02*
X268701D01*
X247047Y203740D02*
X268701D01*
Y214154D02*
Y217520D01*
X247047Y214154D02*
Y217520D01*
X268701Y203740D02*
Y207106D01*
X247047Y203740D02*
Y207106D01*
X88583Y358268D02*
X305118D01*
X88583D02*
Y468504D01*
X305118D01*
Y358268D02*
Y468504D01*
X97539Y131575D02*
X135059D01*
Y112559D02*
Y131575D01*
X97539Y112559D02*
Y131575D01*
Y112559D02*
X135059D01*
X97382Y107953D02*
X134902D01*
Y88937D02*
Y107953D01*
X97382Y88937D02*
Y107953D01*
Y88937D02*
X134902D01*
X166634Y325965D02*
X191634D01*
X166634Y288209D02*
X191634D01*
X250984Y288779D02*
Y329331D01*
X268701Y288779D02*
Y329331D01*
X250984D02*
X268701D01*
X250984Y288779D02*
X268701D01*
M02*
