M48
;Layer_Color=9474304
;FILE_FORMAT=2:5
INCH,LZ
;TYPE=PLATED
T1F00S00C0.01181
T2F00S00C0.02756
T3F00S00C0.02795
T4F00S00C0.03071
T5F00S00C0.03150
T6F00S00C0.03346
T7F00S00C0.03386
T8F00S00C0.03543
T9F00S00C0.04000
;TYPE=NON_PLATED
T10F00S00C0.08858
T11F00S00C0.11811
%
T01
X0139764Y0141732
X0149606
X0271654Y0102362
X0147638Y0208661
X0122047
X0116142
X0110236
X0086614Y0222441
T02
X0181102Y0262795
Y0272638
X0214567Y0271654
Y0261811
X0206693Y0312008
Y032185
T03
X0106142Y0074803
X0116142
X0126142
Y0098425
X0116142
X0106142
X0106299Y0122047
X0116299
X0126299
T04
X0173346Y0097205
Y0107205
Y0117205
Y0127205
X0169409Y0148386
X0200669
X0204606Y0127205
Y0117205
Y0107205
Y0097205
X023437
Y0107205
Y0117205
Y0127205
X026563
Y0117205
Y0107205
Y0097205
X0254055Y0150354
X0285315
Y0160354
Y0170354
Y0180354
X0254055
Y0170354
Y0160354
X0200669Y0158386
Y0168386
Y0178386
X0169409
Y0168386
Y0158386
X0187008Y0204252
Y0214252
Y0224252
Y0234252
X0218268
Y0224252
Y0214252
Y0204252
X0194764Y0292087
Y0302087
Y0312087
X0163504
Y0302087
Y0292087
X0123898Y0292244
Y0302244
Y0312244
Y0282244
X0125866Y0255157
Y0245158
Y0235157
Y0225157
X0094606
Y0235157
Y0245158
Y0255157
X0092638Y0282244
Y0292244
Y0302244
Y0312244
X0163504Y0322087
X0194764
T05
X0248031Y021063
Y0226378
X0267717
Y021063
T06
X0084646Y0057087
Y009252
Y0104331
Y0139764
X015748Y0127953
Y009252
X0175197Y0084646
X021063
X0220472Y009252
Y0127953
X0206693Y0137795
X0212598Y0147638
X0226378
X0238189
X0242126Y0137795
X0281496Y0127953
X0295276
Y009252
X0281496
X0277559Y019685
X0242126
X0238189Y0183071
X0226378
X0212598
X0167323Y0200787
Y0236221
X0179134Y0248031
X0214567
X0240158Y0251969
Y0240158
X0240598Y0265748
X0234252Y0293307
X0222441
X0259842Y0294291
X0276031Y0265748
X0275591Y0251969
Y0240158
X0145669Y0259842
X0124016Y0269685
X0088583
X007874Y0259842
Y0224409
X0120079Y0181102
Y0169291
Y015748
X0155512
Y0169291
Y0181102
X0145669Y0295276
X0147638Y0305118
Y0340551
X0127953Y0340551
Y032874
X009252
Y0340551
X0163386Y0338583
X0198819
X0222441Y032874
X0234252
X0242126Y0340551
X0259842Y0323819
X0277559Y0340551
T07
X0104331Y0153228
X0214409Y0064961
X022441
X0234409
X0104331Y0163228
Y0173228
T08
X010685Y0362205
X011685
X012685
X013685
X014685
Y0464567
X013685
X012685
X011685
X010685
X015685
X016685
X017685
X018685
X019685
X020685
X021685
X022685
X023685
X024685
X025685
X026685
X027685
X028685
Y0362205
X027685
X026685
X025685
X024685
X023685
X022685
X021685
X020685
X019685
X018685
X017685
X016685
X015685
T09
X0139764Y0348425
T10
X0094488Y0364173
Y0462598
X0299213
Y0364173
T11
X0287402Y0066929
X028937Y0214567
X0076772Y0299213
X0185039Y0419291
M30
