G04*
G04 #@! TF.GenerationSoftware,Altium Limited,Altium Designer,23.2.1 (34)*
G04*
G04 Layer_Physical_Order=2*
G04 Layer_Color=16711680*
%FSLAX25Y25*%
%MOIN*%
G70*
G04*
G04 #@! TF.SameCoordinates,FD52DB97-2028-4BFA-9E6B-1C7D996C3806*
G04*
G04*
G04 #@! TF.FilePolarity,Positive*
G04*
G01*
G75*
%ADD12C,0.01000*%
%ADD13C,0.00500*%
%ADD21R,0.04724X0.04724*%
%ADD22C,0.04724*%
%ADD32C,0.00800*%
%ADD34C,0.07000*%
%ADD35C,0.06000*%
%ADD36C,0.05315*%
%ADD37R,0.05315X0.05315*%
%ADD38R,0.05315X0.05315*%
%ADD39R,0.04449X0.04449*%
%ADD40C,0.04449*%
%ADD41C,0.05512*%
%ADD42R,0.05512X0.05512*%
%ADD43R,0.05512X0.05512*%
%ADD44R,0.04795X0.04795*%
%ADD45C,0.04795*%
%ADD46C,0.04528*%
%ADD47C,0.08858*%
%ADD48C,0.02362*%
%ADD49C,0.02000*%
D12*
X197663Y241313D02*
X204724Y234252D01*
X218268D01*
X130519Y241313D02*
X197663D01*
X242126Y196850D02*
X265748Y220472D01*
X269685D01*
X246063Y165354D02*
Y188976D01*
Y165354D02*
X250925Y160492D01*
X253918D02*
X254055Y160354D01*
X250925Y160492D02*
X253918D01*
X242126Y192913D02*
Y196850D01*
Y192913D02*
X246063Y188976D01*
X275870Y127445D02*
Y160909D01*
X285315Y170354D01*
X265630Y117205D02*
X275870Y127445D01*
X234370Y96272D02*
Y97205D01*
X233234Y95135D02*
X234370Y96272D01*
X233234Y95074D02*
Y95135D01*
X232648Y94488D02*
X233234Y95074D01*
X232283Y94488D02*
X232648D01*
X214567Y76772D02*
X232283Y94488D01*
X195748Y76772D02*
X214567D01*
X175315Y97205D02*
X195748Y76772D01*
X173346Y97205D02*
X175315D01*
X191850Y117205D02*
X204606D01*
X187008Y122047D02*
X191850Y117205D01*
X167323Y122047D02*
X187008D01*
X143701Y98425D02*
X167323Y122047D01*
X126142Y98425D02*
X143701D01*
X204466Y117345D02*
Y122305D01*
Y117345D02*
X204606Y117205D01*
X190945Y158661D02*
X200669Y168386D01*
X190945Y135827D02*
Y158661D01*
Y135827D02*
X204466Y122305D01*
X122772Y98425D02*
X126142D01*
X112902Y120640D02*
X113455Y120087D01*
X112902Y123455D02*
X116142Y126695D01*
X113455Y107743D02*
Y120087D01*
X112902Y120640D02*
Y123455D01*
X113455Y107743D02*
X122772Y98425D01*
X116142Y126695D02*
Y161417D01*
X104331Y173228D02*
X116142Y161417D01*
X269685Y220472D02*
X281496Y232283D01*
X266732Y323819D02*
X281496Y309055D01*
Y232283D02*
Y309055D01*
X259842Y323819D02*
X266732D01*
X139764Y141732D02*
X149606D01*
X84646Y140469D02*
X103467Y159291D01*
X84646Y139764D02*
Y140469D01*
X103467Y159291D02*
Y162365D01*
X104331Y163228D01*
X110236Y203608D02*
Y208661D01*
Y203608D02*
X118963Y194882D01*
X167638D02*
X187008Y214252D01*
X118963Y194882D02*
X167638D01*
X116142Y208661D02*
Y229993D01*
X126113Y239965D01*
X129170D02*
X130519Y241313D01*
X126113Y239965D02*
X129170D01*
X159780Y291669D02*
X163087D01*
X163504Y292087D01*
X143701Y275590D02*
X159780Y291669D01*
X115309Y282244D02*
X121963Y275590D01*
X143701D01*
X92638Y282244D02*
X115309D01*
X202756Y249764D02*
Y277559D01*
Y249764D02*
X218268Y234252D01*
X185039Y312362D02*
X194764Y322087D01*
X185039Y295276D02*
Y312362D01*
Y295276D02*
X202756Y277559D01*
X255873Y102362D02*
X271654D01*
X234370Y97205D02*
X250715D01*
X255873Y102362D01*
X234252Y328740D02*
X235420D01*
D13*
X106844Y166089D02*
X105936Y166612D01*
X104934Y166918D01*
X103889Y166992D01*
X102854Y166831D01*
X108270Y163383D02*
X108077Y164416D01*
X107587Y165346D01*
X106844Y166089D01*
X259842Y323819D02*
Y326681D01*
X256980Y323819D02*
X259842D01*
Y320957D02*
Y323819D01*
X234252Y328740D02*
X237409D01*
X242126Y196850D02*
Y200008D01*
Y196850D02*
X245284D01*
X238968D02*
X242126D01*
X231095Y328740D02*
X234252D01*
Y331898D01*
Y325583D02*
Y328740D01*
X187008Y214252D02*
Y216976D01*
Y211528D02*
Y214252D01*
X189732D01*
X184283D02*
X187008D01*
X254055Y160354D02*
X256780D01*
X254055D02*
Y163079D01*
Y157630D02*
Y160354D01*
X147638Y340551D02*
X150795D01*
X147638D02*
Y343709D01*
Y337394D02*
Y340551D01*
X144480D02*
X147638D01*
X127953Y340551D02*
X131110D01*
X124795D02*
X127953D01*
Y343709D01*
Y337394D02*
Y340551D01*
X110236Y208661D02*
X111425Y209850D01*
X110236Y208661D02*
X111425Y207473D01*
X109047D02*
X110236Y208661D01*
X109047Y209850D02*
X110236Y208661D01*
X101075Y163228D02*
X104331D01*
Y159973D02*
Y163228D01*
X84646Y139764D02*
Y142921D01*
X106299Y122047D02*
Y124945D01*
X103402Y122047D02*
X106299D01*
Y119150D02*
Y122047D01*
X106142Y98425D02*
Y101323D01*
X103244Y98425D02*
X106142D01*
Y95528D02*
Y98425D01*
X109039D01*
X84646Y136606D02*
Y139764D01*
X87803D01*
X81488D02*
X84646D01*
X187008Y234252D02*
X196850D01*
X210630Y220472D02*
X253937D01*
X196850Y234252D02*
X210630Y220472D01*
X110236Y104331D02*
X116142Y98425D01*
X110236Y104331D02*
Y161417D01*
X108270Y163383D02*
X110236Y161417D01*
X102655Y167030D02*
X102854Y166831D01*
X242126Y130709D02*
X265630Y107205D01*
X242126Y131890D02*
Y137795D01*
X242126Y130709D02*
Y131890D01*
X242126Y131890D01*
X108268Y228346D02*
X125079Y245158D01*
X125866D01*
X128060Y234145D02*
X147638Y214567D01*
X94606Y255157D02*
X109488D01*
X94606Y245158D02*
Y255157D01*
X125866Y235157D02*
X126935D01*
X127947Y234145D01*
X128060D01*
X109488Y255157D02*
X124016Y269685D01*
X147638Y208661D02*
Y214567D01*
X82677Y228346D02*
X108268D01*
X78740Y224409D02*
X82677Y228346D01*
X181102Y214567D02*
Y226378D01*
X167323Y200787D02*
X181102Y214567D01*
X186295Y233539D02*
X187008Y234252D01*
X181102Y226378D02*
X186295Y231571D01*
Y233539D01*
X285315Y160354D02*
X291339Y154331D01*
Y139764D02*
Y154331D01*
X283185Y131610D02*
X291339Y139764D01*
X283185Y129642D02*
Y131610D01*
X281496Y127953D02*
X283185Y129642D01*
X157480Y127953D02*
X158402Y128874D01*
X160370D02*
X163386Y131890D01*
X158402Y128874D02*
X160370D01*
X165354Y110236D02*
X172323Y117205D01*
X173346D01*
X161426Y94497D02*
X165354Y98425D01*
Y110236D01*
X159458Y94497D02*
X161426D01*
X157480Y92520D02*
X159458Y94497D01*
X163386Y131890D02*
Y159449D01*
X159449Y163386D02*
X163386Y159449D01*
X147638Y163386D02*
X159449D01*
X143701Y167323D02*
X147638Y163386D01*
X127953Y167323D02*
X143701D01*
X125984Y169291D02*
X127953Y167323D01*
X120079Y169291D02*
X125984D01*
X86614Y208661D02*
Y222441D01*
Y208661D02*
X90551Y204724D01*
Y179134D02*
Y204724D01*
Y179134D02*
X102655Y167030D01*
X158120Y262795D02*
X181102D01*
X155167Y259842D02*
X158120Y262795D01*
X145669Y259842D02*
X155167D01*
X181102Y272638D02*
Y284488D01*
X163504Y302087D02*
X181102Y284488D01*
X127953Y328740D02*
X137795Y338583D01*
X146850Y355512D02*
Y362205D01*
X137795Y338583D02*
Y346457D01*
X146850Y355512D01*
X259842Y226378D02*
X267717D01*
X253937Y220472D02*
X259842Y226378D01*
X120079Y154276D02*
Y157480D01*
Y154276D02*
X122047Y152308D01*
Y127795D02*
Y152308D01*
X116299Y122047D02*
X122047Y127795D01*
X74803Y102362D02*
X84646Y92520D01*
X78740Y181102D02*
Y224409D01*
X74803Y102362D02*
Y177165D01*
X78740Y181102D01*
X259842Y293148D02*
Y294291D01*
X239276Y338583D02*
X241244Y340551D01*
X198819Y338583D02*
X239276D01*
X241244Y340551D02*
X242126D01*
X160472Y305118D02*
X163504Y302087D01*
X147638Y305118D02*
X160472D01*
X201020Y202233D02*
X214276Y188976D01*
X201020Y202233D02*
Y210240D01*
X187008Y224252D02*
X201020Y210240D01*
X214276Y188976D02*
X224409D01*
X226378Y183071D02*
Y187008D01*
X224409Y188976D02*
X226378Y187008D01*
X120079Y169291D02*
Y181102D01*
X206021Y185478D02*
X210191D01*
X212598Y183071D01*
X200554Y190945D02*
X206021Y185478D01*
X161320Y190945D02*
X200554D01*
X155512Y185137D02*
X161320Y190945D01*
X155512Y181102D02*
Y185137D01*
D21*
X181102Y262795D02*
D03*
X206693Y312008D02*
D03*
X214567Y261811D02*
D03*
D22*
X181102Y272638D02*
D03*
X206693Y321850D02*
D03*
X214567Y271654D02*
D03*
X259842Y294291D02*
D03*
Y323819D02*
D03*
D32*
X305026Y462598D02*
X304942Y463581D01*
X304694Y464535D01*
X304288Y465434D01*
X303736Y466251D01*
X303053Y466962D01*
X302261Y467549D01*
X301380Y467993D01*
X300437Y468281D01*
X299459Y468407D01*
X298474Y468365D01*
X297510Y468157D01*
X296595Y467789D01*
X295756Y467272D01*
X295016Y466621D01*
X294396Y465854D01*
X293915Y464993D01*
X293587Y464063D01*
X293420Y463091D01*
Y462105D01*
X293587Y461134D01*
X293915Y460204D01*
X294396Y459343D01*
X295016Y458576D01*
X295756Y457925D01*
X296595Y457408D01*
X297510Y457040D01*
X298474Y456832D01*
X299459Y456790D01*
X300437Y456916D01*
X301380Y457204D01*
X302261Y457648D01*
X303053Y458235D01*
X303736Y458946D01*
X304288Y459763D01*
X304694Y460662D01*
X304942Y461616D01*
X305026Y462598D01*
X290408Y464567D02*
X290264Y465569D01*
X289843Y466490D01*
X289180Y467255D01*
X288328Y467803D01*
X287357Y468088D01*
X286344D01*
X285373Y467803D01*
X284521Y467255D01*
X283858Y466490D01*
X283437Y465569D01*
X283293Y464567D01*
X283437Y463565D01*
X283858Y462644D01*
X284521Y461878D01*
X285373Y461331D01*
X286344Y461046D01*
X287357D01*
X288328Y461331D01*
X289180Y461878D01*
X289843Y462644D01*
X290264Y463565D01*
X290408Y464567D01*
X280408D02*
X280264Y465569D01*
X279843Y466490D01*
X279180Y467255D01*
X278328Y467803D01*
X277357Y468088D01*
X276344D01*
X275373Y467803D01*
X274521Y467255D01*
X273858Y466490D01*
X273437Y465569D01*
X273293Y464567D01*
X273437Y463565D01*
X273858Y462644D01*
X274521Y461878D01*
X275373Y461331D01*
X276344Y461046D01*
X277357D01*
X278328Y461331D01*
X279180Y461878D01*
X279843Y462644D01*
X280264Y463565D01*
X280408Y464567D01*
X270408D02*
X270264Y465569D01*
X269843Y466490D01*
X269180Y467255D01*
X268328Y467803D01*
X267357Y468088D01*
X266344D01*
X265373Y467803D01*
X264521Y467255D01*
X263858Y466490D01*
X263437Y465569D01*
X263293Y464567D01*
X263437Y463565D01*
X263858Y462644D01*
X264521Y461878D01*
X265373Y461331D01*
X266344Y461046D01*
X267357D01*
X268328Y461331D01*
X269180Y461878D01*
X269843Y462644D01*
X270264Y463565D01*
X270408Y464567D01*
X260408D02*
X260264Y465569D01*
X259843Y466490D01*
X259180Y467255D01*
X258328Y467803D01*
X257357Y468088D01*
X256344D01*
X255373Y467803D01*
X254521Y467255D01*
X253858Y466490D01*
X253437Y465569D01*
X253293Y464567D01*
X253437Y463565D01*
X253858Y462644D01*
X254521Y461878D01*
X255373Y461331D01*
X256344Y461046D01*
X257357D01*
X258328Y461331D01*
X259180Y461878D01*
X259843Y462644D01*
X260264Y463565D01*
X260408Y464567D01*
X250408D02*
X250264Y465569D01*
X249843Y466490D01*
X249180Y467255D01*
X248328Y467803D01*
X247357Y468088D01*
X246344D01*
X245373Y467803D01*
X244521Y467255D01*
X243858Y466490D01*
X243437Y465569D01*
X243293Y464567D01*
X243437Y463565D01*
X243858Y462644D01*
X244521Y461878D01*
X245373Y461331D01*
X246344Y461046D01*
X247357D01*
X248328Y461331D01*
X249180Y461878D01*
X249843Y462644D01*
X250264Y463565D01*
X250408Y464567D01*
X240408D02*
X240264Y465569D01*
X239843Y466490D01*
X239180Y467255D01*
X238328Y467803D01*
X237357Y468088D01*
X236344D01*
X235373Y467803D01*
X234521Y467255D01*
X233858Y466490D01*
X233437Y465569D01*
X233293Y464567D01*
X233437Y463565D01*
X233858Y462644D01*
X234521Y461878D01*
X235373Y461331D01*
X236344Y461046D01*
X237357D01*
X238328Y461331D01*
X239180Y461878D01*
X239843Y462644D01*
X240264Y463565D01*
X240408Y464567D01*
X230408D02*
X230264Y465569D01*
X229843Y466490D01*
X229180Y467255D01*
X228328Y467803D01*
X227357Y468088D01*
X226344D01*
X225373Y467803D01*
X224521Y467255D01*
X223858Y466490D01*
X223437Y465569D01*
X223293Y464567D01*
X223437Y463565D01*
X223858Y462644D01*
X224521Y461878D01*
X225373Y461331D01*
X226344Y461046D01*
X227357D01*
X228328Y461331D01*
X229180Y461878D01*
X229843Y462644D01*
X230264Y463565D01*
X230408Y464567D01*
X220408D02*
X220264Y465569D01*
X219843Y466490D01*
X219180Y467255D01*
X218328Y467803D01*
X217357Y468088D01*
X216344D01*
X215373Y467803D01*
X214521Y467255D01*
X213858Y466490D01*
X213437Y465569D01*
X213293Y464567D01*
X213437Y463565D01*
X213858Y462644D01*
X214521Y461878D01*
X215373Y461331D01*
X216344Y461046D01*
X217357D01*
X218328Y461331D01*
X219180Y461878D01*
X219843Y462644D01*
X220264Y463565D01*
X220408Y464567D01*
X210408D02*
X210264Y465569D01*
X209843Y466490D01*
X209180Y467255D01*
X208328Y467803D01*
X207357Y468088D01*
X206344D01*
X205373Y467803D01*
X204521Y467255D01*
X203858Y466490D01*
X203437Y465569D01*
X203293Y464567D01*
X203437Y463565D01*
X203858Y462644D01*
X204521Y461878D01*
X205373Y461331D01*
X206344Y461046D01*
X207357D01*
X208328Y461331D01*
X209180Y461878D01*
X209843Y462644D01*
X210264Y463565D01*
X210408Y464567D01*
X200408D02*
X200264Y465569D01*
X199843Y466490D01*
X199180Y467255D01*
X198328Y467803D01*
X197357Y468088D01*
X196344D01*
X195373Y467803D01*
X194521Y467255D01*
X193858Y466490D01*
X193437Y465569D01*
X193293Y464567D01*
X193437Y463565D01*
X193858Y462644D01*
X194521Y461878D01*
X195373Y461331D01*
X196344Y461046D01*
X197357D01*
X198328Y461331D01*
X199180Y461878D01*
X199843Y462644D01*
X200264Y463565D01*
X200408Y464567D01*
X192329Y419291D02*
X192271Y420209D01*
X192098Y421111D01*
X191813Y421985D01*
X191421Y422816D01*
X190927Y423590D01*
X190339Y424297D01*
Y414286D02*
X190927Y414992D01*
X191421Y415767D01*
X191813Y416598D01*
X192098Y417472D01*
X192271Y418374D01*
X192329Y419291D01*
X305026Y364173D02*
X304942Y365156D01*
X304694Y366110D01*
X304288Y367008D01*
X303736Y367825D01*
X303053Y368537D01*
X302261Y369124D01*
X301380Y369567D01*
X300437Y369856D01*
X299459Y369981D01*
X298474Y369939D01*
X297510Y369732D01*
X296595Y369364D01*
X295756Y368847D01*
X295016Y368196D01*
X294396Y367429D01*
X293915Y366568D01*
X293587Y365638D01*
X293420Y364666D01*
Y363680D01*
X293587Y362708D01*
X293915Y361779D01*
X294396Y360918D01*
X295016Y360151D01*
X295756Y359499D01*
X296595Y358982D01*
X297510Y358615D01*
X298474Y358407D01*
X299459Y358365D01*
X300437Y358490D01*
X301380Y358779D01*
X302261Y359223D01*
X303053Y359809D01*
X303736Y360521D01*
X304288Y361338D01*
X304694Y362237D01*
X304942Y363191D01*
X305026Y364173D01*
X280408Y362205D02*
X280264Y363207D01*
X279843Y364128D01*
X279180Y364893D01*
X278328Y365441D01*
X277357Y365726D01*
X276344D01*
X275373Y365441D01*
X274521Y364893D01*
X273858Y364128D01*
X273437Y363207D01*
X273293Y362205D01*
X273437Y361203D01*
X273858Y360281D01*
X274521Y359516D01*
X275373Y358969D01*
X276344Y358683D01*
X277357D01*
X278328Y358969D01*
X279180Y359516D01*
X279843Y360281D01*
X280264Y361203D01*
X280408Y362205D01*
X270408D02*
X270264Y363207D01*
X269843Y364128D01*
X269180Y364893D01*
X268328Y365441D01*
X267357Y365726D01*
X266344D01*
X265373Y365441D01*
X264521Y364893D01*
X263858Y364128D01*
X263437Y363207D01*
X263293Y362205D01*
X263437Y361203D01*
X263858Y360281D01*
X264521Y359516D01*
X265373Y358969D01*
X266344Y358683D01*
X267357D01*
X268328Y358969D01*
X269180Y359516D01*
X269843Y360281D01*
X270264Y361203D01*
X270408Y362205D01*
X250408D02*
X250264Y363207D01*
X249843Y364128D01*
X249180Y364893D01*
X248328Y365441D01*
X247357Y365726D01*
X246344D01*
X245373Y365441D01*
X244521Y364893D01*
X243858Y364128D01*
X243437Y363207D01*
X243293Y362205D01*
X243437Y361203D01*
X243858Y360281D01*
X244521Y359516D01*
X245373Y358969D01*
X246344Y358683D01*
X247357D01*
X248328Y358969D01*
X249180Y359516D01*
X249843Y360281D01*
X250264Y361203D01*
X250408Y362205D01*
X230408D02*
X230264Y363207D01*
X229843Y364128D01*
X229180Y364893D01*
X228328Y365441D01*
X227357Y365726D01*
X226344D01*
X225373Y365441D01*
X224521Y364893D01*
X223858Y364128D01*
X223437Y363207D01*
X223293Y362205D01*
X223437Y361203D01*
X223858Y360281D01*
X224521Y359516D01*
X225373Y358969D01*
X226344Y358683D01*
X227357D01*
X228328Y358969D01*
X229180Y359516D01*
X229843Y360281D01*
X230264Y361203D01*
X230408Y362205D01*
X220408D02*
X220264Y363207D01*
X219843Y364128D01*
X219180Y364893D01*
X218328Y365441D01*
X217357Y365726D01*
X216344D01*
X215373Y365441D01*
X214521Y364893D01*
X213858Y364128D01*
X213437Y363207D01*
X213293Y362205D01*
X213437Y361203D01*
X213858Y360281D01*
X214521Y359516D01*
X215373Y358969D01*
X216344Y358683D01*
X217357D01*
X218328Y358969D01*
X219180Y359516D01*
X219843Y360281D01*
X220264Y361203D01*
X220408Y362205D01*
X210408D02*
X210264Y363207D01*
X209843Y364128D01*
X209180Y364893D01*
X208328Y365441D01*
X207357Y365726D01*
X206344D01*
X205373Y365441D01*
X204521Y364893D01*
X203858Y364128D01*
X203437Y363207D01*
X203293Y362205D01*
X203437Y361203D01*
X203858Y360281D01*
X204521Y359516D01*
X205373Y358969D01*
X206344Y358683D01*
X207357D01*
X208328Y358969D01*
X209180Y359516D01*
X209843Y360281D01*
X210264Y361203D01*
X210408Y362205D01*
X200408D02*
X200264Y363207D01*
X199843Y364128D01*
X199180Y364893D01*
X198328Y365441D01*
X197357Y365726D01*
X196344D01*
X195373Y365441D01*
X194521Y364893D01*
X193858Y364128D01*
X193437Y363207D01*
X193293Y362205D01*
X193437Y361203D01*
X193858Y360281D01*
X194521Y359516D01*
X195373Y358969D01*
X196344Y358683D01*
X197357D01*
X198328Y358969D01*
X199180Y359516D01*
X199843Y360281D01*
X200264Y361203D01*
X200408Y362205D01*
X260408D02*
X260264Y363207D01*
X259843Y364128D01*
X259180Y364893D01*
X258328Y365441D01*
X257357Y365726D01*
X256344D01*
X255373Y365441D01*
X254521Y364893D01*
X253858Y364128D01*
X253437Y363207D01*
X253293Y362205D01*
X253437Y361203D01*
X253858Y360281D01*
X254521Y359516D01*
X255373Y358969D01*
X256344Y358683D01*
X257357D01*
X258328Y358969D01*
X259180Y359516D01*
X259843Y360281D01*
X260264Y361203D01*
X260408Y362205D01*
X240408D02*
X240264Y363207D01*
X239843Y364128D01*
X239180Y364893D01*
X238328Y365441D01*
X237357Y365726D01*
X236344D01*
X235373Y365441D01*
X234521Y364893D01*
X233858Y364128D01*
X233437Y363207D01*
X233293Y362205D01*
X233437Y361203D01*
X233858Y360281D01*
X234521Y359516D01*
X235373Y358969D01*
X236344Y358683D01*
X237357D01*
X238328Y358969D01*
X239180Y359516D01*
X239843Y360281D01*
X240264Y361203D01*
X240408Y362205D01*
X190408Y464567D02*
X190264Y465569D01*
X189843Y466490D01*
X189180Y467255D01*
X188328Y467803D01*
X187357Y468088D01*
X186344D01*
X185373Y467803D01*
X184521Y467255D01*
X183858Y466490D01*
X183437Y465569D01*
X183293Y464567D01*
X183437Y463565D01*
X183858Y462644D01*
X184521Y461878D01*
X185373Y461331D01*
X186344Y461046D01*
X187357D01*
X188328Y461331D01*
X189180Y461878D01*
X189843Y462644D01*
X190264Y463565D01*
X190408Y464567D01*
X180408D02*
X180264Y465569D01*
X179843Y466490D01*
X179180Y467255D01*
X178328Y467803D01*
X177357Y468088D01*
X176344D01*
X175373Y467803D01*
X174521Y467255D01*
X173858Y466490D01*
X173437Y465569D01*
X173293Y464567D01*
X173437Y463565D01*
X173858Y462644D01*
X174521Y461878D01*
X175373Y461331D01*
X176344Y461046D01*
X177357D01*
X178328Y461331D01*
X179180Y461878D01*
X179843Y462644D01*
X180264Y463565D01*
X180408Y464567D01*
X170408D02*
X170264Y465569D01*
X169843Y466490D01*
X169180Y467255D01*
X168328Y467803D01*
X167357Y468088D01*
X166344D01*
X165373Y467803D01*
X164521Y467255D01*
X163858Y466490D01*
X163437Y465569D01*
X163293Y464567D01*
X163437Y463565D01*
X163858Y462644D01*
X164521Y461878D01*
X165373Y461331D01*
X166344Y461046D01*
X167357D01*
X168328Y461331D01*
X169180Y461878D01*
X169843Y462644D01*
X170264Y463565D01*
X170408Y464567D01*
X160408D02*
X160264Y465569D01*
X159843Y466490D01*
X159180Y467255D01*
X158328Y467803D01*
X157357Y468088D01*
X156344D01*
X155373Y467803D01*
X154521Y467255D01*
X153858Y466490D01*
X153437Y465569D01*
X153293Y464567D01*
X153437Y463565D01*
X153858Y462644D01*
X154521Y461878D01*
X155373Y461331D01*
X156344Y461046D01*
X157357D01*
X158328Y461331D01*
X159180Y461878D01*
X159843Y462644D01*
X160264Y463565D01*
X160408Y464567D01*
X179740Y424297D02*
X179103Y423523D01*
X178579Y422668D01*
X178177Y421750D01*
X177904Y420785D01*
X177767Y419793D01*
Y418790D01*
X177904Y417797D01*
X178177Y416833D01*
X178579Y415914D01*
X179103Y415060D01*
X179740Y414286D01*
X140408Y464567D02*
X140264Y465569D01*
X139843Y466490D01*
X139180Y467255D01*
X138328Y467803D01*
X137357Y468088D01*
X136344D01*
X135373Y467803D01*
X134521Y467255D01*
X133858Y466490D01*
X133437Y465569D01*
X133293Y464567D01*
X133437Y463565D01*
X133858Y462644D01*
X134521Y461878D01*
X135373Y461331D01*
X136344Y461046D01*
X137357D01*
X138328Y461331D01*
X139180Y461878D01*
X139843Y462644D01*
X140264Y463565D01*
X140408Y464567D01*
X150408D02*
X150264Y465569D01*
X149843Y466490D01*
X149180Y467255D01*
X148328Y467803D01*
X147357Y468088D01*
X146344D01*
X145373Y467803D01*
X144521Y467255D01*
X143858Y466490D01*
X143437Y465569D01*
X143293Y464567D01*
X143437Y463565D01*
X143858Y462644D01*
X144521Y461878D01*
X145373Y461331D01*
X146344Y461046D01*
X147357D01*
X148328Y461331D01*
X149180Y461878D01*
X149843Y462644D01*
X150264Y463565D01*
X150408Y464567D01*
X120408D02*
X120264Y465569D01*
X119843Y466490D01*
X119180Y467255D01*
X118328Y467803D01*
X117357Y468088D01*
X116344D01*
X115373Y467803D01*
X114521Y467255D01*
X113858Y466490D01*
X113437Y465569D01*
X113293Y464567D01*
X113437Y463565D01*
X113858Y462644D01*
X114521Y461878D01*
X115373Y461331D01*
X116344Y461046D01*
X117357D01*
X118328Y461331D01*
X119180Y461878D01*
X119843Y462644D01*
X120264Y463565D01*
X120408Y464567D01*
X130408D02*
X130264Y465569D01*
X129843Y466490D01*
X129180Y467255D01*
X128328Y467803D01*
X127357Y468088D01*
X126344D01*
X125373Y467803D01*
X124521Y467255D01*
X123858Y466490D01*
X123437Y465569D01*
X123293Y464567D01*
X123437Y463565D01*
X123858Y462644D01*
X124521Y461878D01*
X125373Y461331D01*
X126344Y461046D01*
X127357D01*
X128328Y461331D01*
X129180Y461878D01*
X129843Y462644D01*
X130264Y463565D01*
X130408Y464567D01*
X100302Y462598D02*
X100218Y463581D01*
X99970Y464535D01*
X99563Y465434D01*
X99011Y466251D01*
X98329Y466962D01*
X97536Y467549D01*
X96656Y467993D01*
X95713Y468281D01*
X94735Y468407D01*
X93750Y468365D01*
X92786Y468157D01*
X91871Y467789D01*
X91031Y467272D01*
X90291Y466621D01*
X89672Y465854D01*
X89191Y464993D01*
X88862Y464063D01*
X88696Y463091D01*
Y462105D01*
X88862Y461134D01*
X89191Y460204D01*
X89672Y459343D01*
X90291Y458576D01*
X91031Y457925D01*
X91871Y457408D01*
X92786Y457040D01*
X93750Y456832D01*
X94735Y456790D01*
X95713Y456916D01*
X96656Y457204D01*
X97536Y457648D01*
X98329Y458235D01*
X99011Y458946D01*
X99563Y459763D01*
X99970Y460662D01*
X100218Y461616D01*
X100302Y462598D01*
X180408Y362205D02*
X180264Y363207D01*
X179843Y364128D01*
X179180Y364893D01*
X178328Y365441D01*
X177357Y365726D01*
X176344D01*
X175373Y365441D01*
X174521Y364893D01*
X173858Y364128D01*
X173437Y363207D01*
X173293Y362205D01*
X173437Y361203D01*
X173858Y360281D01*
X174521Y359516D01*
X175373Y358969D01*
X176344Y358683D01*
X177357D01*
X178328Y358969D01*
X179180Y359516D01*
X179843Y360281D01*
X180264Y361203D01*
X180408Y362205D01*
X170408D02*
X170264Y363207D01*
X169843Y364128D01*
X169180Y364893D01*
X168328Y365441D01*
X167357Y365726D01*
X166344D01*
X165373Y365441D01*
X164521Y364893D01*
X163858Y364128D01*
X163437Y363207D01*
X163293Y362205D01*
X163437Y361203D01*
X163858Y360281D01*
X164521Y359516D01*
X165373Y358969D01*
X166344Y358683D01*
X167357D01*
X168328Y358969D01*
X169180Y359516D01*
X169843Y360281D01*
X170264Y361203D01*
X170408Y362205D01*
X190408D02*
X190264Y363207D01*
X189843Y364128D01*
X189180Y364893D01*
X188328Y365441D01*
X187357Y365726D01*
X186344D01*
X185373Y365441D01*
X184521Y364893D01*
X183858Y364128D01*
X183437Y363207D01*
X183293Y362205D01*
X183437Y361203D01*
X183858Y360281D01*
X184521Y359516D01*
X185373Y358969D01*
X186344Y358683D01*
X187357D01*
X188328Y358969D01*
X189180Y359516D01*
X189843Y360281D01*
X190264Y361203D01*
X190408Y362205D01*
X148000Y358838D02*
X148974Y359350D01*
X149744Y360135D01*
X150238Y361118D01*
X150408Y362205D01*
X160408D02*
X160264Y363207D01*
X159843Y364128D01*
X159180Y364893D01*
X158328Y365441D01*
X157357Y365726D01*
X156344D01*
X155373Y365441D01*
X154521Y364893D01*
X153858Y364128D01*
X153437Y363207D01*
X153293Y362205D01*
X153437Y361203D01*
X153858Y360281D01*
X154521Y359516D01*
X155373Y358969D01*
X156344Y358683D01*
X157357D01*
X158328Y358969D01*
X159180Y359516D01*
X159843Y360281D01*
X160264Y361203D01*
X160408Y362205D01*
X150408D02*
X150275Y363167D01*
X149887Y364058D01*
X149273Y364810D01*
X148477Y365368D01*
X147561Y365691D01*
X146591Y365753D01*
X145641Y365550D01*
X144781Y365098D01*
X144075Y364431D01*
X143577Y363597D01*
X143322Y362659D01*
X143331Y361688D01*
X143602Y360755D01*
X144115Y359930D01*
X144833Y359275D01*
X145700Y358838D01*
X140408Y362205D02*
X140264Y363207D01*
X139843Y364128D01*
X139180Y364893D01*
X138328Y365441D01*
X137357Y365726D01*
X136344D01*
X135373Y365441D01*
X134521Y364893D01*
X133858Y364128D01*
X133437Y363207D01*
X133293Y362205D01*
X133437Y361203D01*
X133858Y360281D01*
X134521Y359516D01*
X135373Y358969D01*
X136344Y358683D01*
X137357D01*
X138328Y358969D01*
X139180Y359516D01*
X139843Y360281D01*
X140264Y361203D01*
X140408Y362205D01*
X130408D02*
X130264Y363207D01*
X129843Y364128D01*
X129180Y364893D01*
X128328Y365441D01*
X127357Y365726D01*
X126344D01*
X125373Y365441D01*
X124521Y364893D01*
X123858Y364128D01*
X123437Y363207D01*
X123293Y362205D01*
X123437Y361203D01*
X123858Y360281D01*
X124521Y359516D01*
X125373Y358969D01*
X126344Y358683D01*
X127357D01*
X128328Y358969D01*
X129180Y359516D01*
X129843Y360281D01*
X130264Y361203D01*
X130408Y362205D01*
X120408D02*
X120264Y363207D01*
X119843Y364128D01*
X119180Y364893D01*
X118328Y365441D01*
X117357Y365726D01*
X116344D01*
X115373Y365441D01*
X114521Y364893D01*
X113858Y364128D01*
X113437Y363207D01*
X113293Y362205D01*
X113437Y361203D01*
X113858Y360281D01*
X114521Y359516D01*
X115373Y358969D01*
X116344Y358683D01*
X117357D01*
X118328Y358969D01*
X119180Y359516D01*
X119843Y360281D01*
X120264Y361203D01*
X120408Y362205D01*
X110408D02*
X110264Y363207D01*
X109843Y364128D01*
X109180Y364893D01*
X108328Y365441D01*
X107357Y365726D01*
X106344D01*
X105373Y365441D01*
X104521Y364893D01*
X103858Y364128D01*
X103437Y363207D01*
X103293Y362205D01*
X103437Y361203D01*
X103858Y360281D01*
X104521Y359516D01*
X105373Y358969D01*
X106344Y358683D01*
X107357D01*
X108328Y358969D01*
X109180Y359516D01*
X109843Y360281D01*
X110264Y361203D01*
X110408Y362205D01*
X100302Y364173D02*
X100218Y365156D01*
X99970Y366110D01*
X99563Y367008D01*
X99011Y367825D01*
X98329Y368537D01*
X97536Y369124D01*
X96656Y369567D01*
X95713Y369856D01*
X94735Y369981D01*
X93750Y369939D01*
X92786Y369732D01*
X91871Y369364D01*
X91031Y368847D01*
X90291Y368196D01*
X89672Y367429D01*
X89191Y366568D01*
X88862Y365638D01*
X88696Y364666D01*
Y363680D01*
X88862Y362708D01*
X89191Y361779D01*
X89672Y360918D01*
X90291Y360151D01*
X91031Y359499D01*
X91871Y358982D01*
X92786Y358615D01*
X93750Y358407D01*
X94735Y358365D01*
X95713Y358490D01*
X96656Y358779D01*
X97536Y359223D01*
X98329Y359809D01*
X99011Y360521D01*
X99563Y361338D01*
X99970Y362237D01*
X100218Y363191D01*
X100302Y364173D01*
X267722Y324809D02*
X266732Y325219D01*
X267722Y324809D02*
X266732Y325219D01*
X282896Y309055D02*
X282486Y310045D01*
X282896Y309055D02*
X282486Y310045D01*
X262789Y325219D02*
X262244Y326027D01*
X261485Y326637D01*
X260579Y326997D01*
X259608Y327073D01*
X258658Y326858D01*
X257813Y326373D01*
X257149Y325660D01*
X256726Y324782D01*
X256580Y323819D01*
X256726Y322855D01*
X257149Y321978D01*
X257813Y321265D01*
X258658Y320779D01*
X259608Y320565D01*
X260579Y320641D01*
X261485Y321000D01*
X262244Y321611D01*
X262789Y322419D01*
X245684Y340551D02*
X245544Y341538D01*
X245136Y342448D01*
X244491Y343208D01*
X243661Y343760D01*
X242710Y344060D01*
X241714Y344085D01*
X240750Y343832D01*
X239894Y343321D01*
X239213Y342593D01*
X238761Y341704D01*
X238573Y340725D01*
X238664Y339733D01*
X240006Y337694D02*
X240865Y337225D01*
X241820Y337007D01*
X242798Y337058D01*
X243725Y337373D01*
X244531Y337930D01*
X245155Y338685D01*
X245549Y339581D01*
X245684Y340551D01*
X239276Y337433D02*
X240006Y337694D01*
X239276Y337433D02*
X240006Y337694D01*
X237809Y328740D02*
X237665Y329742D01*
X237245Y330663D01*
X236582Y331429D01*
X235730Y331976D01*
X234758Y332261D01*
X233746D01*
X232774Y331976D01*
X231922Y331429D01*
X231259Y330663D01*
X230839Y329742D01*
X230695Y328740D01*
X230839Y327738D01*
X231259Y326817D01*
X231922Y326052D01*
X232774Y325504D01*
X233746Y325219D01*
X234758D01*
X235730Y325504D01*
X236582Y326052D01*
X237245Y326817D01*
X237665Y327738D01*
X237809Y328740D01*
X263105Y294291D02*
X262945Y295299D01*
X262482Y296209D01*
X261760Y296931D01*
X260851Y297394D01*
X259842Y297553D01*
X258834Y297394D01*
X257925Y296931D01*
X257203Y296209D01*
X256740Y295299D01*
X256580Y294291D01*
X256740Y293283D01*
X257203Y292374D01*
X257925Y291652D01*
X258834Y291189D01*
X259842Y291029D01*
X260851Y291189D01*
X261760Y291652D01*
X262482Y292374D01*
X262945Y293283D01*
X263105Y294291D01*
X244156Y265748D02*
X244012Y266750D01*
X243591Y267671D01*
X242928Y268437D01*
X242076Y268984D01*
X241105Y269269D01*
X240092D01*
X239121Y268984D01*
X238269Y268437D01*
X237606Y267671D01*
X237185Y266750D01*
X237041Y265748D01*
X237185Y264746D01*
X237606Y263825D01*
X238269Y263059D01*
X239121Y262512D01*
X240092Y262227D01*
X241105D01*
X242076Y262512D01*
X242928Y263059D01*
X243591Y263825D01*
X244012Y264746D01*
X244156Y265748D01*
X282486Y231294D02*
X282896Y232283D01*
X282486Y231294D02*
X282896Y232283D01*
X270880Y226378D02*
X270732Y227336D01*
X270300Y228204D01*
X269625Y228901D01*
X268771Y229361D01*
X267818Y229540D01*
X266856Y229422D01*
X265974Y229019D01*
X265256Y228367D01*
X264769Y227528D01*
X296660Y214567D02*
X296592Y215560D01*
X296390Y216534D01*
X296056Y217471D01*
X295599Y218355D01*
X295025Y219167D01*
X294346Y219895D01*
X293574Y220522D01*
X292724Y221039D01*
X291811Y221436D01*
X290853Y221704D01*
X289867Y221840D01*
X288873D01*
X287887Y221704D01*
X286929Y221436D01*
X286016Y221039D01*
X285166Y220522D01*
X284394Y219895D01*
X283715Y219167D01*
X283142Y218355D01*
X282684Y217471D01*
X282351Y216534D01*
X282148Y215560D01*
X282080Y214567D01*
X282148Y213574D01*
X282351Y212600D01*
X282684Y211663D01*
X283142Y210779D01*
X283715Y209966D01*
X284394Y209239D01*
X285166Y208611D01*
X286016Y208095D01*
X286929Y207698D01*
X287887Y207430D01*
X288873Y207294D01*
X289867Y207294D01*
X290853Y207430D01*
X291811Y207698D01*
X292724Y208095D01*
X293574Y208611D01*
X294346Y209239D01*
X295025Y209966D01*
X295599Y210779D01*
X296056Y211663D01*
X296390Y212600D01*
X296592Y213574D01*
X296660Y214567D01*
X269685Y219072D02*
X270675Y219482D01*
X264769Y225228D02*
X265256Y224389D01*
X265974Y223737D01*
X266856Y223334D01*
X267818Y223216D01*
X268771Y223395D01*
X269625Y223855D01*
X270300Y224551D01*
X270732Y225420D01*
X270880Y226378D01*
X265748Y221872D02*
X264758Y221462D01*
X265748Y221872D02*
X264758Y221462D01*
X269685Y219072D02*
X270675Y219482D01*
X270880Y210630D02*
X270725Y211608D01*
X270276Y212490D01*
X269576Y213190D01*
X268694Y213639D01*
X267717Y213794D01*
X266739Y213639D01*
X265857Y213190D01*
X265157Y212490D01*
X264708Y211608D01*
X264553Y210630D01*
X264708Y209652D01*
X265157Y208770D01*
X265857Y208070D01*
X266739Y207621D01*
X267717Y207466D01*
X268694Y207621D01*
X269576Y208070D01*
X270276Y208770D01*
X270725Y209652D01*
X270880Y210630D01*
X259842Y227528D02*
X259029Y227191D01*
X259842Y227528D02*
X259027Y227189D01*
X243715Y251969D02*
X243571Y252971D01*
X243150Y253892D01*
X242487Y254657D01*
X241635Y255205D01*
X240664Y255490D01*
X239651D01*
X238680Y255205D01*
X237828Y254657D01*
X237165Y253892D01*
X236744Y252971D01*
X236600Y251969D01*
X236744Y250966D01*
X237165Y250045D01*
X237828Y249280D01*
X238680Y248732D01*
X239651Y248447D01*
X240664D01*
X241635Y248732D01*
X242487Y249280D01*
X243150Y250045D01*
X243571Y250966D01*
X243715Y251969D01*
X251195Y226378D02*
X251040Y227356D01*
X250591Y228238D01*
X249891Y228938D01*
X249009Y229387D01*
X248031Y229542D01*
X247054Y229387D01*
X246172Y228938D01*
X245472Y228238D01*
X245023Y227356D01*
X244868Y226378D01*
X245023Y225400D01*
X245472Y224518D01*
X246172Y223818D01*
X247054Y223369D01*
X248031Y223214D01*
X249009Y223369D01*
X249891Y223818D01*
X250591Y224518D01*
X251040Y225400D01*
X251195Y226378D01*
X243715Y240158D02*
X243571Y241160D01*
X243150Y242081D01*
X242487Y242846D01*
X241635Y243393D01*
X240664Y243679D01*
X239651D01*
X238680Y243393D01*
X237828Y242846D01*
X237165Y242081D01*
X236744Y241160D01*
X236600Y240158D01*
X236744Y239155D01*
X237165Y238234D01*
X237828Y237469D01*
X238680Y236922D01*
X239651Y236636D01*
X240664D01*
X241635Y236922D01*
X242487Y237469D01*
X243150Y238234D01*
X243571Y239155D01*
X243715Y240158D01*
X253937Y219322D02*
X254752Y219661D01*
X253937Y219322D02*
X254750Y219659D01*
X251195Y210630D02*
X251040Y211608D01*
X250591Y212490D01*
X249891Y213190D01*
X249009Y213639D01*
X248031Y213794D01*
X247054Y213639D01*
X246172Y213190D01*
X245472Y212490D01*
X245023Y211608D01*
X244868Y210630D01*
X245023Y209652D01*
X245472Y208770D01*
X246172Y208070D01*
X247054Y207621D01*
X248031Y207466D01*
X249009Y207621D01*
X249891Y208070D01*
X250591Y208770D01*
X251040Y209652D01*
X251195Y210630D01*
X245684Y196850D02*
X245428Y198173D01*
X243526Y193580D02*
X244407Y194121D01*
X245095Y194891D01*
X245533Y195828D01*
X245684Y196850D01*
X243449Y200153D02*
X242472Y200391D01*
X241468Y200346D01*
X240517Y200023D01*
X239693Y199446D01*
X239065Y198662D01*
X238680Y197734D01*
X238570Y196735D01*
X238745Y195745D01*
X239189Y194843D01*
X239867Y194102D01*
X240726Y193580D01*
Y192913D02*
X241136Y191923D01*
X240726Y192913D02*
X241136Y191923D01*
X209955Y321850D02*
X209795Y322859D01*
X209332Y323768D01*
X208610Y324490D01*
X207701Y324953D01*
X206693Y325113D01*
X205685Y324953D01*
X204775Y324490D01*
X204054Y323768D01*
X203590Y322859D01*
X203431Y321850D01*
X203590Y320842D01*
X204054Y319933D01*
X204775Y319211D01*
X205685Y318748D01*
X206693Y318588D01*
X207701Y318748D01*
X208610Y319211D01*
X209332Y319933D01*
X209795Y320842D01*
X209955Y321850D01*
X225998Y293307D02*
X225854Y294309D01*
X225434Y295230D01*
X224771Y295996D01*
X223919Y296543D01*
X222947Y296828D01*
X221935D01*
X220963Y296543D01*
X220111Y295996D01*
X219448Y295230D01*
X219028Y294309D01*
X218883Y293307D01*
X219028Y292305D01*
X219448Y291384D01*
X220111Y290618D01*
X220963Y290071D01*
X221935Y289786D01*
X222947D01*
X223919Y290071D01*
X224771Y290618D01*
X225434Y291384D01*
X225854Y292305D01*
X225998Y293307D01*
X217829Y271654D02*
X217670Y272662D01*
X217206Y273571D01*
X216484Y274293D01*
X215575Y274756D01*
X214567Y274916D01*
X213559Y274756D01*
X212649Y274293D01*
X211928Y273571D01*
X211464Y272662D01*
X211305Y271654D01*
X211464Y270645D01*
X211928Y269736D01*
X212649Y269014D01*
X213559Y268551D01*
X214567Y268391D01*
X215575Y268551D01*
X216484Y269014D01*
X217206Y269736D01*
X217670Y270645D01*
X217829Y271654D01*
X218124Y248031D02*
X217980Y249034D01*
X217560Y249955D01*
X216897Y250720D01*
X216045Y251268D01*
X215073Y251553D01*
X214061D01*
X213089Y251268D01*
X212237Y250720D01*
X211574Y249955D01*
X211154Y249034D01*
X211010Y248031D01*
X211154Y247029D01*
X211574Y246108D01*
X212237Y245343D01*
X213089Y244795D01*
X214061Y244510D01*
X215073D01*
X216045Y244795D01*
X216897Y245343D01*
X217560Y246108D01*
X217980Y247029D01*
X218124Y248031D01*
X204156Y277559D02*
X203746Y278549D01*
X204156Y277559D02*
X203746Y278549D01*
X201356Y249764D02*
X201766Y248774D01*
X201356Y249764D02*
X201766Y248774D01*
X193779Y319122D02*
X194747Y318962D01*
X195716Y319111D01*
X196592Y319553D01*
X197287Y320245D01*
X197734Y321118D01*
X197888Y322087D01*
X197735Y323054D01*
X197289Y323926D01*
X196596Y324618D01*
X195722Y325060D01*
X194754Y325211D01*
X193788Y325055D01*
X192917Y324607D01*
X192227Y323911D01*
X191787Y323036D01*
X191639Y322068D01*
X191799Y321101D01*
X197888Y312087D02*
X197735Y313052D01*
X197292Y313923D01*
X196600Y314614D01*
X195729Y315058D01*
X194764Y315211D01*
X193798Y315058D01*
X192927Y314614D01*
X192236Y313923D01*
X191792Y313052D01*
X191639Y312087D01*
X191792Y311121D01*
X192236Y310250D01*
X192927Y309559D01*
X193798Y309115D01*
X194764Y308962D01*
X195729Y309115D01*
X196600Y309559D01*
X197292Y310250D01*
X197735Y311121D01*
X197888Y312087D01*
Y302087D02*
X197735Y303052D01*
X197292Y303923D01*
X196600Y304614D01*
X195729Y305058D01*
X194764Y305211D01*
X193798Y305058D01*
X192927Y304614D01*
X192236Y303923D01*
X191792Y303052D01*
X191639Y302087D01*
X191792Y301121D01*
X192236Y300250D01*
X192927Y299559D01*
X193798Y299115D01*
X194764Y298962D01*
X195729Y299115D01*
X196600Y299559D01*
X197292Y300250D01*
X197735Y301121D01*
X197888Y302087D01*
Y292087D02*
X197735Y293052D01*
X197292Y293923D01*
X196600Y294614D01*
X195729Y295058D01*
X194764Y295211D01*
X193798Y295058D01*
X192927Y294614D01*
X192236Y293923D01*
X191792Y293052D01*
X191639Y292087D01*
X191792Y291121D01*
X192236Y290250D01*
X192927Y289559D01*
X193798Y289115D01*
X194764Y288962D01*
X195729Y289115D01*
X196600Y289559D01*
X197292Y290250D01*
X197735Y291121D01*
X197888Y292087D01*
X184049Y313352D02*
X183639Y312362D01*
X184049Y313352D02*
X183639Y312362D01*
Y295276D02*
X184049Y294286D01*
X183639Y295276D02*
X184049Y294286D01*
X182252Y284488D02*
X181915Y285301D01*
X184365Y272638D02*
X184216Y273610D01*
X183785Y274494D01*
X183110Y275209D01*
X182252Y275691D01*
Y284488D02*
X181913Y285303D01*
X179952Y275691D02*
X179074Y275192D01*
X178390Y274449D01*
X177965Y273533D01*
X177842Y272530D01*
X178031Y271538D01*
X178515Y270652D01*
X179246Y269955D01*
X180156Y269516D01*
X181156Y269376D01*
X182151Y269549D01*
X183046Y270018D01*
X183754Y270738D01*
X184208Y271640D01*
X184365Y272638D01*
X215475Y232852D02*
X216089Y232012D01*
X216946Y231421D01*
X217949Y231144D01*
X218987Y231211D01*
X219946Y231616D01*
X220718Y232314D01*
X221219Y233226D01*
X221392Y234252D01*
X221238Y235221D01*
X220791Y236094D01*
X220096Y236786D01*
X219220Y237228D01*
X218250Y237376D01*
X217283Y237217D01*
X219955Y221622D02*
X220723Y222320D01*
X221220Y223229D01*
X221392Y224252D01*
X198653Y242303D02*
X197663Y242713D01*
X198653Y242303D02*
X197663Y242713D01*
X203734Y233262D02*
X204724Y232852D01*
X197666Y235063D02*
X196850Y235402D01*
X203734Y233262D02*
X204724Y232852D01*
X197664Y235065D02*
X196850Y235402D01*
X221392Y224252D02*
X221235Y225231D01*
X220779Y226111D01*
X220070Y226804D01*
X219180Y227240D01*
X218198Y227376D01*
X217223Y227197D01*
X216354Y226721D01*
X215676Y225997D01*
X215260Y225098D01*
X215146Y224113D01*
X215347Y223142D01*
X215842Y222283D01*
X216580Y221622D01*
X221392Y214252D02*
X221239Y215217D01*
X220795Y216089D01*
X220104Y216780D01*
X219233Y217224D01*
X218268Y217376D01*
X217302Y217224D01*
X216431Y216780D01*
X215740Y216089D01*
X215296Y215217D01*
X215143Y214252D01*
X215296Y213286D01*
X215740Y212416D01*
X216431Y211724D01*
X217302Y211280D01*
X218268Y211128D01*
X219233Y211280D01*
X220104Y211724D01*
X220795Y212416D01*
X221239Y213286D01*
X221392Y214252D01*
Y204252D02*
X221239Y205218D01*
X220795Y206088D01*
X220104Y206780D01*
X219233Y207224D01*
X218268Y207376D01*
X217302Y207224D01*
X216431Y206780D01*
X215740Y206088D01*
X215296Y205218D01*
X215143Y204252D01*
X215296Y203287D01*
X215740Y202415D01*
X216431Y201724D01*
X217302Y201280D01*
X218268Y201128D01*
X219233Y201280D01*
X220104Y201724D01*
X220795Y202415D01*
X221239Y203287D01*
X221392Y204252D01*
X209815Y219661D02*
X210630Y219322D01*
X209817Y219659D02*
X210630Y219322D01*
X202170Y210240D02*
X201833Y211053D01*
X202170Y210240D02*
X201831Y211055D01*
X201367Y191758D02*
X200554Y192095D01*
X201370Y191756D02*
X200554Y192095D01*
X199870Y202233D02*
X200207Y201419D01*
X199870Y202233D02*
X200209Y201417D01*
X187108Y230757D02*
X187356Y231128D01*
X187106Y230755D02*
X187356Y231128D01*
X189875Y223011D02*
X190132Y224252D01*
X189974Y225235D01*
X189514Y226118D01*
X188799Y226812D01*
X187903Y227245D01*
X186916Y227375D01*
X185938Y227187D01*
X185069Y226702D01*
X184396Y225967D01*
X183989Y225059D01*
X183889Y224068D01*
X184105Y223096D01*
X184616Y222241D01*
X185370Y221591D01*
X186291Y221211D01*
X187284Y221140D01*
X188249Y221385D01*
X180291Y227193D02*
X179952Y226378D01*
X180289Y227191D02*
X179952Y226378D01*
X190132Y214252D02*
X189979Y215219D01*
X189533Y216091D01*
X188840Y216783D01*
X187966Y217226D01*
X186998Y217376D01*
X186032Y217220D01*
X185161Y216772D01*
X184471Y216076D01*
X184031Y215201D01*
X183884Y214233D01*
X184043Y213267D01*
X186023Y211287D02*
X186991Y211128D01*
X187960Y211276D01*
X188836Y211718D01*
X189532Y212410D01*
X189978Y213283D01*
X190132Y214252D01*
Y204252D02*
X189979Y205218D01*
X189536Y206088D01*
X188844Y206780D01*
X187973Y207224D01*
X187008Y207376D01*
X186042Y207224D01*
X185171Y206780D01*
X184480Y206088D01*
X184036Y205218D01*
X183884Y204252D01*
X184036Y203287D01*
X184480Y202415D01*
X185171Y201724D01*
X186042Y201280D01*
X187008Y201128D01*
X187973Y201280D01*
X188844Y201724D01*
X189536Y202415D01*
X189979Y203287D01*
X190132Y204252D01*
X181913Y213752D02*
X182252Y214567D01*
X181915Y213754D02*
X182252Y214567D01*
X170797Y200021D02*
X170880Y200787D01*
X170788Y201592D01*
X170517Y202355D01*
X292489Y154331D02*
X292150Y155146D01*
X288439Y180354D02*
X288286Y181320D01*
X287843Y182191D01*
X287151Y182882D01*
X286280Y183326D01*
X285315Y183479D01*
X284349Y183326D01*
X283478Y182882D01*
X282787Y182191D01*
X282344Y181320D01*
X282190Y180354D01*
X282344Y179389D01*
X282787Y178518D01*
X283478Y177827D01*
X284349Y177383D01*
X285315Y177230D01*
X286280Y177383D01*
X287151Y177827D01*
X287843Y178518D01*
X288286Y179389D01*
X288439Y180354D01*
Y170354D02*
X288286Y171322D01*
X287841Y172194D01*
X287147Y172885D01*
X286273Y173328D01*
X285306Y173479D01*
X284339Y173322D01*
X283468Y172874D01*
X282779Y172179D01*
X282338Y171304D01*
X282191Y170335D01*
X282350Y169369D01*
X284330Y167389D02*
X285298Y167230D01*
X286267Y167379D01*
X287143Y167821D01*
X287839Y168512D01*
X288285Y169386D01*
X288439Y170354D01*
Y160354D02*
X288281Y161337D01*
X287821Y162221D01*
X287106Y162914D01*
X286210Y163348D01*
X285223Y163477D01*
X284245Y163290D01*
X283376Y162804D01*
X282703Y162070D01*
X282296Y161161D01*
X282196Y160170D01*
X282412Y159198D01*
X282923Y158344D01*
X283677Y157694D01*
X284598Y157313D01*
X285591Y157242D01*
X286556Y157487D01*
X288182Y159113D02*
X288439Y160354D01*
X274880Y161899D02*
X274470Y160909D01*
X274880Y161899D02*
X274470Y160909D01*
X292489Y154331D02*
X292152Y155144D01*
X288439Y150354D02*
X288286Y151320D01*
X287843Y152191D01*
X287151Y152882D01*
X286280Y153326D01*
X285315Y153479D01*
X284349Y153326D01*
X283478Y152882D01*
X282787Y152191D01*
X282344Y151320D01*
X282190Y150354D01*
X282344Y149389D01*
X282787Y148518D01*
X283478Y147827D01*
X284349Y147383D01*
X285315Y147230D01*
X286280Y147383D01*
X287151Y147827D01*
X287843Y148518D01*
X288286Y149389D01*
X288439Y150354D01*
X257179Y170354D02*
X257027Y171320D01*
X256583Y172191D01*
X255892Y172882D01*
X255021Y173326D01*
X254055Y173479D01*
X253090Y173326D01*
X252219Y172882D01*
X251527Y172191D01*
X251084Y171320D01*
X250931Y170354D01*
X251084Y169389D01*
X251527Y168518D01*
X252219Y167827D01*
X253090Y167383D01*
X254055Y167230D01*
X255021Y167383D01*
X255892Y167827D01*
X256583Y168518D01*
X257027Y169389D01*
X257179Y170354D01*
X247463Y188976D02*
X247053Y189966D01*
X247463Y188976D02*
X247053Y189966D01*
X244663Y165354D02*
X245073Y164364D01*
X244663Y165354D02*
X245073Y164364D01*
X257179Y160354D02*
X257017Y161347D01*
X256548Y162237D01*
X255821Y162932D01*
X254910Y163359D01*
X253911Y163475D01*
X252926Y163268D01*
X252059Y162758D01*
X251398Y161999D01*
X251197Y159092D02*
X251704Y158297D01*
X252424Y157689D01*
X253293Y157324D01*
X254232Y157235D01*
X255154Y157430D01*
X255976Y157890D01*
X256624Y158575D01*
X257037Y159423D01*
X257179Y160354D01*
Y150354D02*
X257027Y151320D01*
X256583Y152191D01*
X255892Y152882D01*
X255021Y153326D01*
X254055Y153479D01*
X253090Y153326D01*
X252219Y152882D01*
X251527Y152191D01*
X251084Y151320D01*
X250931Y150354D01*
X251084Y149389D01*
X251527Y148518D01*
X252219Y147827D01*
X253090Y147383D01*
X254055Y147230D01*
X255021Y147383D01*
X255892Y147827D01*
X256583Y148518D01*
X257027Y149389D01*
X257179Y150354D01*
X249936Y159502D02*
X250925Y159092D01*
X249936Y159502D02*
X250925Y159092D01*
X292150Y138949D02*
X292489Y139764D01*
X292152Y138951D02*
X292489Y139764D01*
X282374Y132426D02*
X282035Y131610D01*
X282372Y132423D02*
X282035Y131610D01*
X276860Y126455D02*
X277270Y127445D01*
X276860Y126455D02*
X277270Y127445D01*
X270114Y100962D02*
X270936Y100409D01*
X271920Y100298D01*
X272845Y100656D01*
X273499Y101400D01*
X273735Y102362D01*
X273499Y103325D01*
X272845Y104069D01*
X271920Y104426D01*
X270936Y104316D01*
X270114Y103762D01*
X268754Y117205D02*
X268595Y118190D01*
X285053Y92520D02*
X284909Y93522D01*
X284489Y94443D01*
X283826Y95208D01*
X282974Y95756D01*
X282002Y96041D01*
X280990D01*
X280018Y95756D01*
X279166Y95208D01*
X278503Y94443D01*
X278083Y93522D01*
X277939Y92520D01*
X278083Y91517D01*
X278503Y90596D01*
X279166Y89831D01*
X280018Y89284D01*
X280990Y88998D01*
X282002D01*
X282974Y89284D01*
X283826Y89831D01*
X284489Y90596D01*
X284909Y91517D01*
X285053Y92520D01*
X298833D02*
X298689Y93522D01*
X298268Y94443D01*
X297605Y95208D01*
X296753Y95756D01*
X295782Y96041D01*
X294769D01*
X293798Y95756D01*
X292946Y95208D01*
X292283Y94443D01*
X291862Y93522D01*
X291718Y92520D01*
X291862Y91517D01*
X292283Y90596D01*
X292946Y89831D01*
X293798Y89284D01*
X294769Y88998D01*
X295782D01*
X296753Y89284D01*
X297605Y89831D01*
X298268Y90596D01*
X298689Y91517D01*
X298833Y92520D01*
X294691Y66929D02*
X294623Y67922D01*
X294421Y68896D01*
X294088Y69833D01*
X293630Y70717D01*
X293056Y71530D01*
X292377Y72257D01*
X291605Y72885D01*
X290755Y73402D01*
X289843Y73798D01*
X288885Y74066D01*
X287899Y74202D01*
X286904D01*
X285918Y74066D01*
X284960Y73798D01*
X284048Y73402D01*
X283198Y72885D01*
X282426Y72257D01*
X281747Y71530D01*
X281173Y70717D01*
X280715Y69833D01*
X280382Y68896D01*
X280180Y67922D01*
X280112Y66929D01*
X280180Y65936D01*
X280382Y64962D01*
X280715Y64025D01*
X281173Y63142D01*
X281747Y62329D01*
X282426Y61602D01*
X283198Y60974D01*
X284048Y60457D01*
X284960Y60060D01*
X285918Y59792D01*
X286904Y59656D01*
X287899Y59656D01*
X288885Y59792D01*
X289843Y60060D01*
X290755Y60457D01*
X291605Y60974D01*
X292377Y61602D01*
X293056Y62329D01*
X293630Y63142D01*
X294088Y64025D01*
X294421Y64962D01*
X294623Y65936D01*
X294691Y66929D01*
X268754Y127205D02*
X268601Y128170D01*
X268158Y129041D01*
X267466Y129732D01*
X266595Y130176D01*
X265630Y130329D01*
X264664Y130176D01*
X263793Y129732D01*
X263102Y129041D01*
X262658Y128170D01*
X262506Y127205D01*
X262658Y126239D01*
X263102Y125368D01*
X263793Y124677D01*
X264664Y124233D01*
X265630Y124080D01*
X266595Y124233D01*
X267466Y124677D01*
X268158Y125368D01*
X268601Y126239D01*
X268754Y127205D01*
X266615Y120170D02*
X265649Y120329D01*
X264682Y120182D01*
X263807Y119742D01*
X263111Y119054D01*
X262663Y118184D01*
X262506Y117218D01*
X262655Y116250D01*
X263096Y115377D01*
X263786Y114682D01*
X264657Y114236D01*
X265623Y114080D01*
X266590Y114232D01*
X267463Y114675D01*
X268156Y115366D01*
X268601Y116238D01*
X268754Y117205D01*
Y107205D02*
X268586Y108217D01*
X268099Y109120D01*
X267345Y109816D01*
X266407Y110231D01*
X265385Y110319D01*
X264389Y110072D01*
X262763Y108446D02*
X262517Y107472D01*
X262593Y106471D01*
X262982Y105546D01*
X263645Y104792D01*
X264513Y104287D01*
X265496Y104083D01*
X266493Y104202D01*
X267401Y104631D01*
X268126Y105325D01*
X268593Y106214D01*
X268754Y107205D01*
X255873Y103762D02*
X254883Y103352D01*
X255873Y103762D02*
X254883Y103352D01*
X250715Y95805D02*
X251705Y96215D01*
X268754Y97205D02*
X268601Y98170D01*
X268158Y99041D01*
X267466Y99732D01*
X266595Y100176D01*
X265630Y100329D01*
X264664Y100176D01*
X263793Y99732D01*
X263102Y99041D01*
X262658Y98170D01*
X262506Y97205D01*
X262658Y96239D01*
X263102Y95368D01*
X263793Y94677D01*
X264664Y94233D01*
X265630Y94080D01*
X266595Y94233D01*
X267466Y94677D01*
X268158Y95368D01*
X268601Y96239D01*
X268754Y97205D01*
X250715Y95805D02*
X251705Y96215D01*
X225225Y189787D02*
X224409Y190126D01*
X225223Y189790D02*
X224409Y190126D01*
X229935Y183071D02*
X229765Y184158D01*
X229272Y185140D01*
X228501Y185925D01*
X227528Y186437D01*
Y187008D02*
X227191Y187821D01*
X225228Y186437D02*
X224360Y186001D01*
X223643Y185345D01*
X223129Y184521D01*
X222858Y183588D01*
X222850Y182616D01*
X223104Y181679D01*
X223603Y180845D01*
X224309Y180177D01*
X225169Y179725D01*
X226119Y179523D01*
X227088Y179585D01*
X228005Y179907D01*
X228800Y180465D01*
X229415Y181218D01*
X229803Y182108D01*
X229935Y183071D01*
X227528Y187008D02*
X227189Y187823D01*
X213463Y188163D02*
X214276Y187826D01*
X213461Y188165D02*
X214276Y187826D01*
X205208Y184665D02*
X206021Y184328D01*
X205205Y184667D02*
X206021Y184328D01*
X241746Y147638D02*
X241602Y148640D01*
X241182Y149561D01*
X240519Y150326D01*
X239667Y150874D01*
X238695Y151159D01*
X237683D01*
X236711Y150874D01*
X235859Y150326D01*
X235196Y149561D01*
X234776Y148640D01*
X234631Y147638D01*
X234776Y146635D01*
X235196Y145714D01*
X235859Y144949D01*
X236711Y144402D01*
X237683Y144116D01*
X238695D01*
X239667Y144402D01*
X240519Y144949D01*
X241182Y145714D01*
X241602Y146635D01*
X241746Y147638D01*
X240976Y130709D02*
X241313Y129895D01*
X240976Y130709D02*
X241315Y129893D01*
X216156Y147638D02*
X216012Y148640D01*
X215591Y149561D01*
X214928Y150326D01*
X214076Y150874D01*
X213105Y151159D01*
X212092D01*
X211121Y150874D01*
X210269Y150326D01*
X209606Y149561D01*
X209185Y148640D01*
X209041Y147638D01*
X209185Y146635D01*
X209606Y145714D01*
X210269Y144949D01*
X211121Y144402D01*
X212092Y144116D01*
X213105D01*
X214076Y144402D01*
X214928Y144949D01*
X215591Y145714D01*
X216012Y146635D01*
X216156Y147638D01*
X224030Y127953D02*
X223886Y128955D01*
X223465Y129876D01*
X222802Y130641D01*
X221950Y131189D01*
X220979Y131474D01*
X219966D01*
X218995Y131189D01*
X218143Y130641D01*
X217480Y129876D01*
X217059Y128955D01*
X216915Y127953D01*
X217059Y126951D01*
X217480Y126029D01*
X218143Y125264D01*
X218995Y124717D01*
X219966Y124432D01*
X220979D01*
X221950Y124717D01*
X222802Y125264D01*
X223465Y126029D01*
X223886Y126951D01*
X224030Y127953D01*
X203794Y168386D02*
X203640Y169353D01*
X203195Y170225D01*
X202501Y170917D01*
X201628Y171360D01*
X200660Y171510D01*
X199693Y171354D01*
X198822Y170906D01*
X198133Y170210D01*
X197693Y169335D01*
X197545Y168367D01*
X197704Y167401D01*
X199684Y165421D02*
X200652Y165261D01*
X201622Y165410D01*
X202497Y165852D01*
X203193Y166544D01*
X203640Y167417D01*
X203794Y168386D01*
Y178386D02*
X203641Y179351D01*
X203197Y180222D01*
X202506Y180913D01*
X201635Y181357D01*
X200669Y181510D01*
X199704Y181357D01*
X198833Y180913D01*
X198142Y180222D01*
X197698Y179351D01*
X197545Y178386D01*
X197698Y177420D01*
X198142Y176549D01*
X198833Y175858D01*
X199704Y175414D01*
X200669Y175261D01*
X201635Y175414D01*
X202506Y175858D01*
X203197Y176549D01*
X203641Y177420D01*
X203794Y178386D01*
Y158386D02*
X203641Y159351D01*
X203197Y160222D01*
X202506Y160914D01*
X201635Y161357D01*
X200669Y161510D01*
X199704Y161357D01*
X198833Y160914D01*
X198142Y160222D01*
X197698Y159351D01*
X197545Y158386D01*
X197698Y157420D01*
X198142Y156549D01*
X198833Y155858D01*
X199704Y155414D01*
X200669Y155261D01*
X201635Y155414D01*
X202506Y155858D01*
X203197Y156549D01*
X203641Y157420D01*
X203794Y158386D01*
X189955Y159651D02*
X189545Y158661D01*
X189955Y159651D02*
X189545Y158661D01*
X203794Y148386D02*
X203641Y149351D01*
X203197Y150222D01*
X202506Y150914D01*
X201635Y151357D01*
X200669Y151510D01*
X199704Y151357D01*
X198833Y150914D01*
X198142Y150222D01*
X197698Y149351D01*
X197545Y148386D01*
X197698Y147420D01*
X198142Y146549D01*
X198833Y145858D01*
X199704Y145414D01*
X200669Y145261D01*
X201635Y145414D01*
X202506Y145858D01*
X203197Y146549D01*
X203641Y147420D01*
X203794Y148386D01*
X210250Y137795D02*
X210106Y138797D01*
X209686Y139719D01*
X209023Y140484D01*
X208171Y141031D01*
X207199Y141317D01*
X206187D01*
X205215Y141031D01*
X204363Y140484D01*
X203700Y139719D01*
X203279Y138797D01*
X203135Y137795D01*
X203279Y136793D01*
X203700Y135872D01*
X204363Y135107D01*
X205215Y134559D01*
X206187Y134274D01*
X207199D01*
X208171Y134559D01*
X209023Y135107D01*
X209686Y135872D01*
X210106Y136793D01*
X210250Y137795D01*
X207731Y127205D02*
X207580Y128164D01*
X207141Y129031D01*
X206458Y129721D01*
X205596Y130168D01*
X204638Y130329D01*
X203678Y130188D01*
X202806Y129759D01*
X202109Y129083D01*
X201653Y128225D01*
X201483Y127269D01*
X189545Y135827D02*
X189955Y134837D01*
X189545Y135827D02*
X189955Y134837D01*
X237494Y117205D02*
X237342Y118170D01*
X236898Y119041D01*
X236207Y119732D01*
X235336Y120176D01*
X234370Y120329D01*
X233405Y120176D01*
X232534Y119732D01*
X231842Y119041D01*
X231399Y118170D01*
X231246Y117205D01*
X231399Y116239D01*
X231842Y115368D01*
X232534Y114677D01*
X233405Y114233D01*
X234370Y114080D01*
X235336Y114233D01*
X236207Y114677D01*
X236898Y115368D01*
X237342Y116239D01*
X237494Y117205D01*
X234223Y94084D02*
X235117Y94171D01*
X235948Y94508D01*
X236650Y95068D01*
X237163Y95805D01*
X232883Y93108D02*
X233638Y93498D01*
X232883Y93108D02*
X233638Y93498D01*
X237494Y107205D02*
X237342Y108170D01*
X236898Y109041D01*
X236207Y109732D01*
X235336Y110176D01*
X234370Y110329D01*
X233405Y110176D01*
X232534Y109732D01*
X231842Y109041D01*
X231399Y108170D01*
X231246Y107205D01*
X231399Y106239D01*
X231842Y105368D01*
X232534Y104677D01*
X233405Y104233D01*
X234370Y104080D01*
X235336Y104233D01*
X236207Y104677D01*
X236898Y105368D01*
X237342Y106239D01*
X237494Y107205D01*
X237163Y98605D02*
X236587Y99406D01*
X235790Y99988D01*
X234851Y100292D01*
X233864Y100288D01*
X232928Y99976D01*
X232136Y99388D01*
X231566Y98583D01*
X231276Y97639D01*
X231295Y96653D01*
X231620Y95721D01*
X231294Y95478D01*
X231620Y95721D02*
X231294Y95478D01*
X205866Y122305D02*
X205456Y123295D01*
X205866Y122305D02*
X205456Y123295D01*
X207731Y117205D02*
X207601Y118095D01*
X207223Y118911D01*
X206629Y119586D01*
X205866Y120064D01*
X228065Y64961D02*
X227930Y65947D01*
X227533Y66860D01*
X226905Y67633D01*
X226091Y68207D01*
X225153Y68540D01*
X224160Y68608D01*
X223185Y68405D01*
X222301Y67947D01*
X221573Y67268D01*
X221056Y66417D01*
X220788Y65458D01*
Y64463D01*
X221056Y63504D01*
X221573Y62653D01*
X222301Y61974D01*
X223185Y61516D01*
X224160Y61313D01*
X225153Y61381D01*
X226091Y61715D01*
X226905Y62289D01*
X227533Y63061D01*
X227930Y63974D01*
X228065Y64961D01*
X238065D02*
X237930Y65947D01*
X237533Y66860D01*
X236905Y67633D01*
X236091Y68207D01*
X235153Y68540D01*
X234160Y68608D01*
X233185Y68405D01*
X232301Y67947D01*
X231574Y67268D01*
X231056Y66417D01*
X230788Y65458D01*
Y64463D01*
X231056Y63504D01*
X231574Y62653D01*
X232301Y61974D01*
X233185Y61516D01*
X234160Y61313D01*
X235153Y61381D01*
X236091Y61715D01*
X236905Y62289D01*
X237533Y63061D01*
X237930Y63974D01*
X238065Y64961D01*
X214567Y75372D02*
X215557Y75782D01*
X214567Y75372D02*
X215557Y75782D01*
X204671Y124081D02*
X205621Y124249D01*
X206474Y124700D01*
X207149Y125389D01*
X207582Y126251D01*
X207731Y127205D01*
X203066Y119923D02*
X202342Y119357D01*
X201813Y118605D01*
Y115805D02*
X202428Y114965D01*
X203284Y114374D01*
X204287Y114097D01*
X205326Y114164D01*
X206284Y114569D01*
X207057Y115266D01*
X207557Y116179D01*
X207731Y117205D01*
Y107205D02*
X207578Y108170D01*
X207134Y109041D01*
X206443Y109732D01*
X205572Y110176D01*
X204606Y110329D01*
X203641Y110176D01*
X202770Y109732D01*
X202079Y109041D01*
X201635Y108170D01*
X201482Y107205D01*
X201635Y106239D01*
X202079Y105368D01*
X202770Y104677D01*
X203641Y104233D01*
X204606Y104080D01*
X205572Y104233D01*
X206443Y104677D01*
X207134Y105368D01*
X207578Y106239D01*
X207731Y107205D01*
X187998Y123037D02*
X187008Y123447D01*
X187998Y123037D02*
X187008Y123447D01*
X190860Y116215D02*
X191850Y115805D01*
X190860Y116215D02*
X191850Y115805D01*
X171459Y114715D02*
X172329Y114250D01*
X173301Y114081D01*
X174277Y114222D01*
X175161Y114661D01*
X175864Y115354D01*
X176315Y116231D01*
X176471Y117205D01*
X176304Y118212D01*
X175821Y119112D01*
X175074Y119808D01*
X174141Y120226D01*
X173125Y120321D01*
X172131Y120083D01*
X171268Y119537D01*
X170627Y118742D01*
X170276Y117783D01*
X170254Y116762D01*
X176471Y107205D02*
X176318Y108170D01*
X175874Y109041D01*
X175183Y109732D01*
X174312Y110176D01*
X173346Y110329D01*
X172381Y110176D01*
X171510Y109732D01*
X170819Y109041D01*
X170375Y108170D01*
X170222Y107205D01*
X170375Y106239D01*
X170819Y105368D01*
X171510Y104677D01*
X172381Y104233D01*
X173346Y104080D01*
X174312Y104233D01*
X175183Y104677D01*
X175874Y105368D01*
X176318Y106239D01*
X176471Y107205D01*
X207731Y97205D02*
X207578Y98170D01*
X207134Y99041D01*
X206443Y99732D01*
X205572Y100176D01*
X204606Y100329D01*
X203641Y100176D01*
X202770Y99732D01*
X202079Y99041D01*
X201635Y98170D01*
X201482Y97205D01*
X201635Y96239D01*
X202079Y95368D01*
X202770Y94677D01*
X203641Y94233D01*
X204606Y94080D01*
X205572Y94233D01*
X206443Y94677D01*
X207134Y95368D01*
X207578Y96239D01*
X207731Y97205D01*
X176312Y98187D02*
X175846Y99079D01*
X175121Y99776D01*
X174212Y100207D01*
X173212Y100326D01*
X172227Y100122D01*
X171358Y99615D01*
X170695Y98858D01*
X170307Y97929D01*
X170235Y96926D01*
X170485Y95951D01*
X171031Y95107D01*
X171818Y94479D01*
X172764Y94135D01*
X173770Y94109D01*
X174732Y94404D01*
X175550Y94990D01*
X194758Y75782D02*
X195748Y75372D01*
X194758Y75782D02*
X195748Y75372D01*
X178754Y84646D02*
X178610Y85648D01*
X178190Y86569D01*
X177526Y87334D01*
X176675Y87882D01*
X175703Y88167D01*
X174691D01*
X173719Y87882D01*
X172867Y87334D01*
X172204Y86569D01*
X171783Y85648D01*
X171639Y84646D01*
X171783Y83643D01*
X172204Y82722D01*
X172867Y81957D01*
X173719Y81410D01*
X174691Y81124D01*
X175703D01*
X176675Y81410D01*
X177526Y81957D01*
X178190Y82722D01*
X178610Y83643D01*
X178754Y84646D01*
X166943Y338583D02*
X166799Y339585D01*
X166379Y340506D01*
X165716Y341271D01*
X164864Y341819D01*
X163892Y342104D01*
X162880D01*
X161908Y341819D01*
X161056Y341271D01*
X160393Y340506D01*
X159972Y339585D01*
X159828Y338583D01*
X159972Y337580D01*
X160393Y336659D01*
X161056Y335894D01*
X161908Y335347D01*
X162880Y335061D01*
X163892D01*
X164864Y335347D01*
X165716Y335894D01*
X166379Y336659D01*
X166799Y337580D01*
X166943Y338583D01*
X166628Y312087D02*
X166475Y313052D01*
X166032Y313923D01*
X165340Y314614D01*
X164469Y315058D01*
X163504Y315211D01*
X162538Y315058D01*
X161668Y314614D01*
X160976Y313923D01*
X160532Y313052D01*
X160380Y312087D01*
X160532Y311121D01*
X160976Y310250D01*
X161668Y309559D01*
X162538Y309115D01*
X163504Y308962D01*
X164469Y309115D01*
X165340Y309559D01*
X166032Y310250D01*
X166475Y311121D01*
X166628Y312087D01*
X161288Y305929D02*
X160472Y306268D01*
X161286Y305931D02*
X160472Y306268D01*
X166371Y300846D02*
X166628Y302087D01*
X166460Y303099D01*
X165973Y304002D01*
X165219Y304698D01*
X164281Y305113D01*
X163259Y305201D01*
X162263Y304954D01*
X166628Y292087D02*
X166476Y293050D01*
X166034Y293920D01*
X165345Y294611D01*
X164477Y295056D01*
X163514Y295211D01*
X162550Y295062D01*
X161679Y294623D01*
X160986Y293936D01*
X160538Y293069D01*
X160962Y290269D02*
X161651Y289571D01*
X162522Y289121D01*
X163489Y288962D01*
X164458Y289111D01*
X165333Y289554D01*
X166028Y290245D01*
X166474Y291118D01*
X166628Y292087D01*
X160637Y303328D02*
X160387Y302297D01*
X160496Y301242D01*
X160952Y300284D01*
X161702Y299534D01*
X162659Y299078D01*
X163714Y298969D01*
X164745Y299219D01*
X159780Y293069D02*
X158790Y292659D01*
X159780Y293069D02*
X158790Y292659D01*
X144164Y348425D02*
X144015Y349558D01*
X143580Y350615D01*
X138945Y344102D02*
X139907Y344027D01*
X140862Y344165D01*
X141765Y344507D01*
X142571Y345037D01*
X143242Y345730D01*
X143746Y346553D01*
X144058Y347466D01*
X144164Y348425D01*
X141954Y352241D02*
X141063Y352629D01*
X140110Y352812D01*
X139139Y352781D01*
X138199Y352537D01*
X137335Y352094D01*
X136589Y351472D01*
X135998Y350702D01*
X135591Y349820D01*
X135386Y348871D01*
X135395Y347900D01*
X135617Y346955D01*
X136040Y346081D01*
X136645Y345321D01*
X151195Y340551D02*
X151051Y341553D01*
X150630Y342475D01*
X149968Y343240D01*
X149116Y343787D01*
X148144Y344073D01*
X147132D01*
X146160Y343787D01*
X145308Y343240D01*
X144645Y342475D01*
X144224Y341553D01*
X144080Y340551D01*
X144224Y339549D01*
X144645Y338628D01*
X145308Y337863D01*
X146160Y337315D01*
X147132Y337030D01*
X148144D01*
X149116Y337315D01*
X149968Y337863D01*
X150630Y338628D01*
X151051Y339549D01*
X151195Y340551D01*
X138606Y337767D02*
X138945Y338583D01*
X138608Y337770D02*
X138945Y338583D01*
X149227Y295276D02*
X149083Y296278D01*
X148662Y297199D01*
X147999Y297964D01*
X147147Y298512D01*
X146176Y298797D01*
X145163D01*
X144192Y298512D01*
X143340Y297964D01*
X142676Y297199D01*
X142256Y296278D01*
X142112Y295276D01*
X142256Y294273D01*
X142676Y293352D01*
X143340Y292587D01*
X144192Y292040D01*
X145163Y291754D01*
X146176D01*
X147147Y292040D01*
X147999Y292587D01*
X148662Y293352D01*
X149083Y294273D01*
X149227Y295276D01*
X158120Y263945D02*
X157307Y263608D01*
X158120Y263945D02*
X157305Y263606D01*
X155167Y258693D02*
X155983Y259032D01*
X155167Y258693D02*
X155981Y259029D01*
X167638Y193482D02*
X168628Y193892D01*
X167638Y193482D02*
X168628Y193892D01*
X168890Y203981D02*
X167973Y204285D01*
X167007Y204331D01*
X166065Y204115D01*
X165216Y203654D01*
X164522Y202981D01*
X164035Y202147D01*
X163791Y201212D01*
X163807Y200245D01*
X164083Y199319D01*
X164597Y198501D01*
X165313Y197852D01*
X166177Y197419D01*
X167126Y197235D01*
X168089Y197313D01*
X148788Y214567D02*
X148451Y215380D01*
X149719Y208661D02*
X149471Y209646D01*
X148788Y210396D01*
Y214567D02*
X148449Y215382D01*
X146488Y210396D02*
X145839Y209708D01*
X145562Y208803D01*
X145713Y207870D01*
X146263Y207100D01*
X147096Y206652D01*
X148041Y206620D01*
X148903Y207009D01*
X149504Y207740D01*
X149719Y208661D01*
X161320Y192095D02*
X160507Y191758D01*
X161320Y192095D02*
X160504Y191756D01*
X143701Y274190D02*
X144691Y274601D01*
X143701Y274190D02*
X144691Y274601D01*
X128991Y255157D02*
X128838Y256123D01*
X128394Y256994D01*
X127703Y257685D01*
X126832Y258129D01*
X125866Y258282D01*
X124901Y258129D01*
X124030Y257685D01*
X123338Y256994D01*
X122895Y256123D01*
X122742Y255157D01*
X122895Y254192D01*
X123338Y253321D01*
X124030Y252630D01*
X124901Y252186D01*
X125866Y252033D01*
X126832Y252186D01*
X127703Y252630D01*
X128394Y253321D01*
X128838Y254192D01*
X128991Y255157D01*
Y245158D02*
X128817Y246184D01*
X128315Y247097D01*
X127542Y247795D01*
X126582Y248199D01*
X125543Y248265D01*
X124539Y247986D01*
X123683Y247393D01*
X123070Y246551D01*
X122767Y245554D01*
X122809Y244514D01*
X130519Y242713D02*
X129529Y242303D01*
X130519Y242713D02*
X129529Y242303D01*
X129170Y238565D02*
X130160Y238975D01*
X129170Y238565D02*
X130160Y238975D01*
X124117Y242569D02*
X124987Y242159D01*
X125942Y242034D01*
X126889Y242205D01*
X127739Y242657D01*
X128411Y243346D01*
X128842Y244206D01*
X128991Y245158D01*
X128976Y234855D02*
X128991Y235157D01*
X128799Y236235D01*
X128247Y237181D01*
X127402Y237878D01*
X126370Y238241D01*
X128991Y225157D02*
X128838Y226123D01*
X128394Y226994D01*
X127703Y227685D01*
X126832Y228129D01*
X125866Y228282D01*
X124901Y228129D01*
X124030Y227685D01*
X123338Y226994D01*
X122895Y226123D01*
X122742Y225157D01*
X122895Y224192D01*
X123338Y223321D01*
X124030Y222630D01*
X124901Y222186D01*
X125866Y222033D01*
X126832Y222186D01*
X127703Y222630D01*
X128394Y223321D01*
X128838Y224192D01*
X128991Y225157D01*
X127022Y312244D02*
X126869Y313210D01*
X126425Y314081D01*
X125734Y314772D01*
X124863Y315216D01*
X123898Y315369D01*
X122932Y315216D01*
X122061Y314772D01*
X121370Y314081D01*
X120926Y313210D01*
X120773Y312244D01*
X120926Y311279D01*
X121370Y310408D01*
X122061Y309716D01*
X122932Y309273D01*
X123898Y309120D01*
X124863Y309273D01*
X125734Y309716D01*
X126425Y310408D01*
X126869Y311279D01*
X127022Y312244D01*
Y302244D02*
X126869Y303210D01*
X126425Y304081D01*
X125734Y304772D01*
X124863Y305216D01*
X123898Y305368D01*
X122932Y305216D01*
X122061Y304772D01*
X121370Y304081D01*
X120926Y303210D01*
X120773Y302244D01*
X120926Y301279D01*
X121370Y300408D01*
X122061Y299716D01*
X122932Y299273D01*
X123898Y299120D01*
X124863Y299273D01*
X125734Y299716D01*
X126425Y300408D01*
X126869Y301279D01*
X127022Y302244D01*
Y292244D02*
X126869Y293210D01*
X126425Y294081D01*
X125734Y294772D01*
X124863Y295216D01*
X123898Y295369D01*
X122932Y295216D01*
X122061Y294772D01*
X121370Y294081D01*
X120926Y293210D01*
X120773Y292244D01*
X120926Y291279D01*
X121370Y290408D01*
X122061Y289716D01*
X122932Y289273D01*
X123898Y289120D01*
X124863Y289273D01*
X125734Y289716D01*
X126425Y290408D01*
X126869Y291279D01*
X127022Y292244D01*
X95762Y302244D02*
X95609Y303210D01*
X95165Y304081D01*
X94474Y304772D01*
X93603Y305216D01*
X92638Y305368D01*
X91672Y305216D01*
X90801Y304772D01*
X90110Y304081D01*
X89666Y303210D01*
X89513Y302244D01*
X89666Y301279D01*
X90110Y300408D01*
X90801Y299716D01*
X91672Y299273D01*
X92638Y299120D01*
X93603Y299273D01*
X94474Y299716D01*
X95165Y300408D01*
X95609Y301279D01*
X95762Y302244D01*
X127022Y282244D02*
X126869Y283210D01*
X126425Y284081D01*
X125734Y284772D01*
X124863Y285216D01*
X123898Y285368D01*
X122932Y285216D01*
X122061Y284772D01*
X121370Y284081D01*
X120926Y283210D01*
X120773Y282244D01*
X120926Y281279D01*
X121370Y280408D01*
X122061Y279716D01*
X122932Y279273D01*
X123898Y279120D01*
X124863Y279273D01*
X125734Y279716D01*
X126425Y280408D01*
X126869Y281279D01*
X127022Y282244D01*
X120973Y274601D02*
X121963Y274190D01*
X120973Y274601D02*
X121963Y274190D01*
X127573Y269685D02*
X127438Y270657D01*
X127042Y271555D01*
X126416Y272311D01*
X125607Y272867D01*
X124677Y273181D01*
X123697Y273228D01*
X122741Y273006D01*
X121882Y272532D01*
X121185Y271840D01*
X120704Y270985D01*
X120475Y270031D01*
X120515Y269050D01*
X120822Y268118D01*
X122449Y266491D02*
X123426Y266177D01*
X124452Y266154D01*
X125442Y266426D01*
X126313Y266969D01*
X126993Y267738D01*
X127425Y268669D01*
X127573Y269685D01*
X116299Y283234D02*
X115309Y283644D01*
X116299Y283234D02*
X115309Y283644D01*
X95431D02*
X94860Y284440D01*
X94070Y285021D01*
X93140Y285328D01*
X92160Y285332D01*
X91227Y285032D01*
X90433Y284458D01*
X89856Y283666D01*
X89552Y282734D01*
Y281754D01*
X89856Y280822D01*
X90433Y280030D01*
X91227Y279456D01*
X92160Y279156D01*
X93140Y279160D01*
X94070Y279467D01*
X94860Y280048D01*
X95431Y280844D01*
X96077Y340551D02*
X95933Y341553D01*
X95512Y342475D01*
X94849Y343240D01*
X93998Y343787D01*
X93026Y344072D01*
X92013D01*
X91042Y343787D01*
X90190Y343240D01*
X89527Y342475D01*
X89106Y341553D01*
X88962Y340551D01*
X89106Y339549D01*
X89527Y338628D01*
X90190Y337863D01*
X91042Y337315D01*
X92013Y337030D01*
X93026D01*
X93998Y337315D01*
X94849Y337863D01*
X95512Y338628D01*
X95933Y339549D01*
X96077Y340551D01*
Y328740D02*
X95933Y329742D01*
X95512Y330663D01*
X94849Y331429D01*
X93998Y331976D01*
X93026Y332261D01*
X92013D01*
X91042Y331976D01*
X90190Y331429D01*
X89527Y330663D01*
X89106Y329742D01*
X88962Y328740D01*
X89106Y327738D01*
X89527Y326817D01*
X90190Y326052D01*
X91042Y325504D01*
X92013Y325219D01*
X93026D01*
X93998Y325504D01*
X94849Y326052D01*
X95512Y326817D01*
X95933Y327738D01*
X96077Y328740D01*
X95762Y292244D02*
X95609Y293210D01*
X95165Y294081D01*
X94474Y294772D01*
X93603Y295216D01*
X92638Y295369D01*
X91672Y295216D01*
X90801Y294772D01*
X90110Y294081D01*
X89666Y293210D01*
X89513Y292244D01*
X89666Y291279D01*
X90110Y290408D01*
X90801Y289716D01*
X91672Y289273D01*
X92638Y289120D01*
X93603Y289273D01*
X94474Y289716D01*
X95165Y290408D01*
X95609Y291279D01*
X95762Y292244D01*
X84061Y299213D02*
X83994Y300205D01*
X83791Y301179D01*
X83458Y302117D01*
X83000Y303000D01*
X82426Y303813D01*
X81747Y304540D01*
X80976Y305168D01*
X80125Y305685D01*
X79213Y306082D01*
X78255Y306350D01*
X77269Y306485D01*
X76274D01*
X75288Y306350D01*
X74331Y306082D01*
X73418Y305685D01*
X72568Y305168D01*
X71796Y304540D01*
X71117Y303813D01*
X70543Y303000D01*
X70085Y302117D01*
X69752Y301179D01*
X69550Y300205D01*
X69482Y299213D01*
X69550Y298220D01*
X69752Y297246D01*
X70085Y296308D01*
X70543Y295425D01*
X71117Y294612D01*
X71796Y293885D01*
X72568Y293257D01*
X73418Y292740D01*
X74330Y292344D01*
X75288Y292075D01*
X76274Y291940D01*
X77269Y291940D01*
X78255Y292075D01*
X79213Y292344D01*
X80125Y292740D01*
X80976Y293257D01*
X81747Y293885D01*
X82426Y294612D01*
X83000Y295425D01*
X83458Y296308D01*
X83791Y297246D01*
X83994Y298220D01*
X84061Y299213D01*
X126113Y241365D02*
X125123Y240954D01*
X126113Y241365D02*
X125123Y240954D01*
X122783Y234654D02*
X123068Y233768D01*
X123601Y233005D01*
X124336Y232433D01*
X125206Y232103D01*
X126136Y232045D01*
X127041Y232262D01*
X127842Y232737D01*
X115152Y230983D02*
X114742Y229993D01*
X109488Y254008D02*
X110303Y254346D01*
X109488Y254008D02*
X110301Y254344D01*
X97731Y245158D02*
X97593Y246076D01*
X97190Y246914D01*
X96560Y247596D01*
X95756Y248063D01*
X115152Y230983D02*
X114742Y229993D01*
X124128Y208661D02*
X123890Y209629D01*
X123229Y210374D01*
X122298Y210727D01*
X121309Y210607D01*
X120490Y210041D01*
X120027Y209159D01*
Y208163D01*
X120490Y207281D01*
X121309Y206716D01*
X122298Y206595D01*
X123229Y206949D01*
X123890Y207694D01*
X124128Y208661D01*
X118223D02*
X118045Y209503D01*
X117542Y210201D01*
X117973Y193892D02*
X118963Y193482D01*
X117973Y193892D02*
X118963Y193482D01*
X114742Y210201D02*
X114177Y209348D01*
X114087Y208328D01*
X114495Y207389D01*
X115300Y206758D01*
X116309Y206587D01*
X117277Y206917D01*
X117971Y207669D01*
X118223Y208661D01*
X108268Y227197D02*
X109083Y227535D01*
X108268Y227197D02*
X109081Y227533D01*
X97731Y225157D02*
X97535Y226245D01*
X96974Y227197D01*
X111636Y207122D02*
X112139Y207820D01*
X112317Y208661D01*
X112066Y209653D01*
X111372Y210405D01*
X110403Y210736D01*
X109394Y210565D01*
X108589Y209933D01*
X108182Y208994D01*
X108272Y207975D01*
X108836Y207122D01*
Y203608D02*
X109246Y202618D01*
X108836Y203608D02*
X109246Y202618D01*
X93456Y248063D02*
X92626Y247574D01*
X91983Y246855D01*
X91591Y245975D01*
X91485Y245017D01*
X91676Y244073D01*
X92146Y243232D01*
X92850Y242573D01*
X93721Y242161D01*
X94676Y242034D01*
X95625Y242204D01*
X96477Y242655D01*
X97150Y243344D01*
X97582Y244205D01*
X97731Y245158D01*
Y235157D02*
X97578Y236123D01*
X97134Y236994D01*
X96443Y237685D01*
X95572Y238129D01*
X94606Y238282D01*
X93641Y238129D01*
X92770Y237685D01*
X92079Y236994D01*
X91635Y236123D01*
X91482Y235157D01*
X91635Y234192D01*
X92079Y233321D01*
X92770Y232630D01*
X93641Y232186D01*
X94606Y232033D01*
X95572Y232186D01*
X96443Y232630D01*
X97134Y233321D01*
X97578Y234192D01*
X97731Y235157D01*
X92239Y227197D02*
X91716Y226345D01*
X91489Y225373D01*
X91581Y224378D01*
X91981Y223463D01*
X92650Y222721D01*
X93519Y222228D01*
X94499Y222035D01*
X95490Y222161D01*
X96390Y222592D01*
X97109Y223286D01*
X97571Y224171D01*
X97731Y225157D01*
X87764Y220706D02*
X88448Y221457D01*
X88695Y222441D01*
X88480Y223362D01*
X87880Y224093D01*
X87018Y224482D01*
X86072Y224450D01*
X85239Y224003D01*
X84690Y223233D01*
X84538Y222299D01*
X84815Y221395D01*
X85464Y220706D01*
X82677Y229497D02*
X81864Y229160D01*
X82677Y229497D02*
X81862Y229157D01*
X82298Y224409D02*
X82205Y225214D01*
X81934Y225977D01*
X79890Y221043D02*
X80863Y221555D01*
X81634Y222340D01*
X82128Y223323D01*
X82298Y224409D01*
X80307Y227603D02*
X79391Y227907D01*
X78426Y227953D01*
X77484Y227738D01*
X76635Y227277D01*
X75941Y226605D01*
X75454Y225771D01*
X75208Y224836D01*
X75224Y223870D01*
X75498Y222944D01*
X76012Y222126D01*
X76727Y221477D01*
X77590Y221043D01*
X91701Y204724D02*
X91362Y205540D01*
X91701Y204724D02*
X91364Y205538D01*
X85464Y208661D02*
X85801Y207848D01*
X85464Y208661D02*
X85803Y207846D01*
X172534Y168386D02*
X172381Y169351D01*
X171937Y170222D01*
X171246Y170914D01*
X170375Y171357D01*
X169409Y171510D01*
X168444Y171357D01*
X167573Y170914D01*
X166882Y170222D01*
X166438Y169351D01*
X166285Y168386D01*
X166438Y167420D01*
X166882Y166549D01*
X167573Y165858D01*
X168444Y165414D01*
X169409Y165261D01*
X170375Y165414D01*
X171246Y165858D01*
X171937Y166549D01*
X172381Y167420D01*
X172534Y168386D01*
X154701Y185952D02*
X154362Y185137D01*
X154699Y185950D02*
X154362Y185137D01*
Y184469D02*
X153494Y184032D01*
X152777Y183377D01*
X152263Y182552D01*
X151992Y181619D01*
X151983Y180648D01*
X152238Y179710D01*
X152737Y178876D01*
X153443Y178209D01*
X154303Y177757D01*
X155253Y177554D01*
X156222Y177617D01*
X157139Y177939D01*
X157934Y178497D01*
X158549Y179249D01*
X158937Y180140D01*
X159069Y181102D01*
Y169291D02*
X158925Y170294D01*
X158505Y171215D01*
X157842Y171980D01*
X156990Y172527D01*
X156018Y172813D01*
X155006D01*
X154034Y172527D01*
X153182Y171980D01*
X152519Y171215D01*
X152098Y170294D01*
X151954Y169291D01*
X152098Y168289D01*
X152519Y167368D01*
X153182Y166603D01*
X154034Y166055D01*
X155006Y165770D01*
X156018D01*
X156990Y166055D01*
X157842Y166603D01*
X158505Y167368D01*
X158925Y168289D01*
X159069Y169291D01*
Y181102D02*
X158899Y182189D01*
X158405Y183172D01*
X157635Y183957D01*
X156662Y184469D01*
X144514Y168136D02*
X143701Y168473D01*
X144516Y168134D02*
X143701Y168473D01*
X160262Y164199D02*
X159449Y164536D01*
X160264Y164197D02*
X159449Y164536D01*
X146823Y162575D02*
X147638Y162236D01*
X146825Y162573D02*
X147638Y162236D01*
X172534Y158386D02*
X172381Y159351D01*
X171937Y160222D01*
X171246Y160914D01*
X170375Y161357D01*
X169409Y161510D01*
X168444Y161357D01*
X167573Y160914D01*
X166882Y160222D01*
X166438Y159351D01*
X166285Y158386D01*
X166438Y157420D01*
X166882Y156549D01*
X167573Y155858D01*
X168444Y155414D01*
X169409Y155261D01*
X170375Y155414D01*
X171246Y155858D01*
X171937Y156549D01*
X172381Y157420D01*
X172534Y158386D01*
X164536Y159449D02*
X164199Y160262D01*
X164536Y159449D02*
X164197Y160264D01*
X172534Y148386D02*
X172381Y149351D01*
X171937Y150222D01*
X171246Y150914D01*
X170375Y151357D01*
X169409Y151510D01*
X168444Y151357D01*
X167573Y150914D01*
X166882Y150222D01*
X166438Y149351D01*
X166285Y148386D01*
X166438Y147420D01*
X166882Y146549D01*
X167573Y145858D01*
X168444Y145414D01*
X169409Y145261D01*
X170375Y145414D01*
X171246Y145858D01*
X171937Y146549D01*
X172381Y147420D01*
X172534Y148386D01*
X127140Y166510D02*
X127953Y166173D01*
X127137Y166512D02*
X127953Y166173D01*
X126797Y170105D02*
X125984Y170441D01*
X126799Y170102D02*
X125984Y170441D01*
X123636Y157480D02*
X123482Y158517D01*
X123032Y159463D01*
X122327Y160238D01*
X121426Y160773D01*
X120408Y161022D01*
X119362Y160965D01*
X118378Y160605D01*
X117542Y159974D01*
X121679Y154303D02*
X122484Y154859D01*
X123108Y155614D01*
X123502Y156510D01*
X123636Y157480D01*
X123197Y152308D02*
X122858Y153123D01*
X123197Y152308D02*
X122860Y153121D01*
X141304Y143132D02*
X140482Y143686D01*
X139497Y143796D01*
X138573Y143439D01*
X137919Y142695D01*
X137683Y141732D01*
X137919Y140770D01*
X138573Y140026D01*
X139497Y139668D01*
X140482Y139779D01*
X141304Y140332D01*
X167323Y123447D02*
X166333Y123037D01*
X167323Y123447D02*
X166333Y123037D01*
X148066Y140332D02*
X148888Y139779D01*
X149873Y139668D01*
X150797Y140026D01*
X151452Y140770D01*
X151687Y141732D01*
X164199Y131077D02*
X164536Y131890D01*
X151687Y141732D02*
X151452Y142695D01*
X150797Y143439D01*
X149873Y143796D01*
X148888Y143686D01*
X148066Y143132D01*
X164197Y131075D02*
X164536Y131890D01*
X164543Y111051D02*
X164204Y110236D01*
X164541Y111049D02*
X164204Y110236D01*
X160161Y130291D02*
X159416Y130937D01*
X158522Y131354D01*
X157549Y131510D01*
X156570Y131392D01*
X155661Y131010D01*
X154891Y130393D01*
X154321Y129588D01*
X153993Y128658D01*
X153934Y127674D01*
X154147Y126711D01*
X154615Y125844D01*
X155305Y125138D01*
X156161Y124649D01*
X157118Y124414D01*
X158104Y124450D01*
X159041Y124756D01*
X159859Y125307D01*
X160494Y126062D01*
X160897Y126962D01*
X161038Y127938D01*
X166165Y97610D02*
X166504Y98425D01*
X166167Y97612D02*
X166504Y98425D01*
X161426Y93347D02*
X162241Y93686D01*
X161426Y93347D02*
X162239Y93684D01*
X143701Y97025D02*
X144691Y97435D01*
X143701Y97025D02*
X144691Y97435D01*
X129597Y122047D02*
X129450Y123019D01*
X129024Y123905D01*
X128355Y124625D01*
X127504Y125117D01*
X126546Y125336D01*
X125565Y125262D01*
X124650Y124903D01*
X123882Y124290D01*
X123328Y123478D01*
X123038Y122539D01*
Y121556D01*
X123328Y120616D01*
X123882Y119804D01*
X124650Y119191D01*
X125565Y118832D01*
X126546Y118759D01*
X127504Y118977D01*
X128355Y119469D01*
X129024Y120190D01*
X129450Y121075D01*
X129597Y122047D01*
X129127Y99825D02*
X128542Y100687D01*
X127717Y101322D01*
X126734Y101669D01*
X125693Y101692D01*
X124697Y101389D01*
X123844Y100791D01*
X123221Y99956D01*
X122860Y126982D02*
X123197Y127795D01*
X122858Y126980D02*
X123197Y127795D01*
X121782Y97435D02*
X122772Y97025D01*
X119597Y122047D02*
X119298Y123419D01*
X114855Y119083D02*
X115760Y118794D01*
X116710Y118775D01*
X117626Y119028D01*
X118432Y119532D01*
X119061Y120245D01*
X119460Y121107D01*
X119597Y122047D01*
X119439Y98425D02*
X119234Y99572D01*
X118642Y100575D01*
X121782Y97435D02*
X122772Y97025D01*
X113143Y99797D02*
X112873Y98858D01*
X112889Y97881D01*
X113192Y96951D01*
X113754Y96151D01*
X114526Y95551D01*
X115439Y95203D01*
X116415Y95139D01*
X117367Y95363D01*
X118210Y95857D01*
X118872Y96576D01*
X119295Y97458D01*
X119439Y98425D01*
X123156Y97025D02*
X123756Y96149D01*
X124603Y95508D01*
X125611Y95171D01*
X126673D01*
X127680Y95508D01*
X128527Y96149D01*
X129127Y97025D01*
X129439Y74803D02*
X129293Y75775D01*
X128866Y76661D01*
X128198Y77381D01*
X127347Y77873D01*
X126388Y78092D01*
X125408Y78018D01*
X124493Y77659D01*
X123724Y77046D01*
X123171Y76234D01*
X122881Y75295D01*
Y74312D01*
X123171Y73372D01*
X123724Y72560D01*
X124493Y71947D01*
X125408Y71588D01*
X126388Y71515D01*
X127347Y71733D01*
X128198Y72225D01*
X128866Y72945D01*
X129293Y73831D01*
X129439Y74803D01*
X119439D02*
X119293Y75775D01*
X118866Y76661D01*
X118198Y77381D01*
X117347Y77873D01*
X116388Y78092D01*
X115408Y78018D01*
X114493Y77659D01*
X113724Y77046D01*
X113171Y76234D01*
X112881Y75295D01*
Y74312D01*
X113171Y73372D01*
X113724Y72560D01*
X114493Y71947D01*
X115408Y71588D01*
X116388Y71515D01*
X117347Y71733D01*
X118198Y72225D01*
X118866Y72945D01*
X119293Y73831D01*
X119439Y74803D01*
X117542Y161417D02*
X117132Y162407D01*
X117542Y161417D02*
X117132Y162407D01*
X107987Y173228D02*
X107855Y174199D01*
X107471Y175100D01*
X106862Y175866D01*
X106071Y176444D01*
X105155Y176790D01*
X104180Y176881D01*
X103216Y176710D01*
X102331Y176289D01*
X101591Y175649D01*
X101047Y174835D01*
X100738Y173905D01*
X100687Y172927D01*
X100898Y171971D01*
X101355Y171105D01*
X102025Y170391D01*
X102861Y169881D01*
X103803Y169611D01*
X104782Y169600D01*
X105729Y169850D01*
X107709Y171830D02*
X107987Y173228D01*
X107526Y167015D02*
X106755Y167495D01*
X105919Y167849D01*
X105038Y168068D01*
X104134Y168146D01*
X103228Y168083D01*
X111386Y161417D02*
X111047Y162233D01*
X111386Y161417D02*
X111049Y162230D01*
X109378Y163902D02*
X109160Y164804D01*
X108767Y165646D01*
X108215Y166392D01*
X107526Y167015D01*
X102007Y166051D02*
X101371Y165374D01*
X100925Y164557D01*
X100700Y163655D01*
X100710Y162725D01*
X100954Y161828D01*
X101416Y161021D01*
X102067Y160357D01*
X118941Y154110D02*
X119266Y153463D01*
X117542Y154987D02*
X118190Y154466D01*
X118941Y154110D01*
X119268Y153461D01*
X104867Y159612D02*
X105859Y159907D01*
X106728Y160468D01*
X107405Y161250D01*
X107836Y162191D01*
X104457Y158301D02*
X104867Y159291D01*
X104457Y158301D02*
X104867Y159291D01*
X89401Y179134D02*
X89740Y178319D01*
X89401Y179134D02*
X89738Y178321D01*
X79551Y180287D02*
X79890Y181102D01*
X79553Y180289D02*
X79890Y181102D01*
X73992Y177981D02*
X73653Y177165D01*
X73990Y177979D02*
X73653Y177165D01*
X85430Y143234D02*
X84461Y143316D01*
X83507Y143134D01*
X82637Y142700D01*
X81917Y142046D01*
X81401Y141222D01*
X81127Y140289D01*
X81116Y139317D01*
X81369Y138378D01*
X81867Y137543D01*
X82572Y136873D01*
X83432Y136420D01*
X84382Y136216D01*
X85353Y136277D01*
X86270Y136599D01*
X87066Y137157D01*
X87682Y137909D01*
X88070Y138801D01*
X88203Y139764D01*
X117132Y125705D02*
X117542Y126695D01*
X117132Y125705D02*
X117542Y126695D01*
X117671Y125046D02*
X116742Y125315D01*
X112055Y107743D02*
X112465Y106753D01*
X112055Y107743D02*
X112465Y106753D01*
X111912Y124444D02*
X111502Y123455D01*
X111912Y124444D02*
X111502Y123455D01*
X88203Y139764D02*
X88079Y140694D01*
X87716Y141560D01*
X111502Y120640D02*
X111912Y119650D01*
X111502Y120640D02*
X111912Y119650D01*
X118291Y100926D02*
X117502Y101429D01*
X116603Y101690D01*
X115667Y101689D01*
X114769Y101424D01*
X109086Y104331D02*
X109425Y103515D01*
X109086Y104331D02*
X109423Y103517D01*
X73653Y102362D02*
X73990Y101549D01*
X73653Y102362D02*
X73992Y101547D01*
X88203Y57087D02*
X88059Y58089D01*
X87638Y59010D01*
X86975Y59775D01*
X86124Y60323D01*
X85152Y60608D01*
X84139D01*
X83168Y60323D01*
X82316Y59775D01*
X81653Y59010D01*
X81232Y58089D01*
X81088Y57087D01*
X81232Y56084D01*
X81653Y55163D01*
X82316Y54398D01*
X83168Y53851D01*
X84139Y53565D01*
X85152D01*
X86124Y53851D01*
X86975Y54398D01*
X87638Y55163D01*
X88059Y56084D01*
X88203Y57087D01*
X295356Y472441D02*
X299388Y468409D01*
X295861Y467348D02*
X300954Y472441D01*
X291459D02*
X296281Y467619D01*
X303151Y472441D02*
X305118Y470474D01*
X303167Y466860D02*
X305118Y468811D01*
X300643Y468233D02*
X304851Y472441D01*
X277138Y468113D02*
X281466Y472441D01*
X279766D02*
X284761Y467446D01*
X271971Y472441D02*
X276326Y468086D01*
X288458Y467740D02*
X293159Y472441D01*
X283664D02*
X288280Y467825D01*
X299253Y472441D02*
X305118Y466576D01*
X290245Y465630D02*
X297056Y472441D01*
X287561D02*
X294298Y465704D01*
X290108Y465997D02*
X293400Y462704D01*
X279665Y466742D02*
X285364Y472441D01*
X280206Y463386D02*
X289261Y472441D01*
X275869D02*
X283318Y464991D01*
X260279Y472441D02*
X265072Y467648D01*
X264823Y467490D02*
X269774Y472441D01*
X259875Y466440D02*
X265876Y472441D01*
X268784Y467553D02*
X273671Y472441D01*
X268074D02*
X273924Y466590D01*
X249081Y467338D02*
X254184Y472441D01*
X248587D02*
X254148Y466880D01*
X245817Y467971D02*
X250287Y472441D01*
X257586Y468048D02*
X261979Y472441D01*
X252484D02*
X256801Y468124D01*
X270347Y465220D02*
X277569Y472441D01*
X264176D02*
X273697Y462920D01*
X260742Y432230D02*
X294463Y465950D01*
X237904Y440571D02*
X263927Y466594D01*
X256381Y472441D02*
X263398Y465424D01*
X250402Y464762D02*
X258082Y472441D01*
X244689D02*
X253391Y463739D01*
X289730Y462477D02*
X305118Y447089D01*
X287275Y461035D02*
X305118Y443191D01*
X280369Y464043D02*
X305118Y439294D01*
X302318Y457684D02*
X305118Y454884D01*
X299319Y456786D02*
X305118Y450986D01*
X304706Y464501D02*
X305118Y464913D01*
X260742Y436127D02*
X285787Y461172D01*
X260742Y440025D02*
X283677Y462959D01*
X304654Y460551D02*
X305118Y461016D01*
X304233Y459667D02*
X305118Y458781D01*
X269931Y462788D02*
X305118Y427602D01*
X260407Y464517D02*
X305118Y419807D01*
X259163Y461864D02*
X305118Y415909D01*
X275204Y461413D02*
X305118Y431499D01*
X267708Y461114D02*
X305118Y423704D01*
X278874Y461641D02*
X305118Y435397D01*
X260742Y424435D02*
X294951Y458644D01*
X260742Y428333D02*
X293578Y461168D01*
X260742Y424297D02*
Y440571D01*
X258388Y414286D02*
X301260Y457157D01*
X249596Y440571D02*
X273305Y464279D01*
X253494Y440571D02*
X274675Y461752D01*
X241801Y440571D02*
X263864Y462634D01*
X257391Y440571D02*
X278031Y461211D01*
X245699Y440571D02*
X266198Y461070D01*
X230244Y463501D02*
X253174Y440571D01*
X234006D02*
X254978Y461542D01*
X230109Y440571D02*
X253370Y463832D01*
X236626Y461017D02*
X257072Y440571D01*
X228456Y461392D02*
X249277Y440571D01*
X250593Y414286D02*
X260604Y424297D01*
X254491Y414286D02*
X297310Y457105D01*
X246696Y414286D02*
X256707Y424297D01*
X190339Y414286D02*
X260742D01*
X190339Y424297D02*
X260742D01*
X238901Y414286D02*
X248912Y424297D01*
X242166D02*
X252177Y414286D01*
X238269Y424297D02*
X248280Y414286D01*
X246064Y424297D02*
X256075Y414286D01*
X242798D02*
X252809Y424297D01*
X232997Y472441D02*
X237348Y468089D01*
X229352Y467096D02*
X234697Y472441D01*
X229099D02*
X234397Y467143D01*
X240792Y472441D02*
X245412Y467821D01*
X237988Y467938D02*
X242492Y472441D01*
X218354Y467791D02*
X223005Y472441D01*
X217407D02*
X223676Y466172D01*
X213509Y472441D02*
X218026Y467925D01*
X226462Y468103D02*
X230799Y472441D01*
X221304D02*
X225784Y467961D01*
X240057Y466108D02*
X246389Y472441D01*
X236894D02*
X243519Y465816D01*
X220208Y465742D02*
X245380Y440571D01*
X218417D02*
X243446Y465601D01*
X225202Y472441D02*
X233300Y464343D01*
X230393Y464239D02*
X238594Y472441D01*
X220207Y465746D02*
X226902Y472441D01*
X206993Y468122D02*
X211312Y472441D01*
X201817D02*
X206195Y468063D01*
X200321Y465347D02*
X207415Y472441D01*
X209612D02*
X214673Y467380D01*
X209597Y466828D02*
X215210Y472441D01*
X190125D02*
X194975Y467590D01*
X189815Y466534D02*
X195722Y472441D01*
X187456Y468072D02*
X191825Y472441D01*
X198689Y467613D02*
X203517Y472441D01*
X197920D02*
X203863Y466498D01*
X210277Y463611D02*
X219107Y472441D01*
X198929Y440571D02*
X223314Y464956D01*
X190402Y464369D02*
X214200Y440571D01*
X210622D02*
X233480Y463429D01*
X210347Y463911D02*
X233687Y440571D01*
X205715Y472441D02*
X213304Y464851D01*
X194022Y472441D02*
X203935Y462528D01*
X189878Y462699D02*
X199620Y472441D01*
X219664Y462389D02*
X241482Y440571D01*
X222314D02*
X244079Y462336D01*
X214519Y440571D02*
X235309Y461361D01*
X226211Y440571D02*
X246655Y461015D01*
X217135Y461021D02*
X237585Y440571D01*
X210987Y424297D02*
X220998Y414286D01*
X211619D02*
X221630Y424297D01*
X208781Y461579D02*
X229790Y440571D01*
X215516Y414286D02*
X225527Y424297D01*
X214884D02*
X224896Y414286D01*
X230474Y424297D02*
X240485Y414286D01*
X231106D02*
X241117Y424297D01*
X227209Y414286D02*
X237220Y424297D01*
X235003Y414286D02*
X245015Y424297D01*
X234372D02*
X244383Y414286D01*
X219414D02*
X229425Y424297D01*
X222679D02*
X232690Y414286D01*
X218782Y424297D02*
X228793Y414286D01*
X226577Y424297D02*
X236588Y414286D01*
X223311D02*
X233322Y424297D01*
X202827Y440571D02*
X224321Y462065D01*
X204811Y461652D02*
X225892Y440571D01*
X199874Y462692D02*
X221995Y440571D01*
X206724D02*
X227178Y461025D01*
X197583Y461086D02*
X218098Y440571D01*
X191134D02*
X213627Y463063D01*
X195032Y440571D02*
X215671Y461210D01*
X189079Y461794D02*
X210303Y440571D01*
X191875Y421824D02*
X194348Y424297D01*
X203192D02*
X213203Y414286D01*
X203824D02*
X213835Y424297D01*
X199926Y414286D02*
X209937Y424297D01*
X207721Y414286D02*
X217732Y424297D01*
X207089D02*
X217101Y414286D01*
X195397Y424297D02*
X205408Y414286D01*
X196029D02*
X206040Y424297D01*
X192263Y418315D02*
X198245Y424297D01*
X199295D02*
X209306Y414286D01*
X260742Y385461D02*
X305118Y429836D01*
X260742Y429105D02*
X305118Y384730D01*
X260742Y433003D02*
X305118Y388627D01*
X260742Y413516D02*
X305118Y369140D01*
X260742Y425208D02*
X305118Y380832D01*
X260742Y389358D02*
X305118Y433734D01*
X260742Y409618D02*
X300524Y369837D01*
X260742Y436900D02*
X305118Y392525D01*
X260742Y401823D02*
X294712Y367853D01*
X260742Y405721D02*
X296939Y369524D01*
X270104Y363643D02*
X305118Y398657D01*
Y358268D02*
Y472441D01*
X268100Y365536D02*
X305118Y402554D01*
X279164Y364907D02*
X305118Y390862D01*
X276024Y365665D02*
X305118Y394759D01*
X260742Y394029D02*
X289009Y365762D01*
X260742Y390131D02*
X285111Y365762D01*
X260742Y397926D02*
X293487Y365181D01*
X283916Y365762D02*
X305118Y386964D01*
X260742Y386234D02*
X283293Y363683D01*
X248099Y461236D02*
X305118Y404217D01*
X240373Y465065D02*
X305118Y400319D01*
X239427Y462114D02*
X305118Y396422D01*
X260742Y397153D02*
X305118Y441529D01*
X260742Y401050D02*
X305118Y445426D01*
X260742Y412743D02*
X305118Y457118D01*
X256023Y461107D02*
X305118Y412012D01*
X250104Y463129D02*
X305118Y408114D01*
X260742Y404948D02*
X305118Y449323D01*
X260742Y408845D02*
X305118Y453221D01*
X248456Y365379D02*
X305118Y422041D01*
X250244Y363270D02*
X305118Y418144D01*
X240208Y361028D02*
X305118Y425939D01*
X260373Y361706D02*
X305118Y406452D01*
X259427Y364658D02*
X305118Y410349D01*
X260742Y393255D02*
X305118Y437631D01*
X257756Y424297D02*
X305118Y376935D01*
X253859Y424297D02*
X305118Y373037D01*
X256627Y365755D02*
X305118Y414246D01*
X246460Y384927D02*
X265787Y365599D01*
X304413Y366772D02*
X305118Y367477D01*
X290408Y364459D02*
X305118Y379169D01*
X287814Y365762D02*
X305118Y383067D01*
X304876Y365484D02*
X305118Y365243D01*
X304563Y361900D02*
X305118Y361345D01*
X299803Y369957D02*
X305118Y375272D01*
X302624Y368880D02*
X305118Y371374D01*
X290408Y360562D02*
X293429Y363583D01*
X290408Y358647D02*
Y365762D01*
X292011Y358268D02*
X294505Y360762D01*
X303704Y358268D02*
X305118Y359682D01*
X290408Y364363D02*
X296503Y358268D01*
X302893Y359673D02*
X304298Y358268D01*
X295909D02*
X296614Y358973D01*
X284432Y358647D02*
X284811Y358268D01*
X290408Y360466D02*
X292606Y358268D01*
X284216D02*
X284596Y358647D01*
X288329D02*
X288708Y358268D01*
X288114D02*
X288493Y358647D01*
X283293Y365762D02*
X290408D01*
X283293Y358647D02*
Y365762D01*
X280408Y362254D02*
X283293Y365139D01*
Y358647D02*
X290408D01*
X280372Y362706D02*
X283293Y359786D01*
X258152Y384927D02*
X277352Y365727D01*
X254255Y384927D02*
X274399Y364783D01*
X250357Y384927D02*
X273300Y361984D01*
X279428Y359753D02*
X280914Y358268D01*
X280319D02*
X283293Y361242D01*
X272524Y358268D02*
X274148Y359891D01*
X276630Y358654D02*
X277016Y358268D01*
X276422D02*
X276801Y358648D01*
X268627Y358268D02*
X273390Y363031D01*
X270245Y361141D02*
X273119Y358268D01*
X260206Y363385D02*
X265324Y358268D01*
X268458Y359031D02*
X269221Y358268D01*
X264729D02*
X265412Y358951D01*
X249961Y424297D02*
X259972Y414286D01*
X260742Y384927D02*
Y414286D01*
X234767Y384927D02*
X254675Y365019D01*
X238665Y384927D02*
X258031Y365561D01*
X237135Y365751D02*
X256311Y384927D01*
X217583Y365686D02*
X236824Y384927D01*
X224814Y365121D02*
X244619Y384927D01*
X215280D02*
X234978Y365229D01*
X228782Y365192D02*
X248516Y384927D01*
X226972D02*
X246197Y365702D01*
X239664Y364382D02*
X260209Y384927D01*
X230870D02*
X253305Y362492D01*
X230347Y362860D02*
X252414Y384927D01*
X242562D02*
X263677Y363812D01*
X223075Y384927D02*
X243864Y364138D01*
X219874Y364079D02*
X240722Y384927D01*
X219178D02*
X243928Y360176D01*
X205812Y365607D02*
X225132Y384927D01*
X197986Y365576D02*
X217337Y384927D01*
X195793D02*
X215309Y365411D01*
X209080Y364977D02*
X229029Y384927D01*
X207485D02*
X226655Y365757D01*
X192131Y414286D02*
X202143Y424297D01*
X192324Y419576D02*
X197613Y414286D01*
X191500Y424297D02*
X201511Y414286D01*
X191692Y416310D02*
X193716Y414286D01*
X187998Y384927D02*
X207177Y365747D01*
X203588Y384927D02*
X224079Y364435D01*
X200056Y363748D02*
X221234Y384927D01*
X199690D02*
X223447Y361170D01*
X211383Y384927D02*
X233370Y362940D01*
X210402Y362403D02*
X232927Y384927D01*
X191895D02*
X213480Y363342D01*
X190393Y361880D02*
X213439Y384927D01*
X189351Y364736D02*
X209542Y384927D01*
X241345Y358268D02*
X243676Y360599D01*
X239875Y360332D02*
X241939Y358268D01*
X237585Y358724D02*
X238042Y358268D01*
X229652D02*
X233304Y361920D01*
X230402Y362009D02*
X234144Y358268D01*
X229081Y359433D02*
X230247Y358268D01*
X237447D02*
X238027Y358847D01*
X233550Y358268D02*
X234673Y359391D01*
X259665Y360029D02*
X261426Y358268D01*
X260832D02*
X263520Y360955D01*
X253037Y358268D02*
X254397Y359628D01*
X257138Y358659D02*
X257529Y358268D01*
X256934D02*
X257349Y358682D01*
X249139Y358268D02*
X253300Y362428D01*
X250347Y361552D02*
X253631Y358268D01*
X244822Y359282D02*
X245836Y358268D01*
X248783Y359218D02*
X249734Y358268D01*
X245242D02*
X245785Y358811D01*
X200207Y361026D02*
X202965Y358268D01*
X202370D02*
X204078Y359976D01*
X198473Y358268D02*
X203448Y363243D01*
X206461Y358669D02*
X206862Y358268D01*
X206267D02*
X206653Y358653D01*
X190277Y363160D02*
X195170Y358268D01*
X190678D02*
X193479Y361069D01*
X189597Y359943D02*
X191272Y358268D01*
X198354Y358981D02*
X199067Y358268D01*
X194575D02*
X195307Y358999D01*
X220057Y360663D02*
X222452Y358268D01*
X221857D02*
X223863Y360273D01*
X217960Y358268D02*
X223934Y364242D01*
X225816Y358801D02*
X226349Y358268D01*
X225755D02*
X226195Y358708D01*
X210165Y358268D02*
X213369Y361472D01*
X210393Y362532D02*
X214657Y358268D01*
X209352Y359675D02*
X210759Y358268D01*
X217988Y358834D02*
X218554Y358268D01*
X214062D02*
X214976Y359181D01*
X178995Y467406D02*
X184030Y472441D01*
X178995Y467406D02*
X184030Y472441D01*
X175582Y467891D02*
X180132Y472441D01*
X182330D02*
X186652Y468119D01*
X186228Y472441D02*
X193369Y465299D01*
X178433Y472441D02*
X184078Y466796D01*
X167871Y467975D02*
X172338Y472441D01*
X166740D02*
X173479Y465702D01*
X162843Y472441D02*
X167174Y468110D01*
X170638Y472441D02*
X175307Y467772D01*
X170005Y466211D02*
X176235Y472441D01*
X179442Y440571D02*
X203296Y464425D01*
X170393Y464891D02*
X194713Y440571D01*
X180055Y463023D02*
X202508Y440571D01*
X171647D02*
X193805Y462729D01*
X180392Y464905D02*
X187927Y472441D01*
X174535D02*
X183448Y463528D01*
X160404Y464405D02*
X168440Y472441D01*
X156283Y468079D02*
X160645Y472441D01*
X158946D02*
X164320Y467067D01*
X155048Y472441D02*
X163315Y464174D01*
X159273Y467172D02*
X164543Y472441D01*
X68898D02*
X305118D01*
X151151D02*
X155669Y467922D01*
X148248Y467838D02*
X152850Y472441D01*
X147253D02*
X153625Y466069D01*
X150165Y465858D02*
X156748Y472441D01*
X150278Y465518D02*
X175226Y440571D01*
X159955D02*
X183345Y463961D01*
X148262Y440571D02*
X173527Y465835D01*
X160206Y463385D02*
X183021Y440571D01*
X152160D02*
X174012Y462423D01*
X129884Y466426D02*
X155738Y440571D01*
X140321Y463784D02*
X163533Y440571D01*
X128775D02*
X153338Y465134D01*
X140468Y440571D02*
X163443Y463546D01*
X129814Y462598D02*
X151841Y440571D01*
X183340D02*
X204589Y461821D01*
X185812Y461165D02*
X206405Y440571D01*
X177986Y461196D02*
X198610Y440571D01*
X187237D02*
X207806Y461140D01*
X175545Y440571D02*
X196070Y461096D01*
X167750Y440571D02*
X188718Y461539D01*
X169350Y462036D02*
X190816Y440571D01*
X163852D02*
X184884Y461602D01*
X166458Y461031D02*
X186918Y440571D01*
X158352Y461342D02*
X179123Y440571D01*
X175910Y424297D02*
X178253Y421954D01*
X168747Y414286D02*
X178758Y424297D01*
X168115D02*
X178126Y414286D01*
X176542D02*
X178443Y416187D01*
X164218Y424297D02*
X174229Y414286D01*
X164849D02*
X174860Y424297D01*
X160952Y414286D02*
X170963Y424297D01*
X172644Y414286D02*
X177750Y419392D01*
X172012Y424297D02*
X177791Y418519D01*
X152160Y440571D02*
X174012Y462423D01*
X156057Y440571D02*
X176512Y461026D01*
X149595Y462304D02*
X171328Y440571D01*
X128589Y424297D02*
X179740D01*
X128589Y440571D02*
X260742D01*
X138687Y461520D02*
X159636Y440571D01*
X144365D02*
X165206Y461412D01*
X132673Y440571D02*
X154246Y462144D01*
X146990Y461012D02*
X167431Y440571D01*
X136570D02*
X157012Y461013D01*
X153157Y414286D02*
X163168Y424297D01*
X156423D02*
X166434Y414286D01*
X152525Y424297D02*
X162536Y414286D01*
X157054D02*
X167066Y424297D01*
X129021Y414286D02*
X179740D01*
X144730Y424297D02*
X154741Y414286D01*
X145362D02*
X155373Y424297D01*
X141465Y414286D02*
X151476Y424297D01*
X149260Y414286D02*
X159271Y424297D01*
X148628D02*
X158639Y414286D01*
X136841Y468124D02*
X141158Y472441D01*
X131663D02*
X136067Y468037D01*
X128592Y467669D02*
X133363Y472441D01*
X143356D02*
X147802Y467995D01*
X139458Y472441D02*
X144587Y467312D01*
X112176Y472441D02*
X116509Y468108D01*
X117323Y468093D02*
X121671Y472441D01*
X109559Y468124D02*
X113876Y472441D01*
X123868D02*
X128709Y467600D01*
X119971Y472441D02*
X124882Y467530D01*
X130291Y465471D02*
X137261Y472441D01*
X135561D02*
X143296Y464706D01*
X127766Y472441D02*
X133803Y466403D01*
X140328Y463816D02*
X148953Y472441D01*
X139526Y466911D02*
X145055Y472441D01*
X116074D02*
X123344Y465170D01*
X110408Y465075D02*
X117773Y472441D01*
X108279D02*
X114010Y466709D01*
X120062Y463038D02*
X129466Y472441D01*
X119752Y466625D02*
X125568Y472441D01*
X100484D02*
X104800Y468124D01*
X97383Y467640D02*
X102183Y472441D01*
X94252Y468407D02*
X98286Y472441D01*
X105662Y468124D02*
X109978Y472441D01*
X104381D02*
X108698Y468124D01*
X84894Y472441D02*
X90504Y466831D01*
X68898Y466437D02*
X74901Y472441D01*
X68898Y470335D02*
X71004Y472441D01*
X92689D02*
X97658Y467471D01*
X88791Y472441D02*
X93011Y468221D01*
X96586Y472441D02*
X103293Y465734D01*
X68898Y446950D02*
X94389Y472441D01*
X68898Y450847D02*
X90491Y472441D01*
X99380Y465740D02*
X106081Y472441D01*
X73202D02*
X131357Y414286D01*
X68898Y458642D02*
X82696Y472441D01*
X68898Y454745D02*
X86594Y472441D01*
X68898Y462540D02*
X78799Y472441D01*
X80997D02*
X88980Y464457D01*
X77099Y472441D02*
X89084Y460456D01*
X110408Y462517D02*
X132354Y440571D01*
X118993Y461727D02*
X140149Y440571D01*
X115577Y461245D02*
X136251Y440571D01*
X110408Y461010D02*
Y468124D01*
Y461178D02*
X113324Y464095D01*
X110408Y466414D02*
X113529Y463293D01*
X127453Y461061D02*
X147944Y440571D01*
X136935Y424297D02*
X146947Y414286D01*
X120391Y464225D02*
X144046Y440571D01*
X140833Y424297D02*
X150844Y414286D01*
X137567D02*
X147578Y424297D01*
X129140D02*
X139152Y414286D01*
X129772D02*
X139783Y424297D01*
X128589D02*
Y440571D01*
X133670Y414286D02*
X143681Y424297D01*
X133038D02*
X143049Y414286D01*
X103293Y468124D02*
X110408D01*
X103293Y461010D02*
X110408D01*
X103293D02*
Y468124D01*
X108018Y461010D02*
X128589Y440439D01*
X104120Y461010D02*
X128589Y436541D01*
X100299Y462762D02*
X103293Y465755D01*
X99361Y465769D02*
X103293Y461837D01*
X68898Y439155D02*
X89447Y459704D01*
X68898Y443052D02*
X88680Y462834D01*
X100111Y461122D02*
X128589Y432644D01*
X98721Y458614D02*
X128589Y428746D01*
X68898Y415770D02*
X114792Y461665D01*
X96347Y457090D02*
X128589Y424849D01*
X92346Y457194D02*
X135254Y414286D01*
X68898Y423565D02*
X106342Y461010D01*
X68898Y419668D02*
X110239Y461010D01*
X68898Y427463D02*
X103293Y461858D01*
X68898Y431360D02*
X94325Y456787D01*
X68898Y435258D02*
X91347Y457707D01*
X168511Y384927D02*
X187806Y365632D01*
X176305Y384927D02*
X195671Y365561D01*
X166990Y365759D02*
X186157Y384927D01*
X186458Y365740D02*
X205644Y384927D01*
X178352Y365430D02*
X197850Y384927D01*
X160320Y424297D02*
X170331Y414286D01*
X156818Y384927D02*
X176070Y365675D01*
X149023Y384927D02*
X168717Y365233D01*
X164613Y384927D02*
X184589Y364951D01*
X158687Y365251D02*
X178362Y384927D01*
X172408D02*
X193626Y363708D01*
X180206Y363386D02*
X201747Y384927D01*
X169595Y364468D02*
X190055Y384927D01*
X184100D02*
X204321Y364706D01*
X180203Y384927D02*
X203314Y361816D01*
X152921Y384927D02*
X173805Y364043D01*
X149883Y360345D02*
X174465Y384927D01*
X149814Y364173D02*
X170567Y384927D01*
X160716D02*
X183296Y362347D01*
X160321Y362988D02*
X182260Y384927D01*
X137331D02*
X156512Y365746D01*
X135577Y365527D02*
X154978Y384927D01*
X127869Y365613D02*
X147183Y384927D01*
X147454Y365711D02*
X166670Y384927D01*
X129021D02*
X260742D01*
X68898Y392386D02*
X137602Y461090D01*
X68898Y384591D02*
X145559Y461252D01*
X68898Y388488D02*
X143579Y463169D01*
X68898Y433873D02*
X137012Y365758D01*
X68898Y441668D02*
X145206Y365359D01*
X138993Y365045D02*
X158875Y384927D01*
X140392Y362546D02*
X162773Y384927D01*
X133434D02*
X154012Y364349D01*
X145126Y384927D02*
X164884Y365169D01*
X141228Y384927D02*
X163345Y362810D01*
X119272Y364811D02*
X139388Y384927D01*
X120404Y362046D02*
X143285Y384927D01*
X68898Y437770D02*
X143442Y363226D01*
X130004Y363851D02*
X151080Y384927D01*
X129536D02*
X153527Y360936D01*
X170278Y361253D02*
X193952Y384927D01*
X167456Y358699D02*
X167887Y358268D01*
X160392Y361866D02*
X163990Y358268D01*
X163396D02*
X164588Y359460D01*
X159498Y358268D02*
X163296Y362065D01*
X167293Y358268D02*
X167802Y358777D01*
X158994Y359366D02*
X160093Y358268D01*
X180321Y361424D02*
X183477Y358268D01*
X182883D02*
X184320Y359704D01*
X178985Y358268D02*
X183315Y362597D01*
X186992Y358650D02*
X187375Y358268D01*
X186780D02*
X187175Y358662D01*
X169879Y364071D02*
X175682Y358268D01*
X171191D02*
X173626Y360703D01*
X169815Y360238D02*
X171785Y358268D01*
X178689Y359159D02*
X179580Y358268D01*
X175088D02*
X175669Y358849D01*
X148000Y358462D02*
X148710Y359172D01*
X68898Y358268D02*
X145700D01*
X139273Y359600D02*
X140605Y358268D01*
X140011D02*
X143344Y361601D01*
X136283Y358693D02*
X136708Y358268D01*
X136113D02*
X136509Y358664D01*
X151703Y358268D02*
X153804Y360368D01*
X155582Y358881D02*
X156195Y358268D01*
X150005Y360560D02*
X152298Y358268D01*
X155601D02*
X156067Y358734D01*
X148000Y358268D02*
X305118D01*
X143908D02*
X144882Y359241D01*
X145700Y358268D02*
Y358838D01*
X140404Y362366D02*
X144503Y358268D01*
X148000Y358668D02*
X148400Y358268D01*
X148000D02*
Y358838D01*
X129021Y384927D02*
Y414286D01*
X96720Y369541D02*
X129021Y401842D01*
X93100Y369818D02*
X129021Y405740D01*
X100205Y365231D02*
X129021Y394047D01*
X98962Y367886D02*
X129021Y397945D01*
X69304Y472441D02*
X129021Y412724D01*
X68898Y422181D02*
X125559Y365519D01*
X68898Y365104D02*
X128589Y424794D01*
X68898Y402693D02*
X105946Y365645D01*
X68898Y414386D02*
X117601Y365682D01*
X68898Y361206D02*
X131988Y424297D01*
X69857Y358268D02*
X135886Y424297D01*
X68898Y426078D02*
X133338Y361637D01*
X77652Y358268D02*
X129021Y409637D01*
X69857Y358268D02*
X135886Y424297D01*
X68898Y410488D02*
X114506Y364880D01*
X73754Y358268D02*
X129021Y413535D01*
X68898Y418283D02*
X123579Y363602D01*
X68898Y398796D02*
X103748Y363946D01*
X68898Y406591D02*
X113293Y362195D01*
X68898Y461155D02*
X129021Y401031D01*
X68898Y396283D02*
X134506Y461891D01*
X68898Y400180D02*
X133293Y464576D01*
X68898Y453360D02*
X129021Y393236D01*
X68898Y457258D02*
X129021Y397134D01*
X68898Y407975D02*
X123748Y462826D01*
X68898Y465053D02*
X129021Y404929D01*
X68898Y468950D02*
X129021Y408826D01*
X68898Y404078D02*
X125946Y461126D01*
X68898Y411873D02*
X118380Y461355D01*
X68898Y445565D02*
X129021Y385442D01*
X68898Y372898D02*
X128589Y432589D01*
X68898Y449463D02*
X129021Y389339D01*
X68898Y369001D02*
X128589Y428692D01*
X68898Y429976D02*
X134246Y364628D01*
X68898Y380693D02*
X128589Y440384D01*
X68898Y358268D02*
Y472441D01*
Y358268D02*
Y472441D01*
Y394898D02*
X93845Y369951D01*
X68898Y376796D02*
X128589Y436487D01*
X129021Y385442D02*
X129536Y384927D01*
X110164Y363498D02*
X131593Y384927D01*
X108246Y365477D02*
X129021Y386253D01*
X116280Y365716D02*
X135490Y384927D01*
X110291Y361300D02*
X113323Y358268D01*
X108831D02*
X113339Y362775D01*
X112729Y358268D02*
X114244Y359783D01*
X108591Y359102D02*
X109426Y358268D01*
X130165Y360913D02*
X132810Y358268D01*
X132216D02*
X134010Y360062D01*
X128319Y358268D02*
X133528Y363478D01*
X128248Y358933D02*
X128913Y358268D01*
X124421D02*
X125204Y359051D01*
X120328Y362956D02*
X125016Y358268D01*
X120524D02*
X123442Y361186D01*
X119526Y359860D02*
X121118Y358268D01*
X116841Y358647D02*
X117221Y358268D01*
X116626D02*
X117009Y358651D01*
X68898Y387104D02*
X89268Y366733D01*
X68898Y379309D02*
X89938Y358268D01*
X68898Y391001D02*
X91043Y368856D01*
X68898Y375411D02*
X86041Y358268D01*
X68898Y371514D02*
X82144Y358268D01*
X68898Y383206D02*
X88730Y363374D01*
X68898Y363719D02*
X74349Y358268D01*
X68898Y367616D02*
X78246Y358268D01*
X100266Y363530D02*
X105528Y358268D01*
X101036D02*
X103578Y360809D01*
X97139Y358268D02*
X129021Y390150D01*
X104934Y358268D02*
X105557Y358891D01*
X99171Y360728D02*
X101631Y358268D01*
X81549D02*
X88843Y365562D01*
X85447Y358268D02*
X89120Y361941D01*
X68898Y359821D02*
X70451Y358268D01*
X97048Y358954D02*
X97733Y358268D01*
X89344D02*
X90776Y359700D01*
X300441Y354331D02*
X305118Y349653D01*
X296543Y354331D02*
X305118Y345756D01*
X304338Y354331D02*
X305118Y353551D01*
X281117Y339578D02*
X295869Y354331D01*
X292646D02*
X305118Y341858D01*
X281117Y343476D02*
X291971Y354331D01*
X280953D02*
X305118Y330166D01*
X277056Y354331D02*
X305118Y326268D01*
X277852Y344109D02*
X288074Y354331D01*
X270932Y321599D02*
X303664Y354331D01*
X273158D02*
X305118Y322371D01*
X268983Y323548D02*
X299766Y354331D01*
X284851D02*
X305118Y334063D01*
X281117Y342475D02*
X305118Y318474D01*
X288748Y354331D02*
X305118Y337961D01*
X280676Y311855D02*
X305118Y336298D01*
X282615Y309897D02*
X305118Y332400D01*
X281117Y338578D02*
X305118Y314576D01*
X274830Y317702D02*
X305118Y347990D01*
X276778Y315753D02*
X305118Y344093D01*
X272881Y319650D02*
X305118Y351887D01*
X278803Y336994D02*
X305118Y310679D01*
X278727Y313804D02*
X305118Y340195D01*
X269261Y354331D02*
X279483Y344109D01*
X274002D02*
X281117D01*
X274002Y336994D02*
Y344109D01*
X281117Y336994D02*
Y344109D01*
X274002Y336994D02*
X281117D01*
X266757Y325219D02*
X278532Y336994D01*
X257569Y354331D02*
X274002Y337898D01*
X265363Y354331D02*
X275586Y344109D01*
X261466Y354331D02*
X274002Y341795D01*
X262860Y325219D02*
X274635Y336994D01*
X260708Y326964D02*
X274002Y340258D01*
X267722Y324809D02*
X282486Y310045D01*
X266152Y322419D02*
X280096Y308475D01*
X262789Y325219D02*
X266732D01*
X262789Y322419D02*
X266152D01*
X282896Y275101D02*
X305118Y297323D01*
X282896Y293926D02*
X305118Y271704D01*
X282896Y297824D02*
X305118Y275602D01*
X282896Y290029D02*
X305118Y267807D01*
X282896Y267306D02*
X305118Y289528D01*
X282896Y271204D02*
X305118Y293426D01*
X282896Y286793D02*
X305118Y309016D01*
X282896Y305619D02*
X305118Y283396D01*
X282765Y309647D02*
X305118Y287294D01*
X282896Y301721D02*
X305118Y279499D01*
X282896Y278999D02*
X305118Y301221D01*
X282896Y282896D02*
X305118Y305118D01*
X282896Y255614D02*
X305118Y277836D01*
X282896Y274439D02*
X305118Y252217D01*
X282896Y278336D02*
X305118Y256114D01*
X282896Y270541D02*
X305118Y248319D01*
X282896Y247819D02*
X305118Y270041D01*
X282896Y251716D02*
X305118Y273938D01*
X282896Y286131D02*
X305118Y263909D01*
X282896Y263409D02*
X305118Y285631D01*
X282896Y267306D02*
X305118Y289528D01*
X282896Y259511D02*
X305118Y281733D01*
X282896Y282234D02*
X305118Y260012D01*
X282896Y306281D02*
X305118Y328503D01*
X282896Y302383D02*
X305118Y324605D01*
X274905Y336994D02*
X305118Y306781D01*
X282896Y294588D02*
X305118Y316810D01*
X282896Y290691D02*
X305118Y312913D01*
X282896Y298486D02*
X305118Y320708D01*
X262577Y322040D02*
X280096Y304521D01*
X260149Y320571D02*
X280096Y300624D01*
X266096Y322419D02*
X280096Y308418D01*
X261814Y296891D02*
X276747Y311824D01*
X258028Y297002D02*
X274798Y313773D01*
X273203Y269305D02*
X280096Y276199D01*
X277100Y269305D02*
X280096Y272301D01*
X272474Y269305D02*
X279589D01*
X282896Y232283D02*
Y309055D01*
X280096Y232863D02*
Y308475D01*
X279589Y262191D02*
Y269305D01*
X263104Y294231D02*
X280096Y277239D01*
X261775Y291663D02*
X280096Y273341D01*
X263105Y294284D02*
X278696Y309875D01*
X257758Y291782D02*
X280096Y269444D01*
X272474Y262191D02*
Y269305D01*
X245168Y338707D02*
X260792Y354331D01*
X245417Y339200D02*
X258064Y326553D01*
X245087Y342523D02*
X256894Y354331D01*
X249774D02*
X305118Y298986D01*
X245876Y354331D02*
X305118Y295089D01*
X253671Y354331D02*
X305118Y302884D01*
X237350Y326991D02*
X264689Y354331D01*
X238081D02*
X267324Y325087D01*
X234184Y354331D02*
X263296Y325219D01*
X225287Y295441D02*
X284177Y354331D01*
X241979D02*
X305118Y291191D01*
X222795Y296847D02*
X280279Y354331D01*
X239384Y337438D02*
X280096Y296726D01*
X243464Y337255D02*
X256595Y324125D01*
X235492Y337433D02*
X280096Y292829D01*
X237809Y292374D02*
X267003Y321568D01*
X237809Y296271D02*
X263957Y322419D01*
X225998Y331336D02*
X259782Y297553D01*
X234505Y296865D02*
X258491Y320850D01*
X225998Y327439D02*
X257214Y296223D01*
X224357Y325183D02*
X257333Y292207D01*
X225754Y292010D02*
X256697Y322954D01*
X234502Y339733D02*
X249099Y354331D01*
X242724Y344058D02*
X252997Y354331D01*
X230604Y339733D02*
X245202Y354331D01*
X238399Y339733D02*
X238619Y339953D01*
X226389Y354331D02*
X238830Y341890D01*
X230286Y354331D02*
X240775Y343842D01*
X222492Y354331D02*
X237089Y339733D01*
X226707D02*
X241305Y354331D01*
X222809Y339733D02*
X237407Y354331D01*
X234816Y332253D02*
X240154Y337590D01*
X237197Y330736D02*
X243970Y337509D01*
X230695Y296865D02*
X237809D01*
X202376Y339733D02*
X238664D01*
X202376Y337433D02*
X239276D01*
X225998Y327332D02*
X236099Y337433D01*
X198925Y335025D02*
X237086Y296865D01*
X237598Y327532D02*
X280096Y285034D01*
X235729Y325504D02*
X280096Y281136D01*
X231595Y337433D02*
X280096Y288931D01*
X241810Y269093D02*
X280096Y307378D01*
X243836Y267221D02*
X280096Y303481D01*
X220460Y325183D02*
X276337Y269305D01*
X200224Y282071D02*
X272484Y354331D01*
X202173Y280122D02*
X276382Y354331D01*
X204312Y337433D02*
X272474Y269271D01*
X217829Y260701D02*
X272850Y315722D01*
X202376Y335471D02*
X272474Y265374D01*
X242732Y254424D02*
X280096Y291788D01*
X243681Y251476D02*
X280096Y287891D01*
X239929Y255519D02*
X280096Y295686D01*
X239799Y243697D02*
X280096Y283994D01*
X242673Y242673D02*
X280096Y280096D01*
X243697Y239799D02*
X272474Y268577D01*
X237809Y296141D02*
X278424Y255526D01*
X225897Y292463D02*
X274645Y243715D01*
X237809Y292243D02*
X274527Y255526D01*
X217863Y237350D02*
X280096Y299583D01*
X197739Y301134D02*
X273053Y225820D01*
X198275Y284019D02*
X268587Y354331D01*
X237809Y289750D02*
Y296865D01*
X214406Y265073D02*
X268952Y319619D01*
X217829Y264599D02*
X270901Y317670D01*
X207763Y246737D02*
X257132Y296106D01*
X197817Y312748D02*
X241338Y269228D01*
X196880Y309788D02*
X238249Y268419D01*
X196327Y285968D02*
X236001Y325642D01*
X195827Y299149D02*
X239509Y255466D01*
X193572Y309198D02*
X237041Y265730D01*
X236406Y289750D02*
X272033Y254122D01*
X230695Y289750D02*
X237809D01*
X224231Y290232D02*
X272033Y242430D01*
X232508Y289750D02*
X272033Y250225D01*
X217951Y249130D02*
X259850Y291029D01*
X197520Y293559D02*
X237173Y253905D01*
X216143Y251221D02*
X257243Y292320D01*
X217759Y272324D02*
X235185Y289750D01*
X214877Y268406D02*
X239611Y243673D01*
X217303Y269878D02*
X237222Y249959D01*
X282896Y243922D02*
X305118Y266144D01*
X282896Y262747D02*
X305118Y240525D01*
X282896Y266644D02*
X305118Y244422D01*
X282896Y258849D02*
X305118Y236627D01*
X282896Y236127D02*
X305118Y258349D01*
X282896Y240024D02*
X305118Y262246D01*
X279589Y266054D02*
X280096Y265546D01*
X279589Y263999D02*
X280096Y264506D01*
X279589Y267897D02*
X280096Y268404D01*
X279555Y262191D02*
X280096Y261649D01*
X275657Y262191D02*
X280096Y257752D01*
X279589Y263999D02*
X280096Y264506D01*
X282896Y254952D02*
X305118Y232730D01*
X282895Y232228D02*
X305118Y254451D01*
X282896Y251054D02*
X305118Y228832D01*
X282896Y247157D02*
X305118Y224935D01*
X279148Y240174D02*
X280096Y241122D01*
X279148Y239212D02*
X280096Y238264D01*
X279148Y243110D02*
X280096Y242162D01*
X270585Y227713D02*
X280096Y237224D01*
X277863Y236600D02*
X280096Y234367D01*
X278911Y255526D02*
X280096Y256711D01*
X279148Y254802D02*
X280096Y253854D01*
X275013Y255526D02*
X280096Y260609D01*
X279148Y251866D02*
X280096Y252814D01*
X279148Y250905D02*
X280096Y249957D01*
X279148Y248411D02*
Y255526D01*
X272474Y262191D02*
X279589D01*
X272033Y255526D02*
X279148D01*
X272033Y248411D02*
Y255526D01*
X274894Y243715D02*
X280096Y248917D01*
X273847Y248411D02*
X278543Y243715D01*
X277744Y248411D02*
X280096Y246059D01*
X278792Y243715D02*
X280096Y245019D01*
X272033Y243715D02*
X279148D01*
Y236600D02*
Y243715D01*
X272033Y236600D02*
X279148D01*
X273966D02*
X278899Y231666D01*
X272033Y248411D02*
X279148D01*
X268434Y229459D02*
X275574Y236600D01*
X272033D02*
Y243715D01*
X270351Y224625D02*
X271104Y223871D01*
X291646Y221492D02*
X305118Y234964D01*
X294135Y220084D02*
X305118Y231067D01*
X287979Y221723D02*
X305118Y238861D01*
X282896Y239362D02*
X305118Y217140D01*
X282896Y235464D02*
X305118Y213242D01*
X295852Y217903D02*
X305118Y227169D01*
X282896Y243259D02*
X305118Y221037D01*
X280879Y229686D02*
X288736Y221829D01*
X278930Y227738D02*
X285765Y220903D01*
X270533Y212071D02*
X305118Y246656D01*
X282767Y231696D02*
X305118Y209345D01*
X268303Y213739D02*
X305118Y250554D01*
X296656Y214809D02*
X305118Y223272D01*
X296632Y213933D02*
X305118Y205447D01*
X293908Y208862D02*
X305118Y197652D01*
X291328Y207545D02*
X305118Y193755D01*
X295706Y210962D02*
X305118Y201550D01*
X274459Y200408D02*
X283853Y209802D01*
X278357Y200408D02*
X286034Y208085D01*
X276982Y225789D02*
X283665Y219105D01*
X281117Y195373D02*
X305118Y219374D01*
X281117Y199270D02*
X289128Y207281D01*
X269105Y221872D02*
X280096Y232863D01*
X270675Y219482D02*
X282486Y231294D01*
X268642Y221872D02*
X280096Y233327D01*
X275033Y223840D02*
X282348Y216525D01*
X273084Y221892D02*
X282341Y212635D01*
X267861Y223218D02*
X269156Y221923D01*
X265748Y221872D02*
X269105D01*
X274002Y199950D02*
X274459Y200408D01*
X274002D02*
X281117D01*
X274002Y193293D02*
Y200408D01*
X281117Y193293D02*
Y200408D01*
X274002Y193293D02*
X281117D01*
X274002Y193692D02*
X274401Y193293D01*
X266328Y219072D02*
X269685D01*
X270412Y208974D02*
X278978Y200408D01*
X268009Y207480D02*
X275081Y200408D01*
X243270Y263399D02*
X276950Y229718D01*
X248906Y229418D02*
X272033Y252546D01*
X244078Y266487D02*
X272033Y238532D01*
X243655Y251320D02*
X265964Y229012D01*
X250960Y227575D02*
X272033Y248648D01*
X242094Y248984D02*
X263550Y227528D01*
X229417Y221622D02*
X272474Y264679D01*
X240580Y262191D02*
X275002Y227769D01*
X238148Y249033D02*
X259666Y227514D01*
X237212Y221622D02*
X277780Y262191D01*
X237212Y221622D02*
X277780Y262191D01*
X233315Y221622D02*
X273883Y262191D01*
X262605Y227528D02*
X272033Y236956D01*
X259842Y227528D02*
X264769D01*
X260319Y225228D02*
X264769D01*
X261953D02*
X265363Y221818D01*
X248905Y221622D02*
X275693Y248411D01*
X243673Y239611D02*
X257561Y225723D01*
X242165Y237221D02*
X255612Y223774D01*
X252802Y221622D02*
X272033Y240854D01*
X253461Y221622D02*
X259027Y227189D01*
X217829Y261557D02*
X237221Y242165D01*
X216940Y258549D02*
X237034Y238454D01*
X220939Y232631D02*
X237702Y249394D01*
X219378Y227173D02*
X240650Y248445D01*
X220665Y236255D02*
X236607Y252197D01*
X215557Y238942D02*
X239125Y262510D01*
X213042Y258549D02*
X244885Y226706D01*
X213609Y240891D02*
X237254Y264536D01*
X204156Y263538D02*
X246071Y221622D01*
X215340Y244559D02*
X238276Y221622D01*
X250742Y224746D02*
X253663Y221825D01*
X238454Y237034D02*
X246400Y229089D01*
X245007Y221622D02*
X246834Y223449D01*
X248360Y223231D02*
X249969Y221622D01*
X241110D02*
X244991Y225504D01*
X219955Y221622D02*
X253461D01*
X221258Y225156D02*
X236618Y240515D01*
X225520Y221622D02*
X240515Y236618D01*
X221622Y221622D02*
X237642Y237642D01*
X254752Y219661D02*
X260319Y225228D01*
X259187Y224096D02*
X263289Y219994D01*
X257238Y222147D02*
X261341Y218045D01*
X255290Y220199D02*
X259392Y216096D01*
X250912Y211938D02*
X264202Y225228D01*
X248781Y213704D02*
X254637Y219560D01*
X244474Y219322D02*
X253546Y210250D01*
X243134Y200262D02*
X266382Y223510D01*
X243449Y200153D02*
X264758Y221462D01*
X263321Y216065D02*
X266060Y213326D01*
X261372Y214117D02*
X264566Y210922D01*
X252269Y219322D02*
X257443Y214148D01*
X259423Y212168D02*
X274002Y197589D01*
X257474Y210219D02*
X274002Y193692D01*
X250800Y209099D02*
X251597Y208301D01*
X248371Y219322D02*
X255495Y212199D01*
X245428Y198173D02*
X266328Y219072D01*
X210630Y219322D02*
X253937D01*
X243843Y193176D02*
X269740Y219074D01*
X245792Y191227D02*
X264608Y210043D01*
X240576Y219322D02*
X246500Y213398D01*
X232781Y219322D02*
X247700Y204404D01*
X236679Y219322D02*
X244903Y211099D01*
X224986Y219322D02*
X243802Y200507D01*
X228884Y219322D02*
X245751Y202455D01*
X221210Y215304D02*
X238701Y197813D01*
X217609Y246187D02*
X242174Y221622D01*
X221089Y219322D02*
X240433Y199979D01*
X212183Y192696D02*
X238810Y219322D01*
X217408Y190126D02*
X246605Y219322D01*
X214132Y190747D02*
X242707Y219322D01*
X248500Y207501D02*
X249648Y206353D01*
X240726Y192913D02*
Y193580D01*
X218594Y354331D02*
X233192Y339733D01*
X218912D02*
X233510Y354331D01*
X215014Y339733D02*
X229612Y354331D01*
X219272Y332298D02*
X224407Y337433D01*
X219902D02*
X225037Y332298D01*
X216005Y337433D02*
X221140Y332298D01*
X207219Y339733D02*
X221817Y354331D01*
X210799D02*
X225397Y339733D01*
X206902Y354331D02*
X221500Y339733D01*
X211117D02*
X225715Y354331D01*
X214697D02*
X229295Y339733D01*
X207941Y324864D02*
X220509Y337433D01*
X227697D02*
X233044Y332086D01*
X225998Y331230D02*
X232202Y337433D01*
X225998Y325183D02*
Y332298D01*
X223169D02*
X228304Y337433D01*
X223800D02*
X231015Y330217D01*
X218883Y332298D02*
X225998D01*
X218883Y325183D02*
X225998D01*
X209955Y311289D02*
X223849Y325183D01*
X201832Y342140D02*
X214022Y354331D01*
X203004D02*
X217602Y339733D01*
X202376D02*
Y342140D01*
X203322Y339733D02*
X217920Y354331D01*
X208210Y337433D02*
X218883Y326759D01*
X202376Y335025D02*
Y337433D01*
X197934Y342140D02*
X210125Y354331D01*
X199107D02*
X213705Y339733D01*
X195261Y335025D02*
Y342140D01*
X197851Y322569D02*
X212714Y337433D01*
X196230Y324846D02*
X208817Y337433D01*
X218883Y325183D02*
Y332298D01*
Y331909D02*
X219272Y332298D01*
X212107Y337433D02*
X218883Y330657D01*
X206141Y315270D02*
X218883Y328012D01*
X209955Y315186D02*
X219952Y325183D01*
X209804Y322831D02*
X218883Y331909D01*
X203431Y315270D02*
X209955D01*
X197595Y320765D02*
X203431Y314930D01*
X197164Y314087D02*
X203679Y320602D01*
X195429Y319034D02*
X203431Y311032D01*
X209627Y320425D02*
X233188Y296865D01*
X207473Y318683D02*
X230695Y295461D01*
X209615Y308746D02*
X221597Y296763D01*
X209955Y312303D02*
X230695Y291563D01*
Y289750D02*
Y296865D01*
X196916Y294352D02*
X230739Y328176D01*
X197796Y291335D02*
X232256Y325795D01*
X205717Y308746D02*
X219366Y295097D01*
X204156Y266515D02*
X230695Y293054D01*
X204156Y274310D02*
X220307Y290461D01*
X204048Y278099D02*
X218901Y292953D01*
X216081Y274543D02*
X231288Y289750D01*
X211305Y265073D02*
X217829D01*
Y258549D02*
Y265073D01*
X211305Y258549D02*
X217829D01*
X204156Y270413D02*
X223738Y289994D01*
X205814Y248686D02*
X215677Y258549D01*
X204156Y275230D02*
X214313Y265073D01*
X204156Y251845D02*
X218648Y237353D01*
X204156Y250344D02*
X217283Y237217D01*
X209955Y308746D02*
Y315270D01*
X203431Y308746D02*
X209955D01*
X203431D02*
Y315270D01*
X204156Y250344D02*
Y277559D01*
X197427Y310453D02*
X205713Y318739D01*
X197756Y302987D02*
X203515Y308746D01*
X195877Y305006D02*
X203431Y312559D01*
X197132Y290049D02*
X212791Y274390D01*
X201356Y249764D02*
Y276979D01*
X211305Y258549D02*
Y265073D01*
X204156Y254823D02*
X211305Y261972D01*
X204156Y267435D02*
X211305Y260286D01*
X204156Y259640D02*
X212723Y251074D01*
X204156Y250925D02*
X211779Y258549D01*
X204156Y255743D02*
X211094Y248804D01*
X204156Y262618D02*
X211678Y270139D01*
X204156Y258720D02*
X213897Y268461D01*
X204156Y271333D02*
X211305Y264184D01*
X195209Y354331D02*
X209807Y339733D01*
X195261Y335025D02*
X202376D01*
X195261Y342140D02*
X202376D01*
X194364Y315185D02*
X216612Y337433D01*
X187414Y354331D02*
X199605Y342140D01*
X191312Y354331D02*
X205910Y339733D01*
X183517Y354331D02*
X195707Y342140D01*
X171825Y354331D02*
X203525Y322630D01*
X175722Y354331D02*
X205268Y324785D01*
X179620Y354331D02*
X195261Y338689D01*
X192611Y317954D02*
X195425Y315140D01*
X193685Y295019D02*
X207412Y308746D01*
X194378Y287917D02*
X195515Y289054D01*
X186439Y311158D02*
X194281Y319000D01*
X186439Y299465D02*
X196397Y309423D01*
X186765Y312108D02*
X193811Y305062D01*
X186439Y304639D02*
X196236Y294843D01*
X188532Y293763D02*
X193863Y299095D01*
X190663Y316005D02*
X192465Y314203D01*
X188714Y314057D02*
X191876Y310895D01*
X186439Y307260D02*
X191665Y312486D01*
X186439Y303363D02*
X192763Y309687D01*
X186439Y308536D02*
X191826Y303150D01*
X186439Y295855D02*
Y311782D01*
X184049Y313352D02*
X191799Y321101D01*
X186439Y311782D02*
X193779Y319122D01*
X183639Y295276D02*
Y312362D01*
X186583Y295712D02*
X191844Y300973D01*
X186439Y300741D02*
X192726Y294455D01*
X186439Y296844D02*
X191676Y291607D01*
X190481Y291814D02*
X191831Y293165D01*
X173198Y294019D02*
X183639Y304460D01*
X175147Y292070D02*
X183639Y300563D01*
X171249Y295968D02*
X183639Y308358D01*
X179044Y288173D02*
X184603Y293732D01*
X177095Y290122D02*
X183639Y296665D01*
X186439Y295855D02*
X203746Y278549D01*
X194284Y288999D02*
X211319Y271964D01*
X184153Y273794D02*
X194347Y283988D01*
X184365Y262314D02*
X200193Y278142D01*
X184244Y271758D02*
X201356Y254645D01*
X184211Y266057D02*
X198244Y280091D01*
X184049Y294286D02*
X201356Y276979D01*
X182252Y281544D02*
X201356Y262440D01*
X180314Y266057D02*
X196296Y282039D01*
X177537Y251589D02*
X201356Y275408D01*
X182252Y277646D02*
X201356Y258543D01*
X184251Y242713D02*
X201356Y259818D01*
X188149Y242713D02*
X201356Y255920D01*
X182691Y245051D02*
X201356Y263715D01*
X184365Y263842D02*
X212554Y235652D01*
X184365Y259944D02*
X208657Y235652D01*
X192046Y242713D02*
X201356Y252023D01*
X182441Y269663D02*
X201356Y250748D01*
X182691Y248948D02*
X201356Y267613D01*
X181435Y251589D02*
X201356Y271510D01*
X180878Y259533D02*
X197699Y242713D01*
X174869Y261645D02*
X193801Y242713D01*
X182252Y283586D02*
X188501Y289834D01*
X182252Y279689D02*
X190449Y287886D01*
X182252Y275791D02*
X192398Y285937D01*
X182252Y275691D02*
Y284488D01*
X180993Y286224D02*
X186552Y291783D01*
X179952Y275691D02*
Y284012D01*
X170406Y263945D02*
X178023Y271562D01*
X177840Y266057D02*
X184365D01*
X177840Y259533D02*
X184365D01*
X177840D02*
Y261645D01*
X184365Y259533D02*
Y266057D01*
X182691Y249925D02*
X189903Y242713D01*
X182691Y244474D02*
Y251589D01*
X174304Y263945D02*
X179946Y269587D01*
X170971Y261645D02*
X181027Y251589D01*
X177840Y263945D02*
Y266057D01*
X175576Y251589D02*
X182691D01*
X175576Y244474D02*
Y251589D01*
X211660Y242840D02*
X213468Y244648D01*
X212267Y235652D02*
X213578Y236962D01*
X209711Y244788D02*
X211378Y246455D01*
X221369Y234632D02*
X234379Y221622D01*
X201766Y248774D02*
X214888Y235652D01*
X205304D02*
X214888D01*
X204888Y236068D02*
X209680Y240860D01*
X196601Y239913D02*
X214892Y221622D01*
X208370Y235652D02*
X211629Y238911D01*
X197666Y235063D02*
X211106Y221622D01*
X211457Y232852D02*
X217142Y227167D01*
X210518Y222211D02*
X219888Y231581D01*
X215354Y232852D02*
X215632Y232575D01*
X220259Y231844D02*
X230481Y221622D01*
X221182Y223127D02*
X222686Y221622D01*
X206621Y226108D02*
X213365Y232852D01*
X204724D02*
X215475D01*
X204672Y228057D02*
X209467Y232852D01*
X208570Y224159D02*
X216265Y231854D01*
X207559Y232852D02*
X215272Y225139D01*
X199042Y241914D02*
X203834Y246706D01*
X200991Y239965D02*
X205783Y244757D01*
X202940Y238017D02*
X207731Y242808D01*
X198653Y242303D02*
X205304Y235652D01*
X195944Y242713D02*
X201885Y248655D01*
X196427Y235402D02*
X199011Y237985D01*
X192530Y235402D02*
X197041Y239913D01*
X197083D02*
X203734Y233262D01*
X192703Y239913D02*
X197311Y235306D01*
X198826Y233903D02*
X200960Y236037D01*
X202723Y230005D02*
X205570Y232852D01*
X200775Y231954D02*
X202908Y234088D01*
X190132Y233102D02*
X196374D01*
X190132Y235402D02*
Y237376D01*
X190853Y222033D02*
X199148Y230328D01*
X190132Y231128D02*
Y233102D01*
X216590Y231616D02*
X226584Y221622D01*
X217192Y219322D02*
X219320Y217194D01*
X220417Y216520D02*
X223220Y219322D01*
X221302Y213507D02*
X227117Y219322D01*
X217181Y217181D02*
X219322Y219322D01*
X211106Y221622D02*
X216580D01*
X213294Y219322D02*
X216107Y216509D01*
X213827Y221622D02*
X215347Y223142D01*
X191720Y233102D02*
X217533Y207289D01*
X202170Y206067D02*
X215425Y219322D01*
X195617Y233102D02*
X215241Y213478D01*
X218985Y207293D02*
X231015Y219322D01*
X221119Y205529D02*
X234912Y219322D01*
X221119Y205529D02*
X234912Y219322D01*
X210234Y194644D02*
X216990Y201401D01*
X204388Y200491D02*
X216000Y212103D01*
X206337Y198542D02*
X219012Y211218D01*
X202439Y202439D02*
X215338Y215338D01*
X210234Y194644D02*
X216990Y201401D01*
X208285Y196593D02*
X215227Y203535D01*
X200597Y212289D02*
X208892Y220584D01*
X202170Y209965D02*
X211527Y219322D01*
X196374Y233102D02*
X209815Y219661D01*
X194751Y218135D02*
X203046Y226430D01*
X192802Y220084D02*
X201097Y228379D01*
X198648Y214238D02*
X206943Y222533D01*
X196700Y216187D02*
X204994Y224482D01*
X202170Y202709D02*
Y210240D01*
X199890Y192095D02*
X204711Y196916D01*
X202170Y203165D02*
X215208Y190126D01*
X202409Y190717D02*
X206659Y194967D01*
X199870Y202233D02*
Y209764D01*
X195992Y192095D02*
X202762Y198864D01*
X192095Y192095D02*
X200813Y200813D01*
X188806Y239913D02*
X193317Y235402D01*
X190132D02*
X196850D01*
X190132Y236902D02*
X193144Y239913D01*
X188175Y227150D02*
X194127Y233102D01*
X190017Y225094D02*
X197199Y232277D01*
X184908Y239913D02*
X187445Y237376D01*
X183884D02*
X190132D01*
X182691Y246028D02*
X186006Y242713D01*
X186709Y237376D02*
X189246Y239913D01*
X183884Y231128D02*
X184226D01*
X187356D02*
X190132D01*
X184740Y228389D02*
X185941Y227188D01*
X189198Y216480D02*
X191176Y218458D01*
X186045Y217224D02*
X189227Y220407D01*
X182252Y225124D02*
X188256Y231128D01*
X182252Y225902D02*
X187106Y230755D01*
X182252Y217329D02*
X186166Y221243D01*
X182252Y223082D02*
X188190Y217144D01*
X182252Y219185D02*
X184889Y216548D01*
X176456Y242713D02*
X178217Y244474D01*
X180348D02*
X182108Y242713D01*
X176450Y244474D02*
X178211Y242713D01*
X181011Y239913D02*
X183884Y237041D01*
X177114Y239913D02*
X183884Y233143D01*
X180354Y242713D02*
X182115Y244474D01*
X172559Y242713D02*
X175576Y245730D01*
Y244474D02*
X182691D01*
X170880Y237137D02*
X173656Y239913D01*
X173216D02*
X183114Y230016D01*
X170880Y233240D02*
X177554Y239913D01*
X180291Y227193D02*
X184226Y231128D01*
X182791Y226441D02*
X184031Y225201D01*
X183884Y231128D02*
Y237376D01*
X182252Y214567D02*
Y225902D01*
Y221227D02*
X184110Y223084D01*
X179952Y215043D02*
Y226378D01*
X170880Y238351D02*
X181165Y228067D01*
X170880Y232663D02*
Y239778D01*
Y234454D02*
X179952Y225382D01*
X189875Y223011D02*
X201831Y211055D01*
X188249Y221385D02*
X199870Y209764D01*
X190013Y213398D02*
X193124Y216509D01*
X189797Y231128D02*
X215410Y205514D01*
X189944Y223185D02*
X223003Y190126D01*
X189900Y215435D02*
X199870Y205465D01*
X187957Y221275D02*
X199870Y209362D01*
X187790Y207277D02*
X195073Y214560D01*
X188197Y192095D02*
X199870Y203767D01*
X188326Y201419D02*
X197650Y192095D01*
X189884Y205473D02*
X197022Y212612D01*
X180291Y205556D02*
X193752Y192095D01*
X178343Y203607D02*
X189855Y192095D01*
X184300D02*
X199870Y207665D01*
X180403Y192095D02*
X198971Y210663D01*
X182252Y215287D02*
X183956Y213584D01*
X184189Y209453D02*
X186338Y207304D01*
X182240Y207504D02*
X184175Y205570D01*
X180902Y212740D02*
X182209Y211433D01*
X170517Y202355D02*
X181913Y213752D01*
X178953Y210791D02*
X180260Y209484D01*
X177004Y208843D02*
X178312Y207536D01*
X170797Y200021D02*
X184043Y213267D01*
X170706Y201886D02*
X184036Y215215D01*
X175056Y206894D02*
X176363Y205587D01*
X172608Y192095D02*
X183983Y203470D01*
X173107Y204945D02*
X174414Y203638D01*
X176394Y201658D02*
X185957Y192095D01*
X176505D02*
X185786Y201376D01*
X174445Y199709D02*
X182060Y192095D01*
X171158Y202996D02*
X172465Y201689D01*
X172497Y197761D02*
X178162Y192095D01*
X170548Y195812D02*
X174265Y192095D01*
X284763Y183430D02*
X305118Y203784D01*
X287655Y182424D02*
X305118Y199887D01*
X287438Y207538D02*
X305118Y189858D01*
X281117Y198269D02*
X305118Y174268D01*
X281117Y194372D02*
X305118Y170370D01*
X288132Y179004D02*
X305118Y195990D01*
X268108Y219072D02*
X305118Y182063D01*
X265269Y218014D02*
X305118Y178165D01*
X271135Y219943D02*
X305118Y185960D01*
X256182Y162643D02*
X305118Y211579D01*
X257103Y159667D02*
X305118Y207682D01*
X278298Y193293D02*
X305118Y166473D01*
X288291Y179403D02*
X305118Y162575D01*
X288384Y159768D02*
X305118Y176502D01*
X288276Y171352D02*
X305118Y188195D01*
X289904Y157391D02*
X305118Y172605D01*
X291853Y155443D02*
X305118Y168707D01*
X284018Y163197D02*
X305118Y184297D01*
X287400Y162681D02*
X305118Y180400D01*
X286334Y173308D02*
X305118Y192092D01*
X288069Y171829D02*
X305118Y154781D01*
X286379Y177417D02*
X305118Y158678D01*
X274401Y193293D02*
X284363Y183330D01*
X257179Y177230D02*
Y183479D01*
Y183232D02*
X276696Y163715D01*
X257179Y179334D02*
X274756Y161758D01*
X255526Y208270D02*
X282377Y181419D01*
X257179Y183128D02*
X274002Y199950D01*
X256933Y183479D02*
X257179Y183232D01*
X257036Y171292D02*
X279037Y193293D01*
X257179Y179230D02*
X274002Y196053D01*
X282573Y165633D02*
X284775Y163432D01*
X280625Y163684D02*
X282533Y161776D01*
X288182Y159113D02*
X292150Y155146D01*
X274880Y161899D02*
X282350Y169369D01*
X277270Y160329D02*
X284330Y167389D01*
X277270Y156449D02*
X282473Y161652D01*
X292489Y144386D02*
X305118Y157015D01*
X292489Y140488D02*
X305118Y153118D01*
X292489Y148283D02*
X305118Y160913D01*
Y51181D02*
Y354331D01*
X292489Y151820D02*
X305118Y139191D01*
X292489Y139764D02*
Y154331D01*
X287684Y168317D02*
X305118Y150883D01*
X292489Y152180D02*
X305118Y164810D01*
X284837Y167267D02*
X305118Y146986D01*
X288392Y159814D02*
X305118Y143088D01*
X290189Y140240D02*
Y153854D01*
X292489Y147923D02*
X305118Y135293D01*
X285386Y147231D02*
X290189Y142428D01*
X287906Y148608D02*
X290189Y146325D01*
X285053Y125258D02*
X305118Y145323D01*
X292489Y144025D02*
X305118Y131396D01*
X295203Y131510D02*
X305118Y141425D01*
X277270Y133064D02*
X290189Y145983D01*
X282374Y132426D02*
X290189Y140240D01*
X277270Y136962D02*
X290189Y149880D01*
X285053Y129156D02*
X305118Y149220D01*
X279613Y131510D02*
X290189Y142086D01*
X277270Y159244D02*
X283569Y152945D01*
X286556Y157487D02*
X290189Y153854D01*
X277270Y152552D02*
X282988Y158270D01*
X278676Y161735D02*
X290189Y150223D01*
X277270Y127445D02*
Y160329D01*
X274470Y128025D02*
Y160909D01*
X256893Y151662D02*
X283245Y178014D01*
X256461Y168361D02*
X274470Y150352D01*
X256698Y172021D02*
X274470Y154249D01*
X255530Y157600D02*
X274470Y138659D01*
X257144Y159883D02*
X274470Y142557D01*
X288127Y151716D02*
X290189Y153778D01*
X285931Y153418D02*
X288278Y155765D01*
X277270Y147552D02*
X287385Y137437D01*
X277270Y143654D02*
X285436Y135488D01*
X277270Y140859D02*
X283953Y147542D01*
X277270Y148654D02*
X285901Y157285D01*
X277270Y144757D02*
X282252Y149739D01*
X277270Y155346D02*
X282191Y150425D01*
X277270Y151449D02*
X289334Y139385D01*
X256678Y148656D02*
X274470Y130864D01*
X253633Y183479D02*
X282445Y212291D01*
X253577Y206322D02*
X286790Y173109D01*
X255133Y173287D02*
X275139Y193293D01*
X251628Y204373D02*
X283278Y172723D01*
X249680Y202424D02*
X282227Y169877D01*
X247731Y200475D02*
X280593Y167613D01*
X247463Y185104D02*
X305118Y242759D01*
X247463Y189001D02*
X266275Y207814D01*
X245254Y195157D02*
X256933Y183479D01*
X247463Y181206D02*
X282214Y215958D01*
X245782Y198527D02*
X278645Y165664D01*
X247461Y189053D02*
X253035Y183479D01*
X250931D02*
X257179D01*
X250931Y177230D02*
X257179D01*
X251489D02*
X255722Y172997D01*
X249571Y163827D02*
X253118Y167374D01*
X247622Y165775D02*
X251123Y169276D01*
X247463Y177359D02*
X252062Y172760D01*
X247463Y173412D02*
X251281Y177230D01*
X247463Y173461D02*
X250955Y169970D01*
X247463Y169514D02*
X255179Y177230D01*
X247463Y169564D02*
X253584Y163443D01*
X243526Y193493D02*
X247053Y189966D01*
X247463Y165934D02*
Y188976D01*
X244663Y165354D02*
Y188397D01*
X241136Y191923D02*
X244663Y188397D01*
X221306Y190126D02*
X250502Y219322D01*
X226993Y188019D02*
X246724Y207749D01*
X225025Y189948D02*
X244958Y209881D01*
X217494Y211225D02*
X244663Y184056D01*
X220525Y212092D02*
X244663Y187953D01*
X247463Y181256D02*
X250931Y177788D01*
X247463Y177309D02*
X250931Y180777D01*
X247463Y185153D02*
X250931Y181686D01*
Y177230D02*
Y183479D01*
X241746Y183075D02*
X244663Y180159D01*
X241411Y179513D02*
X244663Y176261D01*
X241746Y183285D02*
X244663Y186201D01*
X229933Y183196D02*
X244663Y168466D01*
X237513Y179513D02*
X244663Y172364D01*
X252898Y163257D02*
X305118Y215477D01*
X255387Y177230D02*
X274470Y158146D01*
X254737Y153403D02*
X282240Y180906D01*
X253671Y167254D02*
X274470Y146454D01*
X245684Y136555D02*
X286665Y177537D01*
X243743Y130718D02*
X274692Y161666D01*
X228783Y180449D02*
X274470Y134762D01*
X216156Y181384D02*
X271992Y125547D01*
X214129Y179513D02*
X263861Y129780D01*
X254204Y147233D02*
X273941Y127496D01*
X251538Y122923D02*
X274470Y145854D01*
X253487Y120974D02*
X274470Y141957D01*
X249590Y124871D02*
X274470Y149752D01*
X245692Y128769D02*
X274470Y157547D01*
X241726Y148019D02*
X262506Y127239D01*
X238789Y141353D02*
X254743Y157307D01*
X247641Y126820D02*
X274470Y153649D01*
X226177Y144080D02*
X262547Y107711D01*
X247463Y165934D02*
X251398Y161999D01*
X245073Y164364D02*
X249936Y159502D01*
X225768Y179566D02*
X252357Y152977D01*
X229935Y148089D02*
X245642Y163795D01*
X229144Y151195D02*
X244663Y166714D01*
X216156Y185281D02*
X250934Y150503D01*
X213451Y151092D02*
X244663Y182304D01*
X225247Y151195D02*
X244663Y170612D01*
X209757Y139603D02*
X244663Y174509D01*
X215677Y149420D02*
X244663Y178406D01*
X242686Y141353D02*
X251006Y149672D01*
X245684Y140452D02*
X252748Y147517D01*
X245684Y134238D02*
Y141353D01*
X240208Y150567D02*
X249539Y159898D01*
X241707Y148168D02*
X251766Y158228D01*
X236527Y150783D02*
X247591Y161847D01*
X238568Y141353D02*
X245684D01*
X240715Y145133D02*
X244494Y141353D01*
X298833Y131243D02*
X305118Y137528D01*
X292489Y140128D02*
X305118Y127498D01*
X298833Y127345D02*
X305118Y133630D01*
X291718Y124395D02*
Y131510D01*
X290960Y137759D02*
X297209Y131510D01*
X289011Y135810D02*
X293311Y131510D01*
X284711D02*
X292150Y138949D01*
X287063Y133861D02*
X291718Y129206D01*
X285114Y131913D02*
X291718Y125309D01*
X285053Y124395D02*
Y131510D01*
X298833Y124395D02*
Y131510D01*
Y129886D02*
X305118Y123601D01*
X291718Y124395D02*
X298833D01*
X296529D02*
X305118Y115806D01*
X292631Y124395D02*
X305118Y111909D01*
X298833Y125989D02*
X305118Y119703D01*
X291718Y131510D02*
X298833D01*
X285053Y128076D02*
X305118Y108011D01*
X272004Y104414D02*
X291986Y124395D01*
X284837D02*
X305118Y104114D01*
X273731Y102243D02*
X295883Y124395D01*
X277939Y131510D02*
X282035D01*
X277939Y124395D02*
Y131510D01*
X284711D02*
X285053D01*
X277270Y128064D02*
X277939Y127396D01*
X277270Y139757D02*
X283488Y133539D01*
X277270Y135859D02*
X281619Y131510D01*
X277270Y131962D02*
X277939Y131293D01*
X277270Y129167D02*
X277939Y129835D01*
X268570Y128262D02*
X274470Y134162D01*
X277939Y124395D02*
X285053D01*
X268716Y116715D02*
X277939Y125938D01*
X268595Y118190D02*
X276860Y126455D01*
X268206Y125436D02*
X270044Y123598D01*
X268415Y108620D02*
X284191Y124395D01*
X268398Y105756D02*
X270253Y103902D01*
X284804Y93829D02*
X305118Y114143D01*
X297746Y95079D02*
X305118Y102451D01*
X294817Y96048D02*
X305118Y106348D01*
X285016Y93036D02*
X305118Y72934D01*
X284080Y90075D02*
X305118Y69037D01*
X298823Y92259D02*
X305118Y98553D01*
X275921Y125516D02*
X305118Y96319D01*
X282876Y95799D02*
X305118Y118041D01*
X280939Y124395D02*
X305118Y100216D01*
X268724Y97635D02*
X305118Y61242D01*
X281289Y88968D02*
X305118Y65139D01*
X273972Y123567D02*
X305118Y92421D01*
X294636Y67826D02*
X305118Y57344D01*
X294218Y64346D02*
X305118Y53447D01*
X294526Y68474D02*
X305118Y79066D01*
X300618Y51181D02*
X305118Y55681D01*
X304515Y51181D02*
X305118Y51784D01*
X296720Y51181D02*
X305118Y59579D01*
X294169Y64219D02*
X305118Y75169D01*
X285028Y51181D02*
X305118Y71271D01*
X293328Y71174D02*
X305118Y82964D01*
X292823Y51181D02*
X305118Y63476D01*
X288926Y51181D02*
X305118Y67374D01*
X273193Y100962D02*
X279051Y95104D01*
X283629Y73167D02*
X305118Y94656D01*
X298569Y91175D02*
X305118Y84627D01*
X272024Y121618D02*
X305118Y88524D01*
X270075Y119670D02*
X293931Y95813D01*
X268752Y117095D02*
X291982Y93865D01*
X268754Y97266D02*
X271772Y100285D01*
X267645Y94817D02*
X288299Y74163D01*
X269295Y100962D02*
X277945Y92313D01*
X288496Y74136D02*
X305118Y90758D01*
X291328Y73071D02*
X305118Y86861D01*
X296621Y89226D02*
X305118Y80729D01*
X292722Y61946D02*
X303487Y51181D01*
X290459Y60312D02*
X299589Y51181D01*
X287232Y59641D02*
X295692Y51181D01*
X273336D02*
X283157Y61002D01*
X269438Y51181D02*
X281260Y63003D01*
X281131Y51181D02*
X290111Y60162D01*
X277233Y51181D02*
X285857Y59805D01*
X266589Y130178D02*
X274470Y138059D01*
X266615Y120170D02*
X274470Y128025D01*
X265664Y124081D02*
X268095Y121650D01*
X267455Y103762D02*
X291718Y128025D01*
X266179Y110281D02*
X280293Y124395D01*
X264176Y119970D02*
X274470Y130264D01*
X245684Y140164D02*
X265520Y120327D01*
X245684Y136266D02*
X263023Y118927D01*
X257385Y117076D02*
X264573Y124265D01*
X243276Y131185D02*
X264389Y110072D01*
X263231Y111230D02*
X266119Y114119D01*
X263558Y103762D02*
X264215Y104419D01*
X266136Y104121D02*
X266495Y103762D01*
X267382Y99792D02*
X268552Y100962D01*
X265398D02*
X266061Y100299D01*
X255873Y103762D02*
X270114D01*
X261282Y113179D02*
X263265Y115162D01*
X256453Y100962D02*
X270114D01*
X261500D02*
X263242Y99220D01*
X255436Y119025D02*
X262656Y126246D01*
X259333Y115128D02*
X262865Y118659D01*
X243276Y134238D02*
X245684D01*
X241315Y129893D02*
X262763Y108446D01*
X237494Y128865D02*
X262598Y103762D01*
X237494Y124968D02*
X258700Y103762D01*
X234986Y110268D02*
X247963Y123245D01*
X237182Y108566D02*
X249912Y121296D01*
X237439Y116618D02*
X246015Y125194D01*
X234485Y124080D02*
X255062Y103503D01*
X222089Y124784D02*
X248268Y98605D01*
X255758Y103758D02*
X261604Y109604D01*
X259660Y103762D02*
X262554Y106656D01*
X242810Y98605D02*
X257707Y113501D01*
X250135Y98605D02*
X254883Y103352D01*
X236170Y99759D02*
X253809Y117399D01*
X237494Y117174D02*
X253099Y101568D01*
X236140Y114630D02*
X251151Y99620D01*
X238913Y98605D02*
X255758Y115450D01*
X237163Y98605D02*
X250135D01*
X267352Y114598D02*
X305118Y76832D01*
X255079Y99589D02*
X282418Y72250D01*
X243814Y134238D02*
X282013Y96039D01*
X246054Y51181D02*
X305118Y110246D01*
X253131Y97640D02*
X280784Y69986D01*
X251032Y95841D02*
X280114Y66759D01*
X230464Y51181D02*
X305118Y125835D01*
X234361Y51181D02*
X305118Y121938D01*
X226566Y51181D02*
X305118Y129733D01*
X243273Y95805D02*
X287897Y51181D01*
X239376Y95805D02*
X283999Y51181D01*
X249951D02*
X291748Y92978D01*
X253849Y51181D02*
X292716Y90049D01*
X264064Y94501D02*
X284819Y73746D01*
X257746Y51181D02*
X295537Y88972D01*
X261643Y51181D02*
X281164Y70701D01*
X265541Y51181D02*
X280194Y65835D01*
X236429Y94854D02*
X280102Y51181D01*
X238259D02*
X278217Y91140D01*
X233763Y93623D02*
X276205Y51181D01*
X247171Y95805D02*
X291794Y51181D01*
X242156D02*
X280187Y89212D01*
X246708Y98605D02*
X259656Y111553D01*
X251705Y96215D02*
X256453Y100962D01*
X257603D02*
X262926Y95639D01*
X224513Y68615D02*
X256860Y100962D01*
X227162Y67367D02*
X260758Y100962D01*
X224030Y91517D02*
X251861Y119348D01*
X228008Y64315D02*
X264655Y100962D01*
X218065Y66065D02*
X247805Y95805D01*
X235893Y68302D02*
X263043Y95453D01*
X237805Y66317D02*
X265569Y94081D01*
X237163Y95805D02*
X250715D01*
X237875Y66127D02*
X252820Y51181D01*
X237335Y62768D02*
X248922Y51181D01*
X234872Y61334D02*
X245025Y51181D01*
X227734Y87959D02*
X264512Y51181D01*
X225785Y86010D02*
X260615Y51181D01*
X223837Y84062D02*
X256717Y51181D01*
X231632Y91856D02*
X272307Y51181D01*
X229683Y89908D02*
X268410Y51181D01*
X237295Y186628D02*
X241863Y191196D01*
X225225Y189787D02*
X227189Y187823D01*
X229934Y183165D02*
X240471Y193701D01*
X241193Y186628D02*
X243812Y189248D01*
X228666Y185794D02*
X238714Y195842D01*
X214752Y190126D02*
X224409D01*
X214276Y187826D02*
X223933D01*
X221304Y203517D02*
X238193Y186628D01*
X219530Y201394D02*
X234631Y186293D01*
X223933Y187826D02*
X225228Y186531D01*
X234631Y186628D02*
X241746D01*
X227528Y186437D02*
Y187008D01*
X241746Y179513D02*
Y186628D01*
X234631Y179513D02*
X241746D01*
X234631D02*
Y186628D01*
X210231Y179513D02*
X238570Y151175D01*
X222820Y151195D02*
X229935D01*
X213911Y186628D02*
X215108Y187826D01*
X221405D02*
X223756Y185476D01*
X217508Y187826D02*
X222873Y182461D01*
X216156Y181079D02*
X222903Y187826D01*
X216156Y184976D02*
X219006Y187826D01*
X204358Y188768D02*
X208608Y193018D01*
X204358Y188768D02*
X208608Y193018D01*
X210013Y186628D02*
X212505Y189121D01*
X206306Y186819D02*
X210557Y191069D01*
X209041Y186628D02*
X210191D01*
X216156D01*
X209041D02*
X210191D01*
X216156Y179513D02*
Y186628D01*
X209041Y179513D02*
X216156D01*
X209041D02*
Y184328D01*
X206497Y186628D02*
X209041D01*
X203778Y168701D02*
X214590Y179513D01*
X206021Y184328D02*
X209041D01*
X237854Y144096D02*
X240597Y141353D01*
X238568Y141132D02*
X238789Y141353D01*
X231663Y130329D02*
X238568Y137235D01*
X235560Y130329D02*
X239469Y134238D01*
X238568D02*
Y141353D01*
X229935Y148117D02*
X238568Y139484D01*
X229935Y144219D02*
X238568Y135586D01*
X229935Y144192D02*
X235044Y149300D01*
X223445Y129907D02*
X237659Y144120D01*
X223464Y126028D02*
X238568Y141132D01*
X221096Y131455D02*
X235260Y145619D01*
X243276Y131890D02*
Y134238D01*
X243276Y131185D02*
Y131885D01*
X240976Y131895D02*
Y134238D01*
X240976Y130709D02*
Y131890D01*
X238568Y134238D02*
X240976D01*
X239917D02*
X240976Y133179D01*
X231246Y130329D02*
X237494D01*
Y128366D02*
X240976Y131847D01*
X237494Y124080D02*
Y130329D01*
X222820Y144080D02*
Y151195D01*
X229935Y144080D02*
Y151195D01*
X215967Y146495D02*
X232133Y130329D01*
X207072Y129123D02*
X222820Y144871D01*
X204372Y130320D02*
X222820Y148769D01*
X203702Y149138D02*
X234631Y180067D01*
X203396Y166861D02*
X222820Y147437D01*
X203780Y158683D02*
X211456Y151007D01*
X203786Y178164D02*
X234647Y147302D01*
X203563Y147207D02*
X219420Y131351D01*
X222820Y144080D02*
X229935D01*
X231246Y129912D02*
X231663Y130329D01*
X210100Y136773D02*
X217303Y129569D01*
X214136Y144430D02*
X231246Y127319D01*
Y124080D02*
Y130329D01*
X205299Y123453D02*
X225927Y144080D01*
X205866Y120123D02*
X229824Y144080D01*
X207513Y141257D02*
X210816Y144559D01*
X208336Y134640D02*
X232975Y110000D01*
X207580Y106246D02*
X231246Y129912D01*
X202170Y207062D02*
X219105Y190126D01*
X202170Y202709D02*
X214752Y190126D01*
X200209Y201417D02*
X213461Y188165D01*
X201370Y191756D02*
X206497Y186628D01*
X199950Y189795D02*
X209041Y180704D01*
X200078Y189795D02*
X205205Y184667D01*
X189304Y212133D02*
X214809Y186628D01*
X186340Y211200D02*
X210911Y186628D01*
X190060Y203582D02*
X207014Y186628D01*
X186689Y230338D02*
X234631Y182395D01*
X184360Y189795D02*
X222959Y151195D01*
X171928Y160235D02*
X200783Y189090D01*
X203360Y179975D02*
X207713Y184328D01*
X202257Y171077D02*
X210693Y179513D01*
X200982Y181495D02*
X204680Y185193D01*
X201917Y151250D02*
X234631Y183965D01*
X203153Y160281D02*
X223654Y180782D01*
X200479Y161504D02*
X222933Y183958D01*
X198363Y164100D02*
X200966Y161496D01*
X180462Y189795D02*
X199144Y171113D01*
X192155Y189795D02*
X200447Y181502D01*
X188257Y189795D02*
X198016Y180036D01*
X172668Y189795D02*
X196383Y166079D01*
X176565Y189795D02*
X197571Y168789D01*
X172534Y178236D02*
X190537Y160233D01*
X172534Y180329D02*
X182000Y189795D01*
X172534Y176431D02*
X185897Y189795D01*
X172534Y175261D02*
Y181510D01*
X172524Y168627D02*
X193692Y189795D01*
X171047Y171047D02*
X189795Y189795D01*
X192345Y158081D02*
X199684Y165421D01*
X192345Y157268D02*
X200354Y165277D01*
X196414Y162151D02*
X198229Y160336D01*
X194466Y160202D02*
X198213Y156455D01*
X192517Y158254D02*
X199491Y151279D01*
X192345Y153370D02*
X197551Y158576D01*
X189955Y159651D02*
X197704Y167401D01*
X170713Y151225D02*
X197561Y178073D01*
X171611Y175261D02*
X189545Y157328D01*
X196052Y189795D02*
X235684Y150163D01*
X202320Y175733D02*
X226857Y151195D01*
X202620Y155945D02*
X209390Y149175D01*
X201072Y165287D02*
X236031Y130329D01*
X198738Y155930D02*
X234339Y120329D01*
X192345Y145575D02*
X226284Y179515D01*
X193607Y135145D02*
X237975Y179513D01*
X192345Y150631D02*
X203537Y139438D01*
X195555Y133196D02*
X209145Y146785D01*
X172326Y147265D02*
X200986Y118605D01*
X201499Y145374D02*
X205670Y141203D01*
X197504Y131247D02*
X203231Y136975D01*
X199453Y129299D02*
X204885Y134731D01*
X192345Y136407D02*
X201483Y127269D01*
X192345Y142836D02*
X204862Y130319D01*
X192345Y138938D02*
X202149Y129134D01*
X192345Y137781D02*
X199917Y145353D01*
X192345Y146733D02*
X231299Y107779D01*
X189955Y134837D02*
X203066Y121725D01*
X192345Y149473D02*
X198774Y155902D01*
X192345Y141678D02*
X197805Y147138D01*
X192345Y154528D02*
X197657Y149216D01*
X192345Y136407D02*
Y158081D01*
X173201Y130329D02*
X189545Y146673D01*
Y135827D02*
Y158661D01*
X172457Y149073D02*
X199080Y175696D01*
X172510Y158773D02*
X189545Y141738D01*
X172165Y166913D02*
X189545Y149533D01*
X170302Y145392D02*
X197089Y118605D01*
X171404Y155981D02*
X189545Y137841D01*
X178012Y123447D02*
X189717Y135153D01*
X185806Y123447D02*
X193576Y131216D01*
X188646Y122389D02*
X195524Y129268D01*
X181909Y123447D02*
X191627Y133165D01*
X176471Y129701D02*
X189545Y142775D01*
X176471Y125804D02*
X189545Y138878D01*
X170222Y130329D02*
X176471D01*
Y124080D02*
Y130329D01*
X170222Y124080D02*
Y130329D01*
X237494Y124469D02*
X242117Y129091D01*
X237106Y124080D02*
X237494Y124469D01*
X231246Y124080D02*
X237494D01*
X236455Y119532D02*
X244066Y127142D01*
X233073Y120047D02*
X237106Y124080D01*
X207720Y127460D02*
X234896Y100285D01*
X206536Y124747D02*
X232020Y99263D01*
X223870Y126900D02*
X231796Y118975D01*
X207503Y98375D02*
X233209Y124080D01*
X209024Y88203D02*
X234957Y114136D01*
X205866Y121519D02*
X231573Y95813D01*
X237166Y105810D02*
X244371Y98605D01*
X234945Y104134D02*
X240473Y98605D01*
X233638Y93498D02*
X234223Y94084D01*
X224030Y95414D02*
X233008Y104393D01*
X206833Y109397D02*
X222397Y124961D01*
X207602Y108091D02*
X219616Y96077D01*
X207631Y117989D02*
X216970Y127329D01*
X207489Y115999D02*
X229652Y93836D01*
X220795Y96077D02*
X231307Y106589D01*
X206808Y104988D02*
X216915Y94881D01*
X205866Y120064D02*
Y122305D01*
X205446Y100214D02*
X231246Y126014D01*
X224030Y95561D02*
X227703Y91888D01*
X224030Y91663D02*
X225754Y89939D01*
X223514Y96077D02*
X224030Y95561D01*
Y88962D02*
Y96077D01*
X216915Y88962D02*
X224030D01*
X222834D02*
X223806Y87990D01*
X216915Y88962D02*
Y96077D01*
X224030D01*
X205790Y94313D02*
X211900Y88203D01*
X212922D02*
X216915Y92197D01*
X207072Y88203D02*
X214187D01*
X216720Y68616D02*
X243908Y95805D01*
X221888Y82113D02*
X235575Y68426D01*
X218936Y88962D02*
X221857Y86041D01*
X219939Y80164D02*
X232217Y67886D01*
X217991Y78215D02*
X230783Y65423D01*
X213987Y78172D02*
X231294Y95478D01*
X215557Y75782D02*
X232883Y93108D01*
X214187Y81674D02*
X221476Y88962D01*
X212822Y68616D02*
X240010Y95805D01*
X216042Y76267D02*
X223752Y68557D01*
X213039Y75372D02*
X221390Y67021D01*
X222669Y51181D02*
X233053Y61566D01*
X218771Y51181D02*
X231068Y63477D01*
X228006Y64303D02*
X241127Y51181D01*
X226470Y61941D02*
X237230Y51181D01*
X222868Y61646D02*
X233333Y51181D01*
X210977D02*
X222004Y62208D01*
X214874Y51181D02*
X225055Y61362D01*
X211517Y61305D02*
X221640Y51181D01*
X218065Y62551D02*
X229435Y51181D01*
X215414Y61305D02*
X225538Y51181D01*
X214187Y85572D02*
X217578Y88962D01*
X214187Y85916D02*
X217959Y82144D01*
X214187Y81088D02*
Y88203D01*
Y82019D02*
X216011Y80195D01*
X211220Y81088D02*
X214062Y78247D01*
X210685Y78172D02*
X213601Y81088D01*
X207620Y96381D02*
X219908Y84093D01*
X207072Y81339D02*
X207323Y81088D01*
X207072D02*
Y88203D01*
X207323Y81088D02*
X210240Y78172D01*
X206787D02*
X209704Y81088D01*
X218065Y66448D02*
X221094Y63419D01*
X218065Y61305D02*
Y68616D01*
Y62167D02*
X220755Y64857D01*
X210753Y61305D02*
X218065D01*
X209142Y75372D02*
X215897Y68616D01*
X210753D02*
X218065D01*
X207072Y81088D02*
X214187D01*
X207079Y51181D02*
X217203Y61305D01*
X210753D02*
Y68616D01*
X204671Y124081D02*
X205456Y123295D01*
X203066Y119923D02*
Y121725D01*
X203748Y110209D02*
X218519Y124980D01*
X200451Y118605D02*
X203066Y121220D01*
X190594Y120440D02*
X197473Y127319D01*
X192656Y118605D02*
X199422Y125370D01*
X187998Y123037D02*
X192430Y118605D01*
X179456Y120647D02*
X201715Y98389D01*
X183354Y120647D02*
X203782Y100219D01*
X196554Y118605D02*
X201370Y123421D01*
X199889Y115805D02*
X205492Y110201D01*
X192430Y118605D02*
X201813D01*
X205406Y114184D02*
X223514Y96077D01*
X195991Y115805D02*
X202389Y109406D01*
X192094Y115805D02*
X201623Y106275D01*
X191850Y115805D02*
X201813D01*
X176266Y98317D02*
X193754Y115805D01*
X180122Y94378D02*
X201549Y115805D01*
X178173Y96327D02*
X197651Y115805D01*
X176471Y127530D02*
X180554Y123447D01*
X176023Y124080D02*
X176656Y123447D01*
X176387Y117925D02*
X179109Y120647D01*
X174621Y120057D02*
X175212Y120647D01*
X172126Y124080D02*
X172759Y123447D01*
X170222Y124080D02*
X176471D01*
X170217Y123447D02*
X170850Y124080D01*
X174114Y123447D02*
X174747Y124080D01*
X171661Y120647D02*
X172198Y120110D01*
X186428Y120647D02*
X190860Y116215D01*
X176278Y106124D02*
X188615Y118461D01*
X174248Y100196D02*
X190563Y116512D01*
X175612Y109356D02*
X186666Y120409D01*
X172597Y110238D02*
X183006Y120647D01*
X170629Y113885D02*
X174350Y110163D01*
X193763Y80737D02*
X231527Y118501D01*
X203677Y104222D02*
X216915Y90983D01*
X195712Y78788D02*
X232043Y115120D01*
X191489Y51181D02*
X234388Y94080D01*
X198993Y78172D02*
X207072Y86251D01*
X175559Y120647D02*
X208003Y88203D01*
X174209Y114202D02*
X207072Y81339D01*
X176252Y116056D02*
X207072Y85236D01*
X174587Y94337D02*
X217743Y51181D01*
X178272Y82857D02*
X209948Y51181D01*
X201347Y75372D02*
X210753Y65965D01*
X205245Y75372D02*
X212000Y68616D01*
X202890Y78172D02*
X207072Y82354D01*
X199284Y51181D02*
X210753Y62651D01*
X203182Y51181D02*
X213305Y61305D01*
X197450Y75372D02*
X210753Y62068D01*
X196328Y78172D02*
X213987D01*
X195748Y75372D02*
X214567D01*
X183694Y51181D02*
X207885Y75372D01*
X187592Y51181D02*
X211782Y75372D01*
X195387Y51181D02*
X210753Y66548D01*
X182071Y92429D02*
X203822Y114180D01*
X185968Y88532D02*
X202414Y104978D01*
X184019Y90480D02*
X201602Y108063D01*
X187917Y86583D02*
X205565Y104231D01*
X189865Y84634D02*
X201597Y96366D01*
X176312Y98187D02*
X196328Y78172D01*
X175588Y105028D02*
X202445Y78172D01*
X172530Y104189D02*
X198547Y78172D01*
X176305Y108209D02*
X206342Y78172D01*
X175550Y94990D02*
X194758Y75782D01*
X191814Y82686D02*
X203436Y94308D01*
X178715Y85176D02*
X182039Y88500D01*
X177216Y87575D02*
X180091Y90449D01*
X179797Y51181D02*
X203988Y75372D01*
X172002Y51181D02*
X196193Y75372D01*
X173535Y87791D02*
X178142Y92398D01*
X176042Y81190D02*
X206050Y51181D01*
X175900D02*
X200090Y75372D01*
X166940Y338428D02*
X182843Y354331D01*
X165416Y325211D02*
X194535Y354331D01*
X165805Y341191D02*
X178945Y354331D01*
X165940Y314043D02*
X206228Y354331D01*
X167927D02*
X206988Y315270D01*
X166628Y322526D02*
X198433Y354331D01*
X161518Y325211D02*
X190638Y354331D01*
X164030D02*
X193442Y324918D01*
X162811Y342093D02*
X175048Y354331D01*
X160132D02*
X191711Y322752D01*
X163195Y315196D02*
X202330Y354331D01*
X156235D02*
X190631Y319934D01*
X166634Y340035D02*
X188683Y317985D01*
X166270Y336500D02*
X186734Y316037D01*
X166628Y318962D02*
Y325211D01*
X165995Y310201D02*
X195261Y339467D01*
X163821Y335052D02*
X184785Y314088D01*
X166628Y324450D02*
X183639Y307439D01*
X147296Y354331D02*
X305118D01*
X160380Y325211D02*
X166628D01*
X160380Y318962D02*
X166628D01*
X150928Y341903D02*
X163356Y354331D01*
X152337D02*
X164838Y341830D01*
X148975Y343848D02*
X159458Y354331D01*
X151142Y339936D02*
X165867Y325211D01*
X149598Y337583D02*
X161970Y325211D01*
X148440Y354331D02*
X161303Y341467D01*
X145919Y352954D02*
X159855Y339018D01*
X145743Y337540D02*
X160380Y322904D01*
X160424Y318962D02*
X164270Y315116D01*
X154268Y306268D02*
X160395Y312395D01*
X160380Y318962D02*
Y325211D01*
X158165Y306268D02*
X161548Y309651D01*
X148880Y308676D02*
X160380Y320175D01*
X151195Y307093D02*
X163064Y318962D01*
X144983Y308676D02*
X160380Y324072D01*
X151195Y306268D02*
X160472D01*
X151195D02*
Y308676D01*
X167352Y299865D02*
X204919Y337433D01*
X166514Y302925D02*
X198614Y335025D01*
X166628Y320552D02*
X183639Y303541D01*
X166533Y312853D02*
X183639Y295746D01*
X166498Y301195D02*
X201356Y266338D01*
X169300Y297916D02*
X183639Y312255D01*
X164675Y304983D02*
X195261Y335570D01*
X165662Y309827D02*
X201356Y274133D01*
X162443Y309148D02*
X201356Y270235D01*
X164321Y318962D02*
X183639Y299644D01*
X166371Y300846D02*
X181913Y285303D01*
X166507Y291226D02*
X169623Y294341D01*
X165697Y294312D02*
X167674Y296290D01*
X166149Y293750D02*
X179952Y279946D01*
X165909Y290092D02*
X179952Y276049D01*
X164745Y299219D02*
X179952Y284012D01*
X162548Y295061D02*
X165725Y298239D01*
X164626Y299170D02*
X179952Y283844D01*
X146476Y263400D02*
X173520Y290444D01*
X161506Y305711D02*
X165390Y309596D01*
X161288Y305929D02*
X162263Y304954D01*
X159996Y303968D02*
X160637Y303328D01*
X155931Y303968D02*
X165167Y294732D01*
X159828Y303968D02*
X160588Y303208D01*
X151195Y303196D02*
X151968Y303968D01*
X151195D02*
X159996D01*
X151195Y301561D02*
Y303968D01*
X152033D02*
X161510Y294492D01*
X148821Y296925D02*
X155865Y303968D01*
X159780Y293069D02*
X160538D01*
X150543Y301561D02*
X159173Y292931D01*
X160359Y290269D02*
X160962D01*
X149222Y295087D02*
X155220Y289089D01*
X146646Y301561D02*
X157168Y291038D01*
X147904Y292508D02*
X153271Y287140D01*
X146685Y298685D02*
X149560Y301561D01*
X144691Y274601D02*
X160359Y290269D01*
X144645Y291869D02*
X151322Y285192D01*
X141954Y352241D02*
X144043Y354331D01*
X143580Y350615D02*
X147296Y354331D01*
X141841Y352304D02*
X143868Y354331D01*
X143741Y350306D02*
X147766Y354331D01*
X143596Y346264D02*
X151663Y354331D01*
X140645D02*
X142344Y352632D01*
X68898Y354331D02*
X144043D01*
X138164Y352524D02*
X139971Y354331D01*
X131510Y330280D02*
X155561Y354331D01*
X143964Y347114D02*
X147023Y344055D01*
X142330Y344851D02*
X144669Y342512D01*
X139225Y344058D02*
X144627Y338657D01*
X138945Y338583D02*
Y344102D01*
Y341613D02*
X141925Y344593D01*
X131510Y326383D02*
X144341Y339214D01*
X131510Y330671D02*
X138606Y337767D01*
X132850Y354331D02*
X136189Y350991D01*
X136748Y354331D02*
X138453Y352625D01*
X129749Y344109D02*
X135665Y350025D01*
X131510Y341973D02*
X135885Y346347D01*
X136645Y339059D02*
Y345321D01*
X131510Y336994D02*
Y344109D01*
X128953Y354331D02*
X135397Y347886D01*
X124395Y344109D02*
X131510D01*
X121158Y354331D02*
X131380Y344109D01*
X125055Y354331D02*
X136645Y342741D01*
X125851Y344109D02*
X136074Y354331D01*
X131510Y343978D02*
X136537Y338951D01*
X131510Y338075D02*
X136645Y343210D01*
X131510Y340081D02*
X134589Y337002D01*
X129630Y332298D02*
X136645Y339313D01*
X129884Y332298D02*
X136645Y339059D01*
X130700Y336994D02*
X132640Y335054D01*
X124395Y336994D02*
X131510D01*
X126802D02*
X130691Y333105D01*
X125733Y332298D02*
X130429Y336994D01*
X124395Y332298D02*
X129884D01*
X143970Y351005D02*
X183639Y311336D01*
X138164Y337325D02*
X161244Y314244D01*
X138945Y340441D02*
X160380Y319006D01*
X127018Y302403D02*
X160778Y336163D01*
X134266Y333427D02*
X162612Y305081D01*
X136215Y335376D02*
X160565Y311026D01*
X126648Y313726D02*
X167253Y354331D01*
X123881Y295368D02*
X163541Y335029D01*
X125589Y304871D02*
X159875Y339158D01*
X126452Y294043D02*
X186740Y354331D01*
X100464Y283644D02*
X171151Y354331D01*
X144080Y301561D02*
X151195D01*
X136682Y276991D02*
X160607Y300916D01*
X144080Y308676D02*
X151195D01*
X140580Y276991D02*
X162666Y299077D01*
X142579Y263400D02*
X171572Y292393D01*
X143121Y276991D02*
X158790Y292659D01*
X132317Y331479D02*
X157528Y306268D01*
X131510Y328388D02*
X153631Y306268D01*
X123467Y309150D02*
X149373Y283243D01*
X128387Y257003D02*
X161278Y289894D01*
X132785Y276991D02*
X159762Y303968D01*
X124359Y315334D02*
X146286Y337261D01*
X131510Y325183D02*
Y330671D01*
X124395Y325183D02*
X131510D01*
X126921D02*
X144080Y308024D01*
X130818Y325183D02*
X147326Y308676D01*
X126601Y313810D02*
X142901Y297510D01*
X93876Y354331D02*
X144080Y304126D01*
X89978Y354331D02*
X145481Y298828D01*
X93214Y315369D02*
X132176Y354331D01*
X94862Y326062D02*
X143527Y277397D01*
X68898Y263770D02*
X130310Y325183D01*
X126961Y282859D02*
X145663Y301561D01*
X144080D02*
Y308676D01*
X126981Y301738D02*
X147425Y281294D01*
X128887Y276991D02*
X144020Y292123D01*
X126505Y290522D02*
X140036Y276991D01*
X117920Y281613D02*
X144080Y307773D01*
X125260Y285056D02*
X144080Y303876D01*
X126285Y310229D02*
X142262Y294252D01*
X125346Y299476D02*
X145476Y279346D01*
X124990Y276991D02*
X142260Y294260D01*
X159148Y289058D02*
X182149Y266057D01*
X163118Y288986D02*
X178127Y273976D01*
X158120Y263945D02*
X177840D01*
X162612D02*
X179952Y281286D01*
X166509Y263945D02*
X179952Y277389D01*
X158714Y263945D02*
X179367Y284598D01*
X157200Y287109D02*
X178251Y266057D01*
X155251Y285161D02*
X176466Y263945D01*
X153302Y283212D02*
X172569Y263945D01*
X149227Y262253D02*
X175469Y288495D01*
X151864Y260993D02*
X177418Y286546D01*
X153072Y242713D02*
X172004Y261645D01*
X167074D02*
X177130Y251589D01*
X160867Y242713D02*
X177840Y259687D01*
X163176Y261645D02*
X175576Y249245D01*
X164764Y242713D02*
X181584Y259533D01*
X168661Y242713D02*
X175576Y249628D01*
X163765Y239778D02*
X170880D01*
X159279Y261645D02*
X175576Y245348D01*
X158596Y261645D02*
X177840D01*
X154437Y258693D02*
X170416Y242713D01*
X156969D02*
X175901Y261645D01*
X156989Y260038D02*
X174314Y242713D01*
X151353Y281263D02*
X168671Y263945D01*
X149405Y279314D02*
X164774Y263945D01*
X155983Y259032D02*
X158596Y261645D01*
X154691Y260993D02*
X157305Y263606D01*
X147456Y277366D02*
X160876Y263945D01*
X145507Y275417D02*
X157311Y263613D01*
X149227Y260993D02*
Y263400D01*
X149174Y242713D02*
X168106Y261645D01*
X145277Y242713D02*
X164209Y261645D01*
X149227Y258693D02*
X155167D01*
X150539D02*
X166519Y242713D01*
X157626Y239913D02*
X163765Y233774D01*
X161524Y239913D02*
X163765Y237672D01*
X149227Y260993D02*
X154691D01*
X149227Y258355D02*
X149564Y258693D01*
X149227Y256285D02*
Y258693D01*
X149049Y256285D02*
X162621Y242713D01*
X145152Y256285D02*
X158724Y242713D01*
X168774Y232663D02*
X179952Y221485D01*
X164876Y232663D02*
X179952Y217587D01*
X163765Y232663D02*
X170880D01*
X153410Y196282D02*
X179952Y222824D01*
X157307Y196282D02*
X179952Y218927D01*
X153729Y239913D02*
X179276Y214367D01*
X145934Y239913D02*
X175378Y210469D01*
X149831Y239913D02*
X177327Y212418D01*
X148788Y211147D02*
X170304Y232663D01*
X149643Y208105D02*
X181451Y239913D01*
X145615Y196282D02*
X183884Y234550D01*
X149513Y196282D02*
X180034Y226803D01*
X168890Y203981D02*
X179952Y215043D01*
X168628Y193892D02*
X186023Y211287D01*
X168710Y192095D02*
X187862Y211246D01*
X168599Y193864D02*
X170368Y192095D01*
X161320D02*
X200554D01*
X167058Y196282D02*
X168089Y197313D01*
X161796Y189795D02*
X200078D01*
X165083Y193482D02*
X166470Y192095D01*
X163765Y232663D02*
Y239778D01*
X148714Y214971D02*
X166406Y232663D01*
X148788Y213675D02*
X166181Y196282D01*
X148788Y210396D02*
Y214567D01*
X144890Y218941D02*
X163765Y237817D01*
X146838Y216993D02*
X163765Y233920D01*
X146488Y210396D02*
Y214091D01*
X161205Y196282D02*
X164134Y199211D01*
X165102Y196282D02*
X166224Y197404D01*
X161186Y193482D02*
X162573Y192095D01*
X160782Y191961D02*
X162302Y193482D01*
X164813Y192095D02*
X166200Y193482D01*
X149710Y208855D02*
X162283Y196282D01*
X148047Y206621D02*
X158386Y196282D01*
X157289Y193482D02*
X159759Y191011D01*
X153391Y193482D02*
X157811Y189062D01*
X135041Y274190D02*
X145832Y263400D01*
X138939Y274190D02*
X152137Y260993D01*
X142836Y274190D02*
X155363Y261664D01*
X142112Y256285D02*
Y263400D01*
X121963Y274190D02*
X143701D01*
X120902Y264945D02*
X143134Y242713D01*
X122543Y276991D02*
X143121D01*
X127561Y269978D02*
X154826Y242713D01*
X126502Y267140D02*
X150929Y242713D01*
X123592Y266153D02*
X147031Y242713D01*
X142112Y263400D02*
X149227D01*
X142112Y256285D02*
X149227D01*
X142112Y262933D02*
X142579Y263400D01*
X141379Y242713D02*
X160312Y261645D01*
X137482Y242713D02*
X153461Y258693D01*
X133584Y242713D02*
X147156Y256285D01*
X128915Y245839D02*
X142112Y259035D01*
X130519Y242713D02*
X197663D01*
X127174Y247995D02*
X142112Y262933D01*
X131099Y239913D02*
X197083D01*
X128339Y241365D02*
X143259Y256285D01*
X127022Y282210D02*
X132241Y276991D01*
X131144Y274190D02*
X142112Y263223D01*
X127154Y271360D02*
X129985Y274190D01*
X127246D02*
X142112Y259325D01*
X128489Y253460D02*
X139237Y242713D01*
X126016Y252037D02*
X135339Y242713D01*
X124008Y289122D02*
X136139Y276991D01*
X125767Y258280D02*
X141677Y274190D01*
X96934Y237242D02*
X133882Y274190D01*
X128990Y245164D02*
X131442Y242713D01*
X130160Y238975D02*
X131099Y239913D01*
X128590Y241365D02*
X129529Y242303D01*
X127659Y242599D02*
X128742Y241516D01*
X128155Y237284D02*
X129468Y238597D01*
X126693Y238565D02*
X129170D01*
X140992Y222839D02*
X158067Y239913D01*
X142941Y220890D02*
X161964Y239913D01*
X139044Y224787D02*
X154169Y239913D01*
X142037D02*
X173429Y208520D01*
X141718Y196282D02*
X185349Y239913D01*
X138139D02*
X171481Y206572D01*
X104778Y229497D02*
X164365Y289083D01*
X137095Y226736D02*
X150272Y239913D01*
X135146Y228685D02*
X146374Y239913D01*
X134242D02*
X169532Y204623D01*
X130721Y239536D02*
X166121Y204136D01*
X127795Y238565D02*
X164089Y202271D01*
X128976Y234855D02*
X148449Y215382D01*
X127842Y232737D02*
X146488Y214091D01*
X127945Y222825D02*
X154489Y196282D01*
X137820D02*
X148194Y206656D01*
X130025Y196282D02*
X146488Y212744D01*
X117542Y225434D02*
X146694Y196282D01*
X119543D02*
X167058D01*
X126472Y232092D02*
X146488Y212077D01*
X118963Y193482D02*
X167638D01*
X124548Y222325D02*
X150591Y196282D01*
X129300Y234531D02*
X134682Y239913D01*
X131249Y232582D02*
X138579Y239913D01*
X133197Y230634D02*
X142477Y239913D01*
X128938Y225730D02*
X145597Y209070D01*
X128799Y226235D02*
X131571Y229007D01*
X97448Y233859D02*
X137780Y274190D01*
X126804Y228138D02*
X129622Y230956D01*
X117542Y211081D02*
X133520Y227059D01*
X118938Y196887D02*
X141315Y219264D01*
X122230Y196282D02*
X143263Y217315D01*
X123888Y209632D02*
X137417Y223161D01*
X126128Y196282D02*
X145212Y215366D01*
X133923Y196282D02*
X145659Y208018D01*
X123778Y207505D02*
X135001Y196282D01*
X117542Y221536D02*
X142796Y196282D01*
X116989Y198836D02*
X139366Y221212D01*
X117888Y207529D02*
X135468Y225110D01*
X117542Y217639D02*
X138899Y196282D01*
X118139Y209247D02*
X131104Y196282D01*
X117260Y354331D02*
X127482Y344109D01*
X113363Y354331D02*
X124395Y343298D01*
Y336994D02*
Y344109D01*
X101671Y354331D02*
X124395Y331606D01*
X105568Y354331D02*
X127601Y332298D01*
X109465Y354331D02*
X124395Y339401D01*
X95762Y314019D02*
X124395Y342653D01*
X95762Y310122D02*
X124395Y338755D01*
X97773Y354331D02*
X124395Y327709D01*
Y325183D02*
Y332298D01*
X95762Y313470D02*
X123863Y285368D01*
X108259Y283644D02*
X123739Y299124D01*
X94377Y304839D02*
X126531Y336994D01*
X95761Y302326D02*
X124395Y330960D01*
X91606Y337113D02*
X123392Y305327D01*
X95225Y293995D02*
X126413Y325183D01*
X92700Y295368D02*
X124395Y327063D01*
X95924Y329771D02*
X120484Y354331D01*
X96075Y340439D02*
X121882Y314632D01*
X95951Y341490D02*
X108791Y354331D01*
X96077Y328745D02*
X121129Y303692D01*
X95762Y309572D02*
X121322Y284013D01*
X95762Y309120D02*
Y315369D01*
X94155Y331899D02*
X116586Y354331D01*
X94798Y337819D02*
X120803Y311813D01*
X94232Y343669D02*
X104894Y354331D01*
X91763Y325264D02*
X122176Y294851D01*
X94054Y285029D02*
X120808Y311783D01*
X96566Y283644D02*
X122416Y309493D01*
X95431Y283644D02*
X115309D01*
X95732Y301808D02*
X113895Y283644D01*
X104361D02*
X121270Y300553D01*
X115916Y283506D02*
X122099Y289689D01*
X112156Y283644D02*
X120773Y292261D01*
X92824Y289125D02*
X98306Y283644D01*
X89513Y309120D02*
X95762D01*
X94138Y299504D02*
X109998Y283644D01*
X95276Y290571D02*
X102203Y283644D01*
X121818Y277716D02*
X123283Y279181D01*
X119869Y279664D02*
X121086Y280882D01*
X125666Y279668D02*
X128344Y276991D01*
X92317Y309120D02*
X124446Y276991D01*
X116299Y283234D02*
X122543Y276991D01*
X114729Y280844D02*
X120973Y274601D01*
X112798Y280844D02*
X121471Y272171D01*
X104307Y256308D02*
X122190Y274190D01*
X108900Y280844D02*
X120484Y269261D01*
X125000Y273103D02*
X126087Y274190D01*
X123349D02*
X124309Y273230D01*
X118953Y262996D02*
X124169Y257781D01*
X117005Y261048D02*
X122745Y255307D01*
X109012Y256308D02*
X120822Y268118D01*
X110303Y254346D02*
X122449Y266491D01*
X108204Y256308D02*
X120597Y268700D01*
X115056Y259099D02*
X125873Y248282D01*
X113107Y257150D02*
X123307Y246950D01*
X95431Y280844D02*
X114729D01*
X101106D02*
X117327Y264623D01*
X105003Y280844D02*
X119276Y266571D01*
X97208Y280844D02*
X115378Y262674D01*
X90062Y273242D02*
X97664Y280844D01*
X92140Y271423D02*
X101561Y280844D01*
X94453Y279701D02*
X113430Y260725D01*
X92140Y267525D02*
X105459Y280844D01*
X94589Y258282D02*
X115940Y279633D01*
X97731Y257526D02*
X117889Y277684D01*
X97731Y256308D02*
Y258282D01*
X100409Y256308D02*
X119838Y275736D01*
X97731Y256308D02*
X109012D01*
X97731Y256937D02*
X98360Y256308D01*
X92140Y270322D02*
X106155Y256308D01*
X91482Y258282D02*
X97731D01*
X92140Y266128D02*
Y273242D01*
Y266425D02*
X102258Y256308D01*
X91482Y252033D02*
Y258282D01*
X82183Y354331D02*
X92407Y344107D01*
X78286Y354331D02*
X89787Y342829D01*
X86081Y354331D02*
X125464Y314948D01*
X79794Y305846D02*
X128279Y354331D01*
X76549Y306499D02*
X124381Y354331D01*
X70491D02*
X92524Y332298D01*
X68898Y330027D02*
X93202Y354331D01*
X68898Y352027D02*
X89842Y331082D01*
X68898Y322232D02*
X100996Y354331D01*
X68898Y310540D02*
X112689Y354331D01*
X68898Y326129D02*
X97099Y354331D01*
X89513Y315369D02*
X95762D01*
X68898Y324744D02*
X89897Y303745D01*
X84013Y298373D02*
X94760Y309120D01*
X83204Y302644D02*
X90965Y294883D01*
X83575Y301832D02*
X90863Y309120D01*
X68898Y340334D02*
X93863Y315369D01*
X68898Y314437D02*
X91580Y337120D01*
X68898Y336437D02*
X89966Y315369D01*
X68898Y328642D02*
X92202Y305338D01*
X68898Y302745D02*
X91488Y325335D01*
X74388Y354331D02*
X89082Y339638D01*
X68898Y333924D02*
X89304Y354331D01*
X68898Y348129D02*
X89044Y327983D01*
X68898Y318335D02*
X89402Y338839D01*
X68898Y332539D02*
X89513Y311924D01*
X68898Y306642D02*
X89360Y327105D01*
X68898Y349514D02*
X73714Y354331D01*
X68898Y345617D02*
X77612Y354331D01*
X68898Y353412D02*
X69817Y354331D01*
X68898Y337822D02*
X85407Y354331D01*
X68898Y341719D02*
X81509Y354331D01*
X89513Y309120D02*
Y315369D01*
X82067Y304222D02*
X89513Y311668D01*
X68898Y298847D02*
X69485Y299435D01*
X83958Y297991D02*
X89519Y292431D01*
X68898Y294950D02*
X70138Y296190D01*
X68898Y297462D02*
X70112Y296248D01*
X68898Y316950D02*
X80203Y305644D01*
X68898Y313052D02*
X75550Y306399D01*
X68898Y309155D02*
X72756Y305296D01*
X68898Y305257D02*
X70784Y303371D01*
X68898Y301360D02*
X69622Y300635D01*
X82855Y295197D02*
X92684Y285368D01*
X80930Y293225D02*
X90095Y284060D01*
X73807Y292553D02*
X109532Y256828D01*
X78194Y292063D02*
X111481Y258776D01*
X68898Y240386D02*
X109356Y280844D01*
X68898Y344232D02*
X120775Y292354D01*
X68898Y320847D02*
X106100Y283644D01*
X68898Y275463D02*
X92556Y299121D01*
X68898Y281873D02*
X92488Y258282D01*
X68898Y267668D02*
X90887Y289657D01*
X85025Y273242D02*
X92140D01*
X85025Y266128D02*
X92140D01*
X86165Y273242D02*
X92090Y279168D01*
X88540Y266128D02*
X96386Y258282D01*
X82298Y260678D02*
X93456Y249519D01*
X82298Y256780D02*
X92081Y246997D01*
X68898Y277975D02*
X91482Y255391D01*
X68898Y262386D02*
X93291Y237992D01*
X82298Y257683D02*
X90742Y266128D01*
X68898Y236488D02*
X113254Y280844D01*
X68898Y258488D02*
X91555Y235830D01*
X68898Y289667D02*
X85322Y273242D01*
X68898Y283257D02*
X77612Y291971D01*
X68898Y285770D02*
X85025Y269643D01*
X68898Y259873D02*
X89853Y280828D01*
X68898Y274078D02*
X79576Y263400D01*
X68898Y279360D02*
X90042Y300505D01*
X68898Y287155D02*
X74152Y292410D01*
X68898Y291052D02*
X71762Y293917D01*
X68898Y271565D02*
X89514Y292181D01*
X68898Y293565D02*
X89220Y273242D01*
X85025Y266128D02*
Y273242D01*
X76322Y263400D02*
X85025Y272103D01*
X75183Y263400D02*
X82298D01*
X80220D02*
X85025Y268205D01*
X82298Y261580D02*
X86845Y266128D01*
X82298Y256285D02*
Y263400D01*
X68898Y270180D02*
X75678Y263400D01*
X75183Y256285D02*
Y263400D01*
X68898Y266283D02*
X75183Y259998D01*
X68898Y252078D02*
X75183Y258363D01*
X68898Y255975D02*
X75183Y262260D01*
X123954Y242406D02*
X125274Y241086D01*
X126113Y241365D02*
X128590D01*
X111159Y255201D02*
X122327Y244033D01*
X109083Y227535D02*
X124117Y242569D01*
X104558Y254008D02*
X118430Y240135D01*
X108455Y254008D02*
X120379Y242084D01*
X100660Y254008D02*
X116481Y238187D01*
X100881Y229497D02*
X124021Y252636D01*
X107791Y229497D02*
X122809Y244514D01*
X96983Y229497D02*
X122743Y255257D01*
X122005Y240457D02*
X123316Y239147D01*
X126370Y238241D02*
X126693Y238565D01*
X120056Y238509D02*
X121367Y237198D01*
X121398Y233270D02*
X126439Y228229D01*
X118108Y236560D02*
X119418Y235249D01*
X115152Y230983D02*
X125123Y240954D01*
X116159Y234611D02*
X117470Y233301D01*
X114210Y232663D02*
X115521Y231352D01*
X117542Y229413D02*
X122783Y234654D01*
X97731Y254008D02*
X109488D01*
X97731Y253629D02*
X98110Y254008D01*
X97731Y253040D02*
X114533Y236238D01*
X97731Y252033D02*
Y254008D01*
X95969Y247969D02*
X102007Y254008D01*
X95756Y248063D02*
Y252033D01*
X93456Y248063D02*
Y252033D01*
X94021Y238227D02*
X109865Y254071D01*
X97670Y245773D02*
X105904Y254008D01*
X97729Y245246D02*
X110635Y232340D01*
X96446Y242632D02*
X108686Y230392D01*
X112261Y230714D02*
X114742Y228234D01*
X97440Y233843D02*
X101787Y229497D01*
X95756Y252033D02*
X97731D01*
X95756Y251117D02*
X112584Y234289D01*
X95756Y251654D02*
X96135Y252033D01*
X95279Y232106D02*
X97889Y229497D01*
X93086D02*
X95905Y232316D01*
X119449Y231321D02*
X123534Y227237D01*
X117542Y229331D02*
X123033Y223840D01*
X117542Y218876D02*
X122886Y224219D01*
X117542Y214978D02*
X124788Y222225D01*
X117542Y213741D02*
X120891Y210392D01*
X117542Y210201D02*
Y229413D01*
Y226670D02*
X123740Y232868D01*
X117542Y222773D02*
X127025Y232256D01*
X110313Y228765D02*
X114742Y224336D01*
X104087Y227197D02*
X114742Y216541D01*
X109007Y210341D02*
X114742Y216075D01*
X107984Y227197D02*
X114742Y220439D01*
X115040Y200784D02*
X121077Y206821D01*
X116801Y206687D02*
X127206Y196282D01*
X111636Y204188D02*
X119543Y196282D01*
X113092Y202733D02*
X117274Y206915D01*
X112013Y207578D02*
X123309Y196282D01*
X109246Y202618D02*
X117973Y193892D01*
X100189Y227197D02*
X114742Y212644D01*
Y210201D02*
Y229993D01*
X112117Y209553D02*
X114742Y212178D01*
X97657Y225831D02*
X114168Y209320D01*
X97560Y226176D02*
X98581Y227197D01*
X96974D02*
X108268D01*
X96727Y222863D02*
X109153Y210438D01*
X93431Y222263D02*
X108836Y206857D01*
X111636Y205175D02*
X114252Y207790D01*
X111636Y204188D02*
Y207122D01*
X108836Y203608D02*
Y207122D01*
X91482Y252033D02*
X93456D01*
X78895Y256285D02*
X105684Y229497D01*
X79725Y227828D02*
X93991Y242094D01*
X85291Y229497D02*
X91537Y235743D01*
X68898Y232591D02*
X91482Y255175D01*
X68898Y254591D02*
X93992Y229497D01*
X68898Y250693D02*
X90094Y229497D01*
X68898Y228693D02*
X92238Y252033D01*
X68898Y224796D02*
X93456Y249354D01*
X68898Y220898D02*
X91795Y243795D01*
X89188Y229497D02*
X92522Y232830D01*
X88497Y227197D02*
X91711Y223982D01*
X87765Y224175D02*
X90786Y227197D01*
X87764Y216380D02*
X93588Y222204D01*
X82677Y229497D02*
X107791D01*
X83153Y227197D02*
X92239D01*
X84599D02*
X87448Y224348D01*
X87764Y220278D02*
X91646Y224159D01*
X75183Y256285D02*
X82298D01*
X68898Y235103D02*
X76687Y227314D01*
X80307Y227603D02*
X81862Y229157D01*
X68898Y231206D02*
X75215Y224888D01*
X68898Y244283D02*
X80900Y256285D01*
X68898Y246796D02*
X86197Y229497D01*
X68898Y248180D02*
X77002Y256285D01*
X68898Y242898D02*
X82348Y229448D01*
X68898Y239001D02*
X80284Y227614D01*
X81934Y225977D02*
X83153Y227197D01*
X81945Y225953D02*
X84683Y223216D01*
X81645Y222356D02*
X85464Y218537D01*
X79890Y216301D02*
X84880Y221291D01*
X79890Y220198D02*
X86888Y227197D01*
X68898Y227308D02*
X77590Y218616D01*
X68898Y223411D02*
X77590Y214718D01*
X68898Y217001D02*
X75322Y223425D01*
X89989Y206913D02*
X125185Y242108D01*
X91701Y204727D02*
X114742Y227768D01*
X88041Y208861D02*
X106376Y227197D01*
X91701Y200830D02*
X114742Y223870D01*
X91701Y196932D02*
X114742Y219973D01*
X91701Y193035D02*
X108557Y209891D01*
X87764Y212483D02*
X102478Y227197D01*
X87764Y209138D02*
X91362Y205540D01*
X87764Y209138D02*
Y220706D01*
X79890Y208521D02*
X89401Y199010D01*
X79890Y212418D02*
X89401Y202907D01*
X85803Y207846D02*
X89401Y204248D01*
X91701Y189137D02*
X108836Y206273D01*
X79890Y196829D02*
X89401Y187318D01*
X79890Y189019D02*
X89401Y198530D01*
X79890Y196814D02*
X88363Y205286D01*
X79890Y204624D02*
X89401Y195113D01*
X79890Y200711D02*
X86414Y207235D01*
X79890Y200726D02*
X89401Y191215D01*
X79890Y192916D02*
X89401Y202427D01*
X79890Y212403D02*
X85464Y217977D01*
X79890Y216316D02*
X85464Y210742D01*
X79890Y220213D02*
X85464Y214639D01*
Y208661D02*
Y220706D01*
X79890Y208506D02*
X85464Y214080D01*
X68898Y211719D02*
X77590Y203026D01*
X68898Y219514D02*
X77590Y210821D01*
X68898Y209206D02*
X77590Y217898D01*
X68898Y213103D02*
X77065Y221271D01*
X68898Y205308D02*
X77590Y214001D01*
X68898Y215616D02*
X77590Y206924D01*
X79890Y204609D02*
X85464Y210183D01*
X68898Y189719D02*
X77590Y198411D01*
X68898Y196129D02*
X77590Y187436D01*
X68898Y200026D02*
X77590Y191334D01*
X68898Y207821D02*
X77590Y199129D01*
X68898Y197513D02*
X77590Y206206D01*
X68898Y201411D02*
X77590Y210104D01*
X68898Y193616D02*
X77590Y202309D01*
X68898Y203924D02*
X77590Y195231D01*
X169818Y181510D02*
X178103Y189795D01*
X161386Y189385D02*
X169260Y181510D01*
X159437Y187436D02*
X166285Y180588D01*
X168770Y189795D02*
X194434Y164131D01*
X169303Y161508D02*
X197590Y189795D01*
X164873D02*
X192486Y162182D01*
X156662Y184661D02*
X161796Y189795D01*
X157035Y184317D02*
X162513Y189795D01*
X154701Y185952D02*
X160504Y191756D01*
X146581Y166069D02*
X170308Y189795D01*
X156954Y172544D02*
X174205Y189795D01*
X158876Y182260D02*
X166410Y189795D01*
X166285Y181510D02*
X172534D01*
X166285Y175261D02*
X172534D01*
X166285D02*
Y181510D01*
X160282Y164179D02*
X171364Y175261D01*
X162231Y162231D02*
X166748Y166748D01*
X158937Y180141D02*
X167937Y171141D01*
X158844Y170537D02*
X166285Y177977D01*
X157488Y185487D02*
X166285Y176690D01*
X156741Y164536D02*
X167466Y175261D01*
X157206Y177974D02*
X166321Y168859D01*
X154362Y184469D02*
Y185137D01*
X145596Y193482D02*
X154362Y184716D01*
X149494Y193482D02*
X155862Y187113D01*
X144633Y168017D02*
X154354Y177739D01*
X152843Y164536D02*
X154267Y165959D01*
X148114Y164536D02*
X159449D01*
X148946D02*
X152260Y167850D01*
X157282Y166206D02*
X158952Y164536D01*
X144516Y168134D02*
X148114Y164536D01*
X143225Y166173D02*
X146823Y162575D01*
X147638Y162236D02*
X158973D01*
X164536Y148946D02*
X202731Y187142D01*
X167714Y175261D02*
X189545Y153431D01*
X164536Y137254D02*
X209041Y181759D01*
X169883Y165297D02*
X189545Y145636D01*
X164536Y131890D02*
Y159449D01*
X158962Y168424D02*
X167005Y160381D01*
X164179Y160282D02*
X169168Y165271D01*
X160264Y164197D02*
X164197Y160264D01*
X164536Y148946D02*
X202731Y187142D01*
X164536Y145049D02*
X166570Y147083D01*
X164536Y151157D02*
X166415Y149278D01*
X167749Y155739D02*
X203066Y120422D01*
X164536Y147260D02*
X193191Y118605D01*
X164536Y141151D02*
X168722Y145338D01*
X164536Y158952D02*
X166763Y156726D01*
X164536Y152843D02*
X167560Y155868D01*
X164536Y156741D02*
X166287Y158492D01*
X164536Y133356D02*
X189545Y158365D01*
X164536Y155055D02*
X168289Y151302D01*
X157140Y161038D02*
X158338Y162236D01*
X157355D02*
X158553Y161038D01*
X153457Y162236D02*
X154656Y161038D01*
X158973Y162236D02*
X162236Y158973D01*
X159069Y153923D02*
Y161038D01*
X158553D02*
X159069Y160521D01*
X153243Y161038D02*
X154441Y162236D01*
X151954Y161038D02*
X159069D01*
X149560Y162236D02*
X151954Y159842D01*
Y153923D02*
Y161038D01*
X141726Y166173D02*
X151954Y155944D01*
X159069Y160521D02*
X162236Y157355D01*
X159069Y155172D02*
X162236Y158338D01*
X159069Y159069D02*
X160604Y160604D01*
X162236Y132366D02*
Y158973D01*
X157873Y153923D02*
X162236Y149560D01*
X159069Y156624D02*
X162236Y153457D01*
X151038Y143243D02*
X162236Y154441D01*
X153976Y153923D02*
X162236Y145663D01*
X151954Y153923D02*
X159069D01*
X147030Y143132D02*
X157820Y153923D01*
X143132Y143132D02*
X153923Y153923D01*
X130006Y193482D02*
X152426Y171062D01*
X133904Y193482D02*
X154644Y172741D01*
X141699Y193482D02*
X152384Y182797D01*
X127015Y169887D02*
X150610Y193482D01*
X129498Y168473D02*
X154507Y193482D01*
X123672Y170441D02*
X146713Y193482D01*
X122301Y184660D02*
X131123Y193482D01*
X123636Y182098D02*
X135020Y193482D01*
X118403Y184660D02*
X127225Y193482D01*
X88521Y223275D02*
X143323Y168473D01*
X122182Y172849D02*
X142815Y193482D01*
X123636Y178200D02*
X138918Y193482D01*
X133396Y168473D02*
X158405Y193482D01*
X137293Y168473D02*
X154496Y185675D01*
X128429Y168473D02*
X143701D01*
X141191D02*
X152297Y179579D01*
X127953Y166173D02*
X143225D01*
X123636Y184262D02*
X139426Y168473D01*
X123636Y180365D02*
X135528Y168473D01*
X122559Y177545D02*
X131631Y168473D01*
X126799Y170102D02*
X128429Y168473D01*
X123636Y177545D02*
Y184660D01*
X121229Y177545D02*
X123636D01*
X123239Y184660D02*
X123636Y184262D01*
X121229Y174977D02*
X123357Y172849D01*
X121229D02*
X123636D01*
X121229Y175793D02*
X122981Y177545D01*
X106210Y176364D02*
X123328Y193482D01*
X116521Y184660D02*
X123636D01*
X87764Y220134D02*
X123239Y184660D01*
X121229Y172849D02*
Y177545D01*
X101959Y176011D02*
X119430Y193482D01*
X123636Y168141D02*
X125508D01*
X123636Y166508D02*
X125269Y168141D01*
X125508D02*
X127137Y166512D01*
X123636Y165734D02*
Y168141D01*
Y170441D02*
Y172849D01*
Y172570D02*
X125765Y170441D01*
X123357Y172849D02*
X123636Y172570D01*
Y170441D02*
X125984D01*
X116521Y165734D02*
X123636D01*
X126109Y193482D02*
X155055Y164536D01*
X137801Y193482D02*
X169797Y161486D01*
X124167Y168141D02*
X148702Y143607D01*
X133931Y166173D02*
X162236Y137868D01*
X130033Y166173D02*
X162236Y133970D01*
X137828Y166173D02*
X162236Y141765D01*
X122211Y193482D02*
X151157Y164536D01*
X122677Y165734D02*
X145279Y143132D01*
X123197Y146582D02*
X142788Y166173D01*
X123197Y138787D02*
X146908Y162497D01*
X123197Y142684D02*
X144955Y164442D01*
X123197Y130992D02*
X151954Y159749D01*
X123197Y149624D02*
X158059Y114763D01*
X139911Y143808D02*
X151954Y155852D01*
X134902Y99825D02*
X189545Y154468D01*
X138800Y99825D02*
X189545Y150570D01*
X123197Y145727D02*
X156110Y112814D01*
X122139Y154580D02*
X160007Y116712D01*
X117435Y105742D02*
X162236Y150543D01*
X123197Y134890D02*
X150543Y162236D01*
X119383Y103794D02*
X162236Y146646D01*
X119383Y103794D02*
X162236Y146646D01*
X123472Y158549D02*
X131096Y166173D01*
X122401Y153580D02*
X134993Y166173D01*
X121682Y160656D02*
X127362Y166336D01*
X123197Y150479D02*
X138891Y166173D01*
X123605Y157011D02*
X137920Y142697D01*
X121679Y154303D02*
X122858Y153123D01*
X117542Y160414D02*
X122862Y165734D01*
X107944Y172672D02*
X119609Y161007D01*
X118780Y165734D02*
X141381Y143132D01*
X119268Y153461D02*
X120897Y151831D01*
X123197Y127795D02*
Y152308D01*
X120897Y128272D02*
Y151831D01*
X117542Y151382D02*
X120897Y148027D01*
X117542Y144824D02*
X120897Y148179D01*
X117542Y148721D02*
X120774Y151954D01*
X117542Y140926D02*
X120897Y144282D01*
X117542Y147485D02*
X120897Y144129D01*
X164536Y139465D02*
X173672Y130329D01*
X167323Y123447D02*
X187008D01*
X164536Y135568D02*
X170222Y129882D01*
X167903Y120647D02*
X186428D01*
X164536Y143363D02*
X184451Y123447D01*
X164518Y131688D02*
X170222Y125984D01*
X162715Y129593D02*
X168861Y123447D01*
X142697Y99825D02*
X170222Y127350D01*
X143121Y99825D02*
X166333Y123037D01*
X160997Y127414D02*
X165853Y122558D01*
X167833Y120578D02*
X170344Y118068D01*
X168680Y111936D02*
X171170Y109446D01*
X166732Y109987D02*
X170331Y106388D01*
X166504Y106317D02*
X172586Y100235D01*
X166504Y100248D02*
X171195Y104939D01*
X166504Y104145D02*
X170313Y107954D01*
X165885Y118629D02*
X169003Y115511D01*
X164543Y111051D02*
X170254Y116762D01*
X163936Y116680D02*
X167054Y113562D01*
X166504Y108043D02*
X172626Y114164D01*
X166504Y109760D02*
X171459Y114715D01*
X148294Y140117D02*
X156942Y131469D01*
X158609Y131326D02*
X162236Y134954D01*
X160161Y130291D02*
X162236Y132366D01*
X151481Y140828D02*
X161089Y131219D01*
X141304Y140332D02*
X148066D01*
X141304Y143132D02*
X148066D01*
X144181Y140332D02*
X154548Y129966D01*
X140728Y139888D02*
X154346Y126271D01*
X161987Y114732D02*
X165105Y111614D01*
X161185Y128063D02*
X164197Y131075D01*
X160038Y112783D02*
X164204Y108617D01*
X159494Y125020D02*
X163905Y120609D01*
X155798Y124818D02*
X161956Y118660D01*
X156141Y108886D02*
X164204Y100822D01*
X158090Y110834D02*
X164204Y104720D01*
X166504Y102420D02*
X170479Y98445D01*
X164842Y96287D02*
X173408Y87721D01*
X166504Y98522D02*
X213845Y51181D01*
X161038Y92296D02*
X202153Y51181D01*
X162893Y94338D02*
X171741Y85490D01*
X161038Y90884D02*
X174427Y104273D01*
X133028Y51181D02*
X176193Y94347D01*
X144691Y97435D02*
X167903Y120647D01*
X144419Y97223D02*
X190461Y51181D01*
X140719Y97025D02*
X186563Y51181D01*
X136822Y97025D02*
X182666Y51181D01*
X156577Y88962D02*
X194358Y51181D01*
X160310D02*
X189834Y80706D01*
X156412Y51181D02*
X187885Y82654D01*
X160475Y88962D02*
X198256Y51181D01*
X168105D02*
X193732Y76808D01*
X164207Y51181D02*
X191783Y78757D01*
X140822Y51181D02*
X172268Y82626D01*
X144720Y51181D02*
X174667Y81128D01*
X136925Y51181D02*
X172051Y86308D01*
X152515Y51181D02*
X185937Y84603D01*
X148617Y51181D02*
X183988Y86552D01*
X166504Y98425D02*
Y109760D01*
X164204Y98901D02*
Y110236D01*
X158436Y96077D02*
X164204Y101845D01*
X161038Y95735D02*
X164204Y98901D01*
X154539Y96077D02*
X164204Y105743D01*
X154192Y106937D02*
X163216Y97913D01*
X152243Y104988D02*
X161267Y95964D01*
X150295Y103039D02*
X157257Y96077D01*
X146397Y99142D02*
X153923Y91616D01*
X148346Y101091D02*
X153923Y95514D01*
X162241Y93686D02*
X166165Y97610D01*
X161038Y93347D02*
X161426D01*
X161038Y95735D02*
Y96077D01*
Y88962D02*
Y93347D01*
X153923Y96077D02*
X161038D01*
X153923Y88962D02*
X161038D01*
X153923D02*
Y96077D01*
X128447Y124549D02*
X144230Y140332D01*
X129587Y121792D02*
X148096Y140301D01*
X125131Y125131D02*
X139654Y139654D01*
X124839Y101455D02*
X162236Y138851D01*
X128246Y100964D02*
X154106Y126824D01*
X123197Y130137D02*
X148315Y105019D01*
X123197Y141829D02*
X154161Y110865D01*
X119365Y123262D02*
X137688Y141585D01*
X121332Y101845D02*
X162236Y142749D01*
X123197Y137932D02*
X152212Y108917D01*
X123197Y134034D02*
X150264Y106968D01*
X129112Y120325D02*
X146366Y103070D01*
X126758Y118782D02*
X144418Y101122D01*
X119597Y122045D02*
X141817Y99825D01*
X131005D02*
X155930Y124751D01*
X129127Y99825D02*
X143121D01*
X114855Y118992D02*
X134022Y99825D01*
X115486Y107691D02*
X126554Y118760D01*
X114855Y111197D02*
X124674Y101378D01*
X118310Y119434D02*
X137919Y99825D01*
X114855Y115095D02*
X130124Y99825D01*
X117542Y129234D02*
X120897Y132590D01*
X117542Y131895D02*
X120897Y128539D01*
X117542Y135792D02*
X120897Y132437D01*
X117671Y125046D02*
X120897Y128272D01*
X117542Y137029D02*
X120897Y140384D01*
X117542Y139690D02*
X120897Y136334D01*
X117542Y143587D02*
X120897Y140232D01*
X117371Y125166D02*
X120897Y128692D01*
X117542Y133132D02*
X120897Y136487D01*
X122658Y126779D02*
X124577Y124859D01*
X120709Y124830D02*
X123034Y122506D01*
X119298Y123419D02*
X122858Y126980D01*
X118642Y100575D02*
X121782Y97435D01*
X114855Y114855D02*
X123215Y123215D01*
X114855Y110957D02*
X123797Y119899D01*
X114855Y108322D02*
X123221Y99956D01*
X128113Y77447D02*
X171314Y120647D01*
X129439Y74874D02*
X164204Y109640D01*
X129127Y97025D02*
X143701D01*
X132924D02*
X178768Y51181D01*
X129095Y96957D02*
X174871Y51181D01*
X125233D02*
X170355Y96303D01*
X109439Y97125D02*
X155384Y51181D01*
X124324Y77555D02*
X143798Y97029D01*
X119111Y76239D02*
X139897Y97025D01*
X119413Y98844D02*
X167076Y51181D01*
X118368Y95992D02*
X163179Y51181D01*
X126931Y95223D02*
X170973Y51181D01*
X121335D02*
X159116Y88962D01*
X119363Y75510D02*
X143691Y51181D01*
X129130D02*
X172234Y94285D01*
X129170Y73497D02*
X151486Y51181D01*
X127117Y71653D02*
X147589Y51181D01*
X113540D02*
X153923Y91564D01*
X68898Y51181D02*
X305118D01*
X109643D02*
X153923Y95461D01*
X115196Y95266D02*
X159281Y51181D01*
X117438D02*
X155219Y88962D01*
X122772Y97025D02*
X123156D01*
X109439Y74362D02*
X132102Y97025D01*
X116970Y77995D02*
X136000Y97025D01*
X109280Y78101D02*
X126312Y95132D01*
X107540Y95128D02*
X124836Y77831D01*
X105383Y78101D02*
X123603Y96321D01*
X103642Y95128D02*
X122992Y75778D01*
X83963Y60578D02*
X121301Y97916D01*
X107777Y71505D02*
X128102Y51181D01*
X118489Y72486D02*
X139794Y51181D01*
X115511Y71566D02*
X135896Y51181D01*
X109439Y73741D02*
X131999Y51181D01*
X97951D02*
X123390Y76621D01*
X101848Y51181D02*
X123498Y72832D01*
X82525Y88962D02*
X120307Y51181D01*
X105745D02*
X126071Y71506D01*
X103880Y71505D02*
X124204Y51181D01*
X116521Y177545D02*
X118929D01*
X118661D02*
X118929Y177277D01*
X116521Y177545D02*
Y184660D01*
X118929Y172849D02*
Y177545D01*
X110539Y169000D02*
X118929Y177391D01*
X118284Y172849D02*
X118929Y173493D01*
X91701Y204505D02*
X116521Y179685D01*
X94732Y176579D02*
X115009Y196856D01*
X92784Y178528D02*
X113060Y198804D01*
X96681Y174630D02*
X116958Y194907D01*
X108590Y170949D02*
X116521Y178881D01*
X107874Y174130D02*
X116521Y182778D01*
Y172849D02*
X118929D01*
X116385Y163154D02*
X118964Y165734D01*
X116521D02*
Y172849D01*
X117542Y159974D02*
Y161417D01*
X107709Y171830D02*
X117132Y162407D01*
X114436Y165103D02*
X116521Y167188D01*
X112487Y167052D02*
X116521Y171086D01*
X105729Y169850D02*
X114742Y160837D01*
X111265Y161932D02*
X112456Y163123D01*
X102527Y168784D02*
X103429Y169685D01*
X105589Y167948D02*
X106610Y168969D01*
X102997Y169824D02*
X104709Y168113D01*
X91701Y185240D02*
X109167Y202705D01*
X91701Y181343D02*
X111112Y200753D01*
X91701Y179610D02*
Y204724D01*
X98630Y172681D02*
X101549Y175600D01*
X100579Y170733D02*
X101195Y171349D01*
X109373Y163937D02*
X110507Y165072D01*
X109378Y163902D02*
X111047Y162233D01*
X108077Y166539D02*
X108559Y167020D01*
X107836Y162191D02*
X109086Y160941D01*
X102067Y159871D02*
Y160357D01*
X118556Y154265D02*
X119041Y153780D01*
X117542Y152619D02*
X118955Y154032D01*
X117542Y126695D02*
Y154987D01*
X111386Y161435D02*
X114742Y158080D01*
X111386Y154258D02*
X114742Y157614D01*
X111386Y158156D02*
X114405Y161174D01*
X114742Y127275D02*
Y160837D01*
X111386Y157538D02*
X114742Y154182D01*
X111386Y104807D02*
Y161417D01*
Y149743D02*
X114742Y146387D01*
X111386Y142566D02*
X114742Y145921D01*
X111386Y146463D02*
X114742Y149819D01*
X111386Y138668D02*
X114742Y142024D01*
X111386Y141948D02*
X114742Y138592D01*
X111386Y145845D02*
X114742Y142490D01*
X111386Y150361D02*
X114742Y153716D01*
X107987Y150859D02*
X109086Y151958D01*
X107987Y153142D02*
X109086Y152043D01*
X111386Y153640D02*
X114742Y150285D01*
X107659Y149572D02*
X109086Y148145D01*
X107507Y161417D02*
X109086Y159838D01*
X104867Y159432D02*
X105087Y159652D01*
X104867Y159291D02*
Y159612D01*
X109086Y125345D02*
Y160941D01*
X105318Y159708D02*
X109086Y155940D01*
X106217Y156884D02*
X109086Y159753D01*
X103041Y156884D02*
X104457Y158301D01*
X103643Y157486D02*
X104245Y156884D01*
X103041D02*
X107987D01*
Y154756D02*
X109086Y155856D01*
X100675Y149572D02*
Y154519D01*
X107987Y149572D02*
Y156884D01*
X103762Y149572D02*
X109086Y144248D01*
X100675Y149572D02*
X107987D01*
X97796Y151640D02*
X109086Y140350D01*
X95848Y149691D02*
X109086Y136453D01*
X99745Y153589D02*
X100675Y152659D01*
X91950Y145794D02*
X109086Y128658D01*
X93899Y147743D02*
X109086Y132555D01*
X87764Y212339D02*
X116521Y183582D01*
X91701Y188915D02*
X103774Y176842D01*
X89401Y179134D02*
Y204248D01*
X91701Y200607D02*
X118929Y173380D01*
X91701Y192813D02*
X116521Y167992D01*
X91701Y196710D02*
X116521Y171890D01*
X87764Y216237D02*
X119341Y184660D01*
X79890Y192931D02*
X89401Y183420D01*
X79890Y185121D02*
X89401Y194632D01*
X79890Y189034D02*
X89401Y179523D01*
X75953Y173389D02*
X89401Y186837D01*
X79890Y181224D02*
X89401Y190735D01*
X91701Y185018D02*
X101360Y175359D01*
X91701Y179610D02*
X103228Y168083D01*
X89740Y178319D02*
X101840Y166219D01*
X91701Y181120D02*
X100927Y171895D01*
X75953Y169492D02*
X89401Y182940D01*
X75953Y165594D02*
X89404Y179046D01*
X79890Y185136D02*
X100811Y164216D01*
X75953Y161697D02*
X91157Y176901D01*
X79890Y181102D02*
Y221043D01*
X77590Y181579D02*
Y221043D01*
X68898Y174129D02*
X77590Y182821D01*
X73992Y177981D02*
X77590Y181579D01*
X68898Y184437D02*
X74673Y178661D01*
X68898Y192231D02*
X77590Y183539D01*
X68898Y181924D02*
X77590Y190616D01*
X68898Y185821D02*
X77590Y194514D01*
X68898Y178026D02*
X77590Y186719D01*
X68898Y188334D02*
X76622Y180610D01*
X75953Y176689D02*
X79551Y180287D01*
X68898Y162436D02*
X73653Y167192D01*
X68898Y164949D02*
X73653Y160194D01*
X68898Y168847D02*
X73653Y164091D01*
X68898Y176642D02*
X73653Y171886D01*
X68898Y170231D02*
X73653Y174987D01*
X68898Y180539D02*
X73653Y175784D01*
X68898Y166334D02*
X73653Y171089D01*
X68898Y172744D02*
X73653Y167989D01*
X79890Y181239D02*
X101663Y159466D01*
X78248Y178984D02*
X99714Y157518D01*
X76299Y177035D02*
X97765Y155569D01*
X75953Y146107D02*
X98952Y169106D01*
X75953Y142210D02*
X100901Y167158D01*
X75953Y165689D02*
X91919Y149723D01*
X75953Y173484D02*
X95816Y153620D01*
X75953Y153902D02*
X95055Y173004D01*
X75953Y157800D02*
X93106Y174953D01*
X75953Y150005D02*
X97004Y171055D01*
X75953Y169586D02*
X93868Y151671D01*
X84853Y143315D02*
X101973Y160434D01*
X85430Y143234D02*
X102067Y159871D01*
X87716Y141560D02*
X100675Y154519D01*
X90001Y143845D02*
X108502Y125345D01*
X75953Y142304D02*
X109086Y109171D01*
X88044Y138710D02*
X100675Y151342D01*
X75953Y122723D02*
X102803Y149572D01*
X75953Y118825D02*
X106701Y149572D01*
X75953Y138312D02*
X100680Y163039D01*
X75953Y111030D02*
X109086Y144163D01*
X75953Y114928D02*
X109086Y148061D01*
X75953Y161791D02*
X89970Y147774D01*
X68898Y150744D02*
X73653Y155500D01*
X68898Y157154D02*
X73653Y152399D01*
X75953Y102839D02*
Y176689D01*
Y157894D02*
X88022Y145825D01*
X73653Y102362D02*
Y177165D01*
X68898Y161052D02*
X73653Y156296D01*
X68898Y154642D02*
X73653Y159397D01*
X68898Y158539D02*
X73653Y163294D01*
X68898Y51181D02*
Y354331D01*
Y51181D02*
Y354331D01*
X75953Y153996D02*
X86073Y143877D01*
X75953Y150099D02*
X83089Y142963D01*
X75953Y146201D02*
X81270Y140885D01*
X68898Y139052D02*
X73653Y143807D01*
X68898Y146847D02*
X73653Y151602D01*
X68898Y149359D02*
X73653Y144604D01*
X68898Y153257D02*
X73653Y148501D01*
X68898Y145462D02*
X73653Y140707D01*
X68898Y142949D02*
X73653Y147705D01*
X117542Y127998D02*
X119082Y126457D01*
X111912Y124444D02*
X114742Y127275D01*
X116742Y125315D02*
X117132Y125705D01*
X111386Y126358D02*
X112606Y125139D01*
X111386Y138050D02*
X114742Y134695D01*
X111386Y130874D02*
X114742Y134229D01*
X111386Y134771D02*
X114742Y138126D01*
X111386Y134153D02*
X114742Y130798D01*
X111386Y126976D02*
X114742Y130332D01*
X111386Y130255D02*
X114554Y127087D01*
X114855Y118752D02*
X115084Y118982D01*
X114855Y108322D02*
Y119083D01*
X112055Y107743D02*
Y119507D01*
X111386Y114666D02*
X112055Y113997D01*
X111386Y111386D02*
X112055Y112055D01*
X111386Y115284D02*
X112055Y115952D01*
X111386Y107489D02*
X112055Y108157D01*
X111386Y110768D02*
X112055Y110100D01*
X105858Y125345D02*
X109086Y128574D01*
X103002Y125345D02*
X109086D01*
X111502Y120640D02*
Y123455D01*
X88053Y141897D02*
X104604Y125345D01*
X87845Y138207D02*
X103002Y123050D01*
X88203Y107690D02*
X103002Y122489D01*
Y118750D02*
Y125345D01*
X111386Y119181D02*
X111884Y119679D01*
X109086Y104331D02*
Y118750D01*
X111386Y118563D02*
X112055Y117895D01*
X107302Y118750D02*
X109086Y116966D01*
X103002Y119153D02*
X103405Y118750D01*
X109086Y113068D01*
X103002Y118750D02*
X109086D01*
X113943Y102251D02*
X115455Y103762D01*
X117154Y101564D02*
X117403Y101814D01*
X111994Y104199D02*
X113506Y105711D01*
X112465Y106753D02*
X118291Y100926D01*
X117154Y101564D02*
X117403Y101814D01*
X111386Y104807D02*
X114769Y101424D01*
X111386Y106871D02*
X116561Y101696D01*
X109425Y103515D02*
X113143Y99797D01*
X109439Y101645D02*
X110368Y102573D01*
X88203Y106669D02*
X116848Y78024D01*
X88203Y102772D02*
X113825Y77150D01*
X109439Y95128D02*
Y101723D01*
Y101023D02*
X112983Y97480D01*
X109439Y97747D02*
X112317Y100624D01*
X109439Y71505D02*
Y78101D01*
Y77638D02*
X112905Y74173D01*
X108977Y78101D02*
X109439Y77638D01*
X102844Y78101D02*
X109439D01*
X102844Y71505D02*
X109439D01*
X102844Y95128D02*
X109439D01*
X94053Y51181D02*
X114706Y71834D01*
X90156Y51181D02*
X112950Y73975D01*
X102844Y101723D02*
X109439D01*
X105620D02*
X109086Y105189D01*
X88203Y103793D02*
X103160Y118750D01*
X88203Y95998D02*
X109086Y116881D01*
X88203Y100773D02*
Y107888D01*
Y92101D02*
X109086Y112984D01*
X102844Y95128D02*
Y101723D01*
X88203Y88962D02*
Y96077D01*
Y94977D02*
X105079Y78101D01*
X102844Y71505D02*
Y78101D01*
X88203Y91079D02*
X102844Y76438D01*
X87019Y59737D02*
X102844Y75562D01*
X88203Y57023D02*
X102844Y71665D01*
X86423Y88962D02*
X102844Y72541D01*
X88073Y56133D02*
X93024Y51181D01*
X86346Y53962D02*
X89127Y51181D01*
X75953Y134509D02*
X108739Y101723D01*
X84504Y107888D02*
X109086Y132471D01*
X85767Y136388D02*
X103002Y119153D01*
X75953Y130517D02*
X82422Y136987D01*
X75953Y126620D02*
X85699Y136366D01*
X75953Y134415D02*
X81094Y139556D01*
X75953Y138407D02*
X109086Y105273D01*
X75953Y103235D02*
X109086Y136368D01*
X75953Y107133D02*
X109086Y140266D01*
X81088Y100773D02*
Y107888D01*
X88203D01*
X77703Y101088D02*
X81088Y104473D01*
X81601Y97191D02*
X85183Y100773D01*
X81088D02*
X88203D01*
X79652Y99139D02*
X81286Y100773D01*
X75953Y118919D02*
X86984Y107888D01*
X75953Y115022D02*
X83087Y107888D01*
X75953Y107227D02*
X81088Y102092D01*
X75953Y130612D02*
X104842Y101723D01*
X75953Y126714D02*
X102844Y99823D01*
X68898Y129872D02*
X73653Y125117D01*
X68898Y123462D02*
X73653Y128217D01*
X68898Y127359D02*
X73653Y132115D01*
X68898Y119564D02*
X73653Y124320D01*
X68898Y122077D02*
X73653Y117322D01*
X68898Y125975D02*
X73653Y121219D01*
X68898Y135154D02*
X73653Y139910D01*
X68898Y137667D02*
X73653Y132912D01*
X68898Y141565D02*
X73653Y136809D01*
X68898Y133770D02*
X73653Y129014D01*
X68898Y131257D02*
X73653Y136012D01*
X75953Y111124D02*
X81088Y105989D01*
X68898Y103975D02*
X73653Y108730D01*
X68898Y110385D02*
X73653Y105629D01*
X68898Y100077D02*
X73653Y104833D01*
X68898Y118180D02*
X73653Y113424D01*
X68898Y111770D02*
X73653Y116525D01*
X68898Y115667D02*
X73653Y120423D01*
X68898Y107872D02*
X73653Y112628D01*
X68898Y114282D02*
X73653Y109527D01*
X84385Y96077D02*
X107057Y118750D01*
X82714Y96077D02*
X88203D01*
X82407Y100773D02*
X87103Y96077D01*
X86304Y100773D02*
X108977Y78101D01*
X70668Y51181D02*
X114870Y95383D01*
X75953Y122817D02*
X102844Y95926D01*
X68898Y68898D02*
X109086Y109086D01*
X68898Y53308D02*
X113003Y97413D01*
X68898Y65000D02*
X102844Y98947D01*
X68898Y98693D02*
X116409Y51181D01*
X68898Y53308D02*
X113003Y97413D01*
X68898Y83103D02*
X100819Y51181D01*
X81088Y88962D02*
X88203D01*
X68898Y79205D02*
X96922Y51181D01*
X86258D02*
X106582Y71505D01*
X68898Y67513D02*
X85229Y51181D01*
X68898Y57205D02*
X106820Y95128D01*
X68898Y94795D02*
X112512Y51181D01*
X68898Y61103D02*
X102922Y95128D01*
X68898Y90898D02*
X108614Y51181D01*
X68898Y87000D02*
X104717Y51181D01*
X75953Y103329D02*
X83205Y96077D01*
X75953Y102839D02*
X82714Y96077D01*
X73992Y101547D02*
X81088Y94451D01*
Y88962D02*
Y94451D01*
X68898Y80590D02*
X81088Y92781D01*
X68898Y84487D02*
X79975Y95564D01*
X68898Y106488D02*
X81088Y94297D01*
X68898Y92282D02*
X76077Y99462D01*
X68898Y96180D02*
X74128Y101411D01*
X68898Y102590D02*
X81088Y90399D01*
X68898Y88385D02*
X78026Y97513D01*
X68898Y59718D02*
X77435Y51181D01*
X68898Y55821D02*
X73537Y51181D01*
X68898Y51923D02*
X69640Y51181D01*
X78463D02*
X81995Y54713D01*
X82361Y51181D02*
X84709Y53530D01*
X74566Y51181D02*
X81154Y57770D01*
X68898Y72795D02*
X85065Y88962D01*
X68898Y75308D02*
X83692Y60514D01*
X68898Y76693D02*
X81167Y88962D01*
X68898Y71410D02*
X81521Y58787D01*
X68898Y63616D02*
X81332Y51181D01*
D34*
X139764Y348425D02*
D03*
D35*
X76772Y299213D02*
D03*
X185039Y419291D02*
D03*
X289370Y214567D02*
D03*
X287402Y66929D02*
D03*
D36*
X234252Y328740D02*
D03*
X163386Y338583D02*
D03*
X206693Y137795D02*
D03*
X155512Y169291D02*
D03*
X145669Y295276D02*
D03*
X214567Y248031D02*
D03*
X124016Y269685D02*
D03*
X295276Y92520D02*
D03*
X281496D02*
D03*
X157480Y127953D02*
D03*
X226378Y183071D02*
D03*
X167323Y200787D02*
D03*
X212598Y147638D02*
D03*
X155512Y181102D02*
D03*
X175197Y84646D02*
D03*
X240598Y265748D02*
D03*
X240158Y240158D02*
D03*
X238189Y147638D02*
D03*
X220472Y127953D02*
D03*
X242126Y196850D02*
D03*
X240158Y251969D02*
D03*
X120079Y157480D02*
D03*
X92520Y328740D02*
D03*
X106850Y362205D02*
D03*
X116850D02*
D03*
X126850D02*
D03*
X136850D02*
D03*
X146850D02*
D03*
X156850D02*
D03*
X166850D02*
D03*
X176850D02*
D03*
X186850D02*
D03*
X196850D02*
D03*
X206850D02*
D03*
X216850D02*
D03*
X226850D02*
D03*
X236850D02*
D03*
X246850D02*
D03*
X256850D02*
D03*
X266850D02*
D03*
X276850D02*
D03*
X286850Y464567D02*
D03*
X276850D02*
D03*
X266850D02*
D03*
X256850D02*
D03*
X246850D02*
D03*
X236850D02*
D03*
X226850D02*
D03*
X216850D02*
D03*
X206850D02*
D03*
X196850D02*
D03*
X186850D02*
D03*
X176850D02*
D03*
X166850D02*
D03*
X156850D02*
D03*
X146850D02*
D03*
X136850D02*
D03*
X126850D02*
D03*
X116850D02*
D03*
X92520Y340551D02*
D03*
X78740Y224409D02*
D03*
X222441Y293307D02*
D03*
X84646Y57087D02*
D03*
X147638Y340551D02*
D03*
X242126Y340551D02*
D03*
X84646Y139764D02*
D03*
D37*
X234252Y293307D02*
D03*
X145669Y259842D02*
D03*
X295276Y127953D02*
D03*
X281496D02*
D03*
X157480Y92520D02*
D03*
X226378Y147638D02*
D03*
X167323Y236221D02*
D03*
X212598Y183071D02*
D03*
X238189D02*
D03*
X220472Y92520D02*
D03*
X286850Y362205D02*
D03*
X106850Y464567D02*
D03*
X78740Y259842D02*
D03*
X222441Y328740D02*
D03*
X84646Y92520D02*
D03*
X147638Y305118D02*
D03*
X84646Y104331D02*
D03*
D38*
X198819Y338583D02*
D03*
X242126Y137795D02*
D03*
X120079Y169291D02*
D03*
X179134Y248031D02*
D03*
X88583Y269685D02*
D03*
X120079Y181102D02*
D03*
X210630Y84646D02*
D03*
X276031Y265748D02*
D03*
X275591Y240158D02*
D03*
X277559Y196850D02*
D03*
X275591Y251969D02*
D03*
X155512Y157480D02*
D03*
X127953Y328740D02*
D03*
Y340551D02*
D03*
X277559D02*
D03*
D39*
X94606Y255157D02*
D03*
X254055Y180354D02*
D03*
X169409Y178386D02*
D03*
X173346Y127205D02*
D03*
X92638Y312244D02*
D03*
X187008Y234252D02*
D03*
X234370Y127205D02*
D03*
X163504Y322087D02*
D03*
D40*
X94606Y245158D02*
D03*
Y235157D02*
D03*
Y225157D02*
D03*
X125866D02*
D03*
Y235157D02*
D03*
Y245158D02*
D03*
Y255157D02*
D03*
X285315Y180354D02*
D03*
Y170354D02*
D03*
Y160354D02*
D03*
Y150354D02*
D03*
X254055D02*
D03*
Y160354D02*
D03*
Y170354D02*
D03*
X200669Y178386D02*
D03*
Y168386D02*
D03*
Y158386D02*
D03*
Y148386D02*
D03*
X169409D02*
D03*
Y158386D02*
D03*
Y168386D02*
D03*
X204606Y127205D02*
D03*
Y117205D02*
D03*
Y107205D02*
D03*
Y97205D02*
D03*
X173346D02*
D03*
Y107205D02*
D03*
Y117205D02*
D03*
X123898Y312244D02*
D03*
Y302244D02*
D03*
Y292244D02*
D03*
Y282244D02*
D03*
X92638D02*
D03*
Y292244D02*
D03*
Y302244D02*
D03*
X187008Y224252D02*
D03*
Y214252D02*
D03*
Y204252D02*
D03*
X218268D02*
D03*
Y214252D02*
D03*
Y224252D02*
D03*
Y234252D02*
D03*
X234370Y117205D02*
D03*
Y107205D02*
D03*
Y97205D02*
D03*
X265630D02*
D03*
Y107205D02*
D03*
Y117205D02*
D03*
Y127205D02*
D03*
X163504Y312087D02*
D03*
Y302087D02*
D03*
Y292087D02*
D03*
X194764D02*
D03*
Y302087D02*
D03*
Y312087D02*
D03*
Y322087D02*
D03*
D41*
X234409Y64961D02*
D03*
X224410D02*
D03*
X104331Y163228D02*
D03*
Y173228D02*
D03*
D42*
X214409Y64961D02*
D03*
D43*
X104331Y153228D02*
D03*
D44*
X106142Y74803D02*
D03*
X106299Y122047D02*
D03*
X106142Y98425D02*
D03*
D45*
X116142Y74803D02*
D03*
X126142D02*
D03*
X116299Y122047D02*
D03*
X126299D02*
D03*
X116142Y98425D02*
D03*
X126142D02*
D03*
D46*
X267717Y226378D02*
D03*
X248031D02*
D03*
Y210630D02*
D03*
X267717D02*
D03*
D47*
X299213Y364173D02*
D03*
Y462598D02*
D03*
X94488Y364173D02*
D03*
Y462598D02*
D03*
D48*
X122047Y208661D02*
D03*
X147638D02*
D03*
X149606Y141732D02*
D03*
X139764D02*
D03*
X86614Y222441D02*
D03*
X110236Y208661D02*
D03*
X116142D02*
D03*
X271654Y102362D02*
D03*
D49*
X252511Y402224D02*
X257842D01*
X252511Y407555D01*
Y408888D01*
X253844Y410221D01*
X256510D01*
X257842Y408888D01*
X249845D02*
X248512Y410221D01*
X245846D01*
X244514Y408888D01*
Y403557D01*
X245846Y402224D01*
X248512D01*
X249845Y403557D01*
Y408888D01*
X241848D02*
X240515Y410221D01*
X237849D01*
X236516Y408888D01*
Y403557D01*
X237849Y402224D01*
X240515D01*
X241848Y403557D01*
Y408888D01*
X233850D02*
X232517Y410221D01*
X229852D01*
X228519Y408888D01*
Y403557D01*
X229852Y402224D01*
X232517D01*
X233850Y403557D01*
Y408888D01*
X220521Y402224D02*
X225853D01*
X220521Y407555D01*
Y408888D01*
X221854Y410221D01*
X224520D01*
X225853Y408888D01*
X217856D02*
X216523Y410221D01*
X213857D01*
X212524Y408888D01*
Y407555D01*
X213857Y406222D01*
X215190D01*
X213857D01*
X212524Y404889D01*
Y403557D01*
X213857Y402224D01*
X216523D01*
X217856Y403557D01*
X204526Y408888D02*
X205859Y410221D01*
X208525D01*
X209858Y408888D01*
Y403557D01*
X208525Y402224D01*
X205859D01*
X204526Y403557D01*
X188532Y402224D02*
X193863D01*
X188532Y407555D01*
Y408888D01*
X189865Y410221D01*
X192530D01*
X193863Y408888D01*
X185866D02*
X184533Y410221D01*
X181867D01*
X180534Y408888D01*
Y403557D01*
X181867Y402224D01*
X184533D01*
X185866Y403557D01*
Y408888D01*
X177868D02*
X176535Y410221D01*
X173870D01*
X172537Y408888D01*
Y403557D01*
X173870Y402224D01*
X176535D01*
X177868Y403557D01*
Y408888D01*
X164539Y402224D02*
X169871D01*
X164539Y407555D01*
Y408888D01*
X165872Y410221D01*
X168538D01*
X169871Y408888D01*
X161874Y402224D02*
X159208D01*
X160541D01*
Y410221D01*
X161874Y408888D01*
X149878Y402224D02*
X155209D01*
X149878Y407555D01*
Y408888D01*
X151210Y410221D01*
X153876D01*
X155209Y408888D01*
X141880Y410221D02*
X147212D01*
Y406222D01*
X144546D01*
X147212D01*
Y402224D01*
X252511Y387827D02*
X257842D01*
X252511Y393158D01*
Y394491D01*
X253844Y395824D01*
X256510D01*
X257842Y394491D01*
X249845D02*
X248512Y395824D01*
X245846D01*
X244514Y394491D01*
Y389160D01*
X245846Y387827D01*
X248512D01*
X249845Y389160D01*
Y394491D01*
X241848D02*
X240515Y395824D01*
X237849D01*
X236516Y394491D01*
Y389160D01*
X237849Y387827D01*
X240515D01*
X241848Y389160D01*
Y394491D01*
X229852Y387827D02*
Y395824D01*
X233850Y391826D01*
X228519D01*
X225853Y394491D02*
X224520Y395824D01*
X221854D01*
X220521Y394491D01*
Y389160D01*
X221854Y387827D01*
X224520D01*
X225853Y389160D01*
Y394491D01*
X217856D02*
X216523Y395824D01*
X213857D01*
X212524Y394491D01*
Y389160D01*
X213857Y387827D01*
X216523D01*
X217856Y389160D01*
Y394491D01*
X204526Y395824D02*
X209858D01*
Y391826D01*
X207192D01*
X209858D01*
Y387827D01*
X188532D02*
X193863D01*
X188532Y393158D01*
Y394491D01*
X189865Y395824D01*
X192530D01*
X193863Y394491D01*
X185866D02*
X184533Y395824D01*
X181867D01*
X180534Y394491D01*
Y389160D01*
X181867Y387827D01*
X184533D01*
X185866Y389160D01*
Y394491D01*
X177868D02*
X176535Y395824D01*
X173870D01*
X172537Y394491D01*
Y389160D01*
X173870Y387827D01*
X176535D01*
X177868Y389160D01*
Y394491D01*
X164539Y395824D02*
X167205Y394491D01*
X169871Y391826D01*
Y389160D01*
X168538Y387827D01*
X165872D01*
X164539Y389160D01*
Y390493D01*
X165872Y391826D01*
X169871D01*
X157875Y387827D02*
Y395824D01*
X161874Y391826D01*
X156542D01*
X153876Y387827D02*
X151210D01*
X152543D01*
Y395824D01*
X153876Y394491D01*
X147212Y395824D02*
X141880D01*
X144546D01*
Y387827D01*
X257842Y437195D02*
Y427197D01*
X251177Y437195D02*
Y427197D01*
X257842Y432434D02*
X251177D01*
X248416Y431006D02*
X242703D01*
Y431958D01*
X243179Y432910D01*
X243655Y433386D01*
X244607Y433862D01*
X246036D01*
X246988Y433386D01*
X247940Y432434D01*
X248416Y431006D01*
Y430053D01*
X247940Y428625D01*
X246988Y427673D01*
X246036Y427197D01*
X244607D01*
X243655Y427673D01*
X242703Y428625D01*
X234847Y433862D02*
Y427197D01*
Y432434D02*
X235800Y433386D01*
X236752Y433862D01*
X238180D01*
X239132Y433386D01*
X240084Y432434D01*
X240561Y431006D01*
Y430053D01*
X240084Y428625D01*
X239132Y427673D01*
X238180Y427197D01*
X236752D01*
X235800Y427673D01*
X234847Y428625D01*
X232181Y433862D02*
Y427197D01*
Y431006D02*
X231705Y432434D01*
X230753Y433386D01*
X229801Y433862D01*
X228373D01*
X226040Y437195D02*
Y429101D01*
X225564Y427673D01*
X224611Y427197D01*
X223659D01*
X227468Y433862D02*
X224135D01*
X208187Y437195D02*
X214376D01*
Y427197D01*
X208187D01*
X214376Y432434D02*
X210567D01*
X199379Y434814D02*
X199855Y435766D01*
X200807Y436719D01*
X201759Y437195D01*
X203664D01*
X204616Y436719D01*
X205568Y435766D01*
X206044Y434814D01*
X206520Y433386D01*
Y431006D01*
X206044Y429577D01*
X205568Y428625D01*
X204616Y427673D01*
X203664Y427197D01*
X201759D01*
X200807Y427673D01*
X199855Y428625D01*
X199379Y429577D01*
X189429Y434814D02*
X189905Y435766D01*
X190857Y436719D01*
X191809Y437195D01*
X193713D01*
X194666Y436719D01*
X195618Y435766D01*
X196094Y434814D01*
X196570Y433386D01*
Y431006D01*
X196094Y429577D01*
X195618Y428625D01*
X194666Y427673D01*
X193713Y427197D01*
X191809D01*
X190857Y427673D01*
X189905Y428625D01*
X189429Y429577D01*
Y431006D01*
X191809D02*
X189429D01*
X179288Y437195D02*
Y427197D01*
Y437195D02*
X175479Y427197D01*
X171670Y437195D02*
X175479Y427197D01*
X171670Y437195D02*
Y427197D01*
X166434Y433862D02*
X167386Y433386D01*
X168338Y432434D01*
X168814Y431006D01*
Y430053D01*
X168338Y428625D01*
X167386Y427673D01*
X166434Y427197D01*
X165005D01*
X164053Y427673D01*
X163101Y428625D01*
X162625Y430053D01*
Y431006D01*
X163101Y432434D01*
X164053Y433386D01*
X165005Y433862D01*
X166434D01*
X160435D02*
Y427197D01*
Y431958D02*
X159007Y433386D01*
X158054Y433862D01*
X156626D01*
X155674Y433386D01*
X155198Y431958D01*
Y427197D01*
X151627Y437195D02*
X151151Y436719D01*
X150675Y437195D01*
X151151Y437671D01*
X151627Y437195D01*
X151151Y433862D02*
Y427197D01*
X147485Y437195D02*
Y429101D01*
X147009Y427673D01*
X146057Y427197D01*
X145105D01*
X148914Y433862D02*
X145581D01*
X141296D02*
X142248Y433386D01*
X143200Y432434D01*
X143676Y431006D01*
Y430053D01*
X143200Y428625D01*
X142248Y427673D01*
X141296Y427197D01*
X139868D01*
X138916Y427673D01*
X137963Y428625D01*
X137487Y430053D01*
Y431006D01*
X137963Y432434D01*
X138916Y433386D01*
X139868Y433862D01*
X141296D01*
X135297D02*
Y427197D01*
Y431006D02*
X134821Y432434D01*
X133869Y433386D01*
X132917Y433862D01*
X131489D01*
M02*
