G04*
G04 #@! TF.GenerationSoftware,Altium Limited,Altium Designer,23.2.1 (34)*
G04*
G04 Layer_Color=65535*
%FSLAX25Y25*%
%MOIN*%
G70*
G04*
G04 #@! TF.SameCoordinates,0B46A028-55CD-44D3-B25E-2AE8110CF676*
G04*
G04*
G04 #@! TF.FilePolarity,Positive*
G04*
G01*
G75*
%ADD10C,0.00984*%
%ADD11C,0.00591*%
%ADD12C,0.00787*%
%ADD13C,0.00500*%
D10*
X528091Y132284D02*
X527352Y132710D01*
Y131857D01*
X528091Y132284D01*
X492264Y162992D02*
X491526Y163418D01*
Y162566D01*
X492264Y162992D01*
D11*
X611811Y166339D02*
X611774Y167339D01*
X611661Y168334D01*
X611475Y169317D01*
X611216Y170284D01*
X610886Y171229D01*
X610485Y172147D01*
X610018Y173032D01*
X609485Y173879D01*
X608891Y174685D01*
X608238Y175443D01*
X607530Y176151D01*
X606771Y176804D01*
X605966Y177399D01*
X605118Y177931D01*
X604233Y178399D01*
X603316Y178799D01*
X602371Y179130D01*
X601404Y179389D01*
X600420Y179575D01*
X599426Y179687D01*
X598425Y179725D01*
X597425Y179687D01*
X596430Y179575D01*
X595447Y179389D01*
X594480Y179130D01*
X593535Y178799D01*
X592617Y178399D01*
X591732Y177931D01*
X590885Y177399D01*
X590079Y176804D01*
X589321Y176151D01*
X588613Y175443D01*
X587960Y174685D01*
X587365Y173879D01*
X586833Y173032D01*
X586365Y172147D01*
X585965Y171229D01*
X585634Y170284D01*
X585375Y169317D01*
X585189Y168334D01*
X585077Y167339D01*
X585039Y166339D01*
X585077Y165338D01*
X585189Y164344D01*
X585375Y163360D01*
X585634Y162393D01*
X585965Y161448D01*
X586365Y160531D01*
X586833Y159646D01*
X587365Y158798D01*
X587960Y157993D01*
X588613Y157234D01*
X589321Y156526D01*
X590079Y155873D01*
X590885Y155279D01*
X591732Y154746D01*
X592617Y154279D01*
X593535Y153878D01*
X594480Y153548D01*
X595447Y153288D01*
X596430Y153102D01*
X597425Y152990D01*
X598425Y152953D01*
X599426Y152990D01*
X600420Y153102D01*
X601404Y153288D01*
X602371Y153548D01*
X603316Y153878D01*
X604233Y154279D01*
X605118Y154746D01*
X605966Y155279D01*
X606771Y155873D01*
X607530Y156526D01*
X608238Y157234D01*
X608891Y157993D01*
X609485Y158798D01*
X610018Y159646D01*
X610485Y160531D01*
X610886Y161448D01*
X611216Y162393D01*
X611475Y163360D01*
X611661Y164344D01*
X611774Y165338D01*
X611811Y166339D01*
X611811Y130906D02*
X611774Y131906D01*
X611662Y132901D01*
X611476Y133884D01*
X611216Y134851D01*
X610886Y135796D01*
X610486Y136714D01*
X610018Y137599D01*
X609485Y138446D01*
X608891Y139252D01*
X608238Y140010D01*
X607530Y140718D01*
X606771Y141371D01*
X605966Y141966D01*
X605118Y142498D01*
X604233Y142966D01*
X603316Y143366D01*
X602371Y143697D01*
X601404Y143956D01*
X600420Y144142D01*
X599426Y144254D01*
X598425Y144291D01*
X597425Y144254D01*
X596430Y144142D01*
X595447Y143956D01*
X594480Y143697D01*
X593535Y143366D01*
X592617Y142966D01*
X591732Y142498D01*
X590885Y141966D01*
X590079Y141371D01*
X589321Y140718D01*
X588613Y140010D01*
X587960Y139252D01*
X587365Y138446D01*
X586833Y137599D01*
X586365Y136714D01*
X585965Y135796D01*
X585634Y134851D01*
X585375Y133884D01*
X585189Y132901D01*
X585077Y131906D01*
X585040Y130906D01*
X585077Y129905D01*
X585189Y128911D01*
X585375Y127927D01*
X585634Y126960D01*
X585965Y126015D01*
X586365Y125098D01*
X586833Y124213D01*
X587365Y123365D01*
X587960Y122560D01*
X588613Y121801D01*
X589321Y121093D01*
X590079Y120440D01*
X590885Y119846D01*
X591732Y119313D01*
X592618Y118845D01*
X593535Y118445D01*
X594480Y118115D01*
X595447Y117856D01*
X596430Y117669D01*
X597425Y117557D01*
X598425Y117520D01*
X599426Y117557D01*
X600420Y117669D01*
X601404Y117856D01*
X602371Y118115D01*
X603316Y118445D01*
X604233Y118845D01*
X605118Y119313D01*
X605966Y119846D01*
X606771Y120440D01*
X607530Y121093D01*
X608238Y121801D01*
X608891Y122560D01*
X609485Y123365D01*
X610018Y124213D01*
X610486Y125098D01*
X610886Y126015D01*
X611216Y126960D01*
X611476Y127927D01*
X611662Y128911D01*
X611774Y129905D01*
X611811Y130906D01*
X574409Y131890D02*
X574372Y132890D01*
X574260Y133885D01*
X574074Y134868D01*
X573815Y135835D01*
X573484Y136780D01*
X573084Y137698D01*
X572616Y138583D01*
X572084Y139430D01*
X571489Y140236D01*
X570836Y140994D01*
X570128Y141702D01*
X569370Y142355D01*
X568564Y142950D01*
X567717Y143482D01*
X566831Y143950D01*
X565914Y144350D01*
X564969Y144681D01*
X564002Y144940D01*
X563019Y145126D01*
X562024Y145238D01*
X561024Y145276D01*
X560023Y145238D01*
X559029Y145126D01*
X558045Y144940D01*
X557078Y144681D01*
X556133Y144350D01*
X555216Y143950D01*
X554331Y143482D01*
X553483Y142950D01*
X552678Y142355D01*
X551919Y141702D01*
X551211Y140994D01*
X550558Y140236D01*
X549964Y139430D01*
X549431Y138583D01*
X548963Y137698D01*
X548563Y136780D01*
X548233Y135835D01*
X547973Y134868D01*
X547787Y133885D01*
X547675Y132890D01*
X547638Y131890D01*
X547675Y130889D01*
X547787Y129895D01*
X547973Y128911D01*
X548233Y127944D01*
X548563Y126999D01*
X548963Y126082D01*
X549431Y125197D01*
X549964Y124349D01*
X550558Y123544D01*
X551211Y122785D01*
X551919Y122077D01*
X552678Y121424D01*
X553483Y120830D01*
X554331Y120297D01*
X555216Y119829D01*
X556133Y119429D01*
X557078Y119099D01*
X558045Y118840D01*
X559029Y118653D01*
X560023Y118541D01*
X561024Y118504D01*
X562024Y118541D01*
X563019Y118653D01*
X564002Y118840D01*
X564969Y119099D01*
X565914Y119429D01*
X566831Y119829D01*
X567717Y120297D01*
X568564Y120830D01*
X569370Y121424D01*
X570128Y122077D01*
X570836Y122785D01*
X571489Y123544D01*
X572084Y124349D01*
X572616Y125197D01*
X573084Y126082D01*
X573484Y126999D01*
X573815Y127944D01*
X574074Y128911D01*
X574260Y129895D01*
X574372Y130889D01*
X574409Y131890D01*
Y163386D02*
X574372Y164386D01*
X574260Y165381D01*
X574074Y166365D01*
X573815Y167331D01*
X573484Y168276D01*
X573084Y169194D01*
X572616Y170079D01*
X572084Y170926D01*
X571489Y171732D01*
X570836Y172491D01*
X570128Y173198D01*
X569370Y173851D01*
X568564Y174446D01*
X567717Y174978D01*
X566831Y175446D01*
X565914Y175846D01*
X564969Y176177D01*
X564002Y176436D01*
X563019Y176622D01*
X562024Y176734D01*
X561024Y176772D01*
X560023Y176734D01*
X559029Y176622D01*
X558045Y176436D01*
X557078Y176177D01*
X556133Y175846D01*
X555216Y175446D01*
X554331Y174978D01*
X553483Y174446D01*
X552678Y173851D01*
X551919Y173198D01*
X551211Y172491D01*
X550558Y171732D01*
X549964Y170926D01*
X549431Y170079D01*
X548963Y169194D01*
X548563Y168276D01*
X548233Y167331D01*
X547973Y166365D01*
X547787Y165381D01*
X547675Y164386D01*
X547638Y163386D01*
X547675Y162385D01*
X547787Y161391D01*
X547973Y160407D01*
X548233Y159440D01*
X548563Y158495D01*
X548963Y157578D01*
X549431Y156693D01*
X549964Y155845D01*
X550558Y155040D01*
X551211Y154281D01*
X551919Y153573D01*
X552678Y152920D01*
X553483Y152326D01*
X554331Y151793D01*
X555216Y151326D01*
X556133Y150925D01*
X557078Y150595D01*
X558045Y150336D01*
X559029Y150150D01*
X560023Y150037D01*
X561024Y150000D01*
X562024Y150037D01*
X563019Y150150D01*
X564002Y150336D01*
X564969Y150595D01*
X565914Y150925D01*
X566831Y151326D01*
X567717Y151793D01*
X568564Y152326D01*
X569370Y152920D01*
X570128Y153573D01*
X570836Y154281D01*
X571489Y155040D01*
X572084Y155845D01*
X572616Y156693D01*
X573084Y157578D01*
X573484Y158495D01*
X573815Y159440D01*
X574074Y160407D01*
X574260Y161391D01*
X574372Y162385D01*
X574409Y163386D01*
D12*
X653937Y165354D02*
X653150D01*
X653937D01*
X427559Y167323D02*
X426772D01*
X427559D01*
X489213Y118701D02*
X530157D01*
Y116732D02*
Y134843D01*
X489213D02*
X530157D01*
X489213Y116732D02*
Y134843D01*
Y116732D02*
X530157D01*
X589370Y156988D02*
X607480D01*
X489213Y178543D02*
X530157D01*
Y160433D02*
Y178543D01*
X489213Y160433D02*
X530157D01*
X489212D02*
Y178543D01*
X489213Y176575D02*
X530157D01*
X457598Y125925D02*
Y166910D01*
X467598D01*
Y125925D02*
Y166910D01*
X457598Y125925D02*
X467598D01*
X589370Y140256D02*
X607480D01*
X551968Y141241D02*
X570079D01*
X325709Y128051D02*
X335709D01*
Y169036D01*
X325709D02*
X335709D01*
X325709Y128051D02*
Y169036D01*
X551969Y172736D02*
X570079D01*
D13*
X624016Y161417D02*
X663386D01*
X624016Y125984D02*
X663386D01*
X624016D02*
Y161417D01*
X663386Y125984D02*
Y161417D01*
X437008Y127953D02*
Y163386D01*
X358268Y127953D02*
Y163386D01*
Y127953D02*
X437008D01*
X358268Y163386D02*
X437008D01*
M02*
