G04*
G04 #@! TF.GenerationSoftware,Altium Limited,Altium Designer,23.2.1 (34)*
G04*
G04 Layer_Physical_Order=1*
G04 Layer_Color=255*
%FSLAX25Y25*%
%MOIN*%
G70*
G04*
G04 #@! TF.SameCoordinates,0B46A028-55CD-44D3-B25E-2AE8110CF676*
G04*
G04*
G04 #@! TF.FilePolarity,Positive*
G04*
G01*
G75*
%ADD17C,0.06693*%
%ADD18R,0.06693X0.06693*%
%ADD22C,0.11811*%
%ADD23R,0.06693X0.06693*%
%ADD24C,0.07677*%
%ADD25R,0.07677X0.07677*%
D17*
X499685Y127953D02*
D03*
X509685D02*
D03*
X598425Y171260D02*
D03*
X509685Y167323D02*
D03*
X519685D02*
D03*
X462598Y161417D02*
D03*
Y141417D02*
D03*
Y151417D02*
D03*
X598425Y125984D02*
D03*
X561024Y126969D02*
D03*
X330709Y153543D02*
D03*
Y143543D02*
D03*
Y163543D02*
D03*
X561024Y158465D02*
D03*
D18*
X598425Y161417D02*
D03*
X462598Y131417D02*
D03*
X598425Y135827D02*
D03*
X561024Y136811D02*
D03*
X330709Y133543D02*
D03*
X561024Y168307D02*
D03*
D22*
X303150Y147638D02*
D03*
X492126D02*
D03*
X677165D02*
D03*
D23*
X519685Y127953D02*
D03*
X499685Y167323D02*
D03*
D24*
X633858Y145669D02*
D03*
X407480Y147638D02*
D03*
X387795D02*
D03*
X368110D02*
D03*
D25*
X653543Y145669D02*
D03*
X427165Y147638D02*
D03*
M02*
