G04*
G04 #@! TF.GenerationSoftware,Altium Limited,Altium Designer,23.2.1 (34)*
G04*
G04 Layer_Color=16711935*
%FSLAX25Y25*%
%MOIN*%
G70*
G04*
G04 #@! TF.SameCoordinates,FD52DB97-2028-4BFA-9E6B-1C7D996C3806*
G04*
G04*
G04 #@! TF.FilePolarity,Negative*
G04*
G01*
G75*
%ADD14C,0.07591*%
%ADD15C,0.06591*%
%ADD16C,0.05906*%
%ADD17R,0.05906X0.05906*%
%ADD18R,0.05906X0.05906*%
%ADD19R,0.05039X0.05039*%
%ADD20C,0.05039*%
%ADD21R,0.04724X0.04724*%
%ADD22C,0.04724*%
%ADD23C,0.06102*%
%ADD24R,0.06102X0.06102*%
%ADD25R,0.06102X0.06102*%
%ADD26R,0.05386X0.05386*%
%ADD27C,0.05386*%
%ADD28C,0.05118*%
%ADD29C,0.09449*%
%ADD30C,0.05315*%
%ADD31C,0.02953*%
D14*
X139764Y348425D02*
D03*
D15*
X76772Y299213D02*
D03*
X185039Y419291D02*
D03*
X289370Y214567D02*
D03*
X287402Y66929D02*
D03*
D16*
X234252Y328740D02*
D03*
X163386Y338583D02*
D03*
X206693Y137795D02*
D03*
X155512Y169291D02*
D03*
X145669Y295276D02*
D03*
X214567Y248031D02*
D03*
X124016Y269685D02*
D03*
X295276Y92520D02*
D03*
X281496D02*
D03*
X157480Y127953D02*
D03*
X226378Y183071D02*
D03*
X167323Y200787D02*
D03*
X212598Y147638D02*
D03*
X155512Y181102D02*
D03*
X175197Y84646D02*
D03*
X240598Y265748D02*
D03*
X240158Y240158D02*
D03*
X238189Y147638D02*
D03*
X220472Y127953D02*
D03*
X242126Y196850D02*
D03*
X240158Y251969D02*
D03*
X120079Y157480D02*
D03*
X92520Y328740D02*
D03*
X106850Y362205D02*
D03*
X116850D02*
D03*
X126850D02*
D03*
X136850D02*
D03*
X146850D02*
D03*
X156850D02*
D03*
X166850D02*
D03*
X176850D02*
D03*
X186850D02*
D03*
X196850D02*
D03*
X206850D02*
D03*
X216850D02*
D03*
X226850D02*
D03*
X236850D02*
D03*
X246850D02*
D03*
X256850D02*
D03*
X266850D02*
D03*
X276850D02*
D03*
X286850Y464567D02*
D03*
X276850D02*
D03*
X266850D02*
D03*
X256850D02*
D03*
X246850D02*
D03*
X236850D02*
D03*
X226850D02*
D03*
X216850D02*
D03*
X206850D02*
D03*
X196850D02*
D03*
X186850D02*
D03*
X176850D02*
D03*
X166850D02*
D03*
X156850D02*
D03*
X146850D02*
D03*
X136850D02*
D03*
X126850D02*
D03*
X116850D02*
D03*
X92520Y340551D02*
D03*
X78740Y224409D02*
D03*
X222441Y293307D02*
D03*
X84646Y57087D02*
D03*
X147638Y340551D02*
D03*
X242126Y340551D02*
D03*
X84646Y139764D02*
D03*
D17*
X234252Y293307D02*
D03*
X145669Y259842D02*
D03*
X295276Y127953D02*
D03*
X281496D02*
D03*
X157480Y92520D02*
D03*
X226378Y147638D02*
D03*
X167323Y236221D02*
D03*
X212598Y183071D02*
D03*
X238189D02*
D03*
X220472Y92520D02*
D03*
X286850Y362205D02*
D03*
X106850Y464567D02*
D03*
X78740Y259842D02*
D03*
X222441Y328740D02*
D03*
X84646Y92520D02*
D03*
X147638Y305118D02*
D03*
X84646Y104331D02*
D03*
D18*
X198819Y338583D02*
D03*
X242126Y137795D02*
D03*
X120079Y169291D02*
D03*
X179134Y248031D02*
D03*
X88583Y269685D02*
D03*
X120079Y181102D02*
D03*
X210630Y84646D02*
D03*
X276031Y265748D02*
D03*
X275591Y240158D02*
D03*
X277559Y196850D02*
D03*
X275591Y251969D02*
D03*
X155512Y157480D02*
D03*
X127953Y328740D02*
D03*
Y340551D02*
D03*
X277559D02*
D03*
D19*
X94606Y255157D02*
D03*
X254055Y180354D02*
D03*
X169409Y178386D02*
D03*
X173346Y127205D02*
D03*
X92638Y312244D02*
D03*
X187008Y234252D02*
D03*
X234370Y127205D02*
D03*
X163504Y322087D02*
D03*
D20*
X94606Y245158D02*
D03*
Y235157D02*
D03*
Y225157D02*
D03*
X125866D02*
D03*
Y235157D02*
D03*
Y245158D02*
D03*
Y255157D02*
D03*
X285315Y180354D02*
D03*
Y170354D02*
D03*
Y160354D02*
D03*
Y150354D02*
D03*
X254055D02*
D03*
Y160354D02*
D03*
Y170354D02*
D03*
X200669Y178386D02*
D03*
Y168386D02*
D03*
Y158386D02*
D03*
Y148386D02*
D03*
X169409D02*
D03*
Y158386D02*
D03*
Y168386D02*
D03*
X204606Y127205D02*
D03*
Y117205D02*
D03*
Y107205D02*
D03*
Y97205D02*
D03*
X173346D02*
D03*
Y107205D02*
D03*
Y117205D02*
D03*
X123898Y312244D02*
D03*
Y302244D02*
D03*
Y292244D02*
D03*
Y282244D02*
D03*
X92638D02*
D03*
Y292244D02*
D03*
Y302244D02*
D03*
X187008Y224252D02*
D03*
Y214252D02*
D03*
Y204252D02*
D03*
X218268D02*
D03*
Y214252D02*
D03*
Y224252D02*
D03*
Y234252D02*
D03*
X234370Y117205D02*
D03*
Y107205D02*
D03*
Y97205D02*
D03*
X265630D02*
D03*
Y107205D02*
D03*
Y117205D02*
D03*
Y127205D02*
D03*
X163504Y312087D02*
D03*
Y302087D02*
D03*
Y292087D02*
D03*
X194764D02*
D03*
Y302087D02*
D03*
Y312087D02*
D03*
Y322087D02*
D03*
D21*
X181102Y262795D02*
D03*
X206693Y312008D02*
D03*
X214567Y261811D02*
D03*
D22*
X181102Y272638D02*
D03*
X206693Y321850D02*
D03*
X214567Y271654D02*
D03*
D23*
X234409Y64961D02*
D03*
X224410D02*
D03*
X104331Y163228D02*
D03*
Y173228D02*
D03*
D24*
X214409Y64961D02*
D03*
D25*
X104331Y153228D02*
D03*
D26*
X106142Y74803D02*
D03*
X106299Y122047D02*
D03*
X106142Y98425D02*
D03*
D27*
X116142Y74803D02*
D03*
X126142D02*
D03*
X116299Y122047D02*
D03*
X126299D02*
D03*
X116142Y98425D02*
D03*
X126142D02*
D03*
D28*
X267717Y226378D02*
D03*
X248031D02*
D03*
Y210630D02*
D03*
X267717D02*
D03*
D29*
X299213Y364173D02*
D03*
Y462598D02*
D03*
X94488Y364173D02*
D03*
Y462598D02*
D03*
D30*
X259842Y294291D02*
D03*
Y323819D02*
D03*
D31*
X122047Y208661D02*
D03*
X147638D02*
D03*
X149606Y141732D02*
D03*
X139764D02*
D03*
X86614Y222441D02*
D03*
X110236Y208661D02*
D03*
X116142D02*
D03*
X271654Y102362D02*
D03*
M02*
