M48
;Layer_Color=9474304
;FILE_FORMAT=4:4
METRIC,LZ
;TYPE=PLATED
T1F00S00C0.3000
T2F00S00C0.7000
T3F00S00C0.7100
T4F00S00C0.7800
T5F00S00C0.8000
T6F00S00C0.8500
T7F00S00C0.8600
T8F00S00C0.9000
T9F00S00C1.0160
;TYPE=NON_PLATED
T10F00S00C2.2500
T11F00S00C3.0000
%
T01
X00355Y0036
X0038
X0069Y0026
X00375Y0053
X0031
X00295
X0028
X0022Y00565
T02
X0046Y006675
Y006925
X00545Y0069
Y00665
X00525Y007925
Y008175
T03
X002696Y0019
X00295
X003204
Y0025
X00295
X002696
X0027Y0031
X002954
X003208
T04
X004403Y002469
Y002723
Y002977
Y003231
X004303Y003769
X005097
X005197Y003231
Y002977
Y002723
Y002469
X005953
Y002723
Y002977
Y003231
X006747
Y002977
Y002723
Y002469
X006453Y003819
X007247
Y004073
Y004327
Y004581
X006453
Y004327
Y004073
X005097Y004023
Y004277
Y004531
X004303
Y004277
Y004023
X00475Y005188
Y005442
Y005696
Y00595
X005544
Y005696
Y005442
Y005188
X004947Y007419
Y007673
Y007927
X004153
Y007673
Y007419
X003147Y007423
Y007677
Y007931
Y007169
X003197Y006481
Y006227
Y005973
Y005719
X002403
Y005973
Y006227
Y006481
X002353Y007169
Y007423
Y007677
Y007931
X004153Y008181
X004947
T05
X0063Y00535
Y00575
X0068
Y00535
T06
X00215Y00145
Y00235
Y00265
Y00355
X004Y00325
Y00235
X00445Y00215
X00535
X0056Y00235
Y00325
X00525Y0035
X0054Y00375
X00575
X00605
X00615Y0035
X00715Y00325
X0075
Y00235
X00715
X00705Y005
X00615
X00605Y00465
X00575
X0054
X00425Y0051
Y006
X00455Y0063
X00545
X0061Y0064
Y0061
X0061112Y00675
X00595Y00745
X00565
X0066Y007475
X0070112Y00675
X007Y0064
Y0061
X0037Y0066
X00315Y00685
X00225
X002Y0066
Y0057
X00305Y0046
Y0043
Y004
X00395
Y0043
Y0046
X0037Y0075
X00375Y00775
Y00865
X00325Y00865
Y00835
X00235
Y00865
X00415Y0086
X00505
X00565Y00835
X00595
X00615Y00865
X0066Y008225
X00705Y00865
T07
X00265Y003892
X005446Y00165
X0057
X005954
X00265Y004146
Y0044
T08
X002714Y0092
X002968
X003222
X003476
X00373
Y0118
X003476
X003222
X002968
X002714
X003984
X004238
X004492
X004746
X005
X005254
X005508
X005762
X006016
X00627
X006524
X006778
X007032
X007286
Y0092
X007032
X006778
X006524
X00627
X006016
X005762
X005508
X005254
X005
X004746
X004492
X004238
X003984
T09
X00355Y00885
T10
X0024Y00925
Y01175
X0076
Y00925
T11
X0073Y0017
X00735Y00545
X00195Y0076
X0047Y01065
M30
